SplineFontDB: 3.0
FontName: Rokkitt
FullName: Rokkitt
FamilyName: Rokkitt
Weight: Book
Copyright: Copyright (c) 2011 by vernon adams. All rights reserved.
Version: 1.000
ItalicAngle: 0
UnderlinePosition: -103
UnderlineWidth: 102
Ascent: 1638
Descent: 410
sfntRevision: 0x00010000
LayerCount: 2
Layer: 0 1 "Back"  1
Layer: 1 1 "Fore"  0
XUID: [1021 759 1887733602 5492429]
FSType: 256
OS2Version: 2
OS2_WeightWidthSlopeOnly: 0
OS2_UseTypoMetrics: 1
CreationTime: 1303726980
ModificationTime: 1303733036
PfmFamily: 17
TTFWeight: 400
TTFWidth: 5
LineGap: 0
VLineGap: 0
Panose: 2 0 5 3 5 0 0 2 0 3
OS2TypoAscent: 1500
OS2TypoAOffset: 0
OS2TypoDescent: -524
OS2TypoDOffset: 0
OS2TypoLinegap: 0
OS2WinAscent: 1500
OS2WinAOffset: 0
OS2WinDescent: 524
OS2WinDOffset: 0
HheadAscent: 1500
HheadAOffset: 0
HheadDescent: -524
HheadDOffset: 0
OS2SubXSize: 1346
OS2SubYSize: 1243
OS2SubXOff: 0
OS2SubYOff: 174
OS2SupXSize: 1346
OS2SupYSize: 1243
OS2SupXOff: 0
OS2SupYOff: 756
OS2StrikeYSize: 102
OS2StrikeYPos: 512
OS2Vendor: 'newt'
OS2CodePages: 20000001.00000000
OS2UnicodeRanges: 800000ef.5000204b.00000000.00000000
Lookup: 258 0 0 "'kern' Horizontal Kerning in Latin lookup 0"  {"'kern' Horizontal Kerning in Latin lookup 0 subtable"  } ['kern' ('latn' <'dflt' > ) ]
MarkAttachClasses: 1
DEI: 91125
TtTable: prep
PUSHW_1
 511
SCANCTRL
PUSHB_1
 1
SCANTYPE
SVTCA[y-axis]
MPPEM
PUSHB_1
 8
LT
IF
PUSHB_2
 1
 1
INSTCTRL
EIF
PUSHB_2
 70
 6
CALL
IF
POP
PUSHB_1
 16
EIF
MPPEM
PUSHB_1
 20
GT
IF
POP
PUSHB_1
 128
EIF
SCVTCI
PUSHB_1
 6
CALL
NOT
IF
SVTCA[y-axis]
PUSHB_1
 4
DUP
RCVT
PUSHB_1
 3
CALL
WCVTP
PUSHB_1
 6
DUP
RCVT
PUSHB_3
 4
 186
 2
CALL
PUSHB_1
 3
CALL
WCVTP
PUSHB_1
 5
DUP
RCVT
PUSHB_3
 6
 57
 2
CALL
PUSHB_1
 3
CALL
WCVTP
PUSHB_1
 7
DUP
RCVT
PUSHB_3
 4
 120
 2
CALL
PUSHB_1
 3
CALL
WCVTP
SVTCA[x-axis]
PUSHB_1
 8
DUP
RCVT
PUSHB_1
 3
CALL
WCVTP
PUSHB_1
 13
DUP
RCVT
PUSHB_3
 8
 121
 2
CALL
PUSHB_2
 3
 70
SROUND
CALL
WCVTP
PUSHB_1
 12
DUP
RCVT
PUSHB_3
 13
 32
 2
CALL
PUSHB_2
 3
 70
SROUND
CALL
WCVTP
PUSHB_1

StartChar: A
Encoding: 65 65 1
Width: 1219
Flags: W
HStem: 0 127<6 157.25 310 459 774 924 1076.75 1227> 424 121<424 809> 1041 112<337 437 561.599 672.175 796 897>
LayerCount: 2
Fore
SplineSet
897 1153 m 1,0,-1
 897 1043 l 1,1,-1
 796 1041 l 1,2,3
 816 985 816 985 839.5 916 c 128,-1,4
 863 847 863 847 887.5 772.5 c 128,-1,5
 912 698 912 698 936.5 621.5 c 128,-1,6
 961 545 961 545 984 473 c 0,7,8
 1037 305 1037 305 1090 127 c 1,9,-1
 1227 125 l 1,10,-1
 1227 0 l 1,11,-1
 774 0 l 1,12,-1
 774 127 l 1,13,-1
 924 127 l 1,14,-1
 849 424 l 1,15,-1
 384 424 l 1,16,-1
 310 126 l 1,17,-1
 459 126 l 1,18,-1
 459 0 l 1,19,-1
 6 0 l 1,20,-1
 6 125 l 1,21,-1
 144 127 l 1,22,23
 197 305 197 305 250 473 c 0,24,25
 272 545 272 545 296.5 621.5 c 128,-1,26
 321 698 321 698 345.5 772.5 c 128,-1,27
 370 847 370 847 393.5 916 c 128,-1,28
 417 985 417 985 437 1041 c 1,29,-1
 337 1043 l 1,30,-1
 337 1153 l 1,31,-1
 617 1153 l 1,32,-1
 897 1153 l 1,0,-1
809 545 m 1,33,34
 771 679 771 679 739 785 c 0,35,36
 725 830 725 830 711.5 874.5 c 128,-1,37
 698 919 698 919 686.5 954.5 c 128,-1,38
 675 990 675 990 666 1013.5 c 128,-1,39
 657 1037 657 1037 654 1041 c 1,40,-1
 580 1041 l 1,41,42
 576 1037 576 1037 567.5 1013.5 c 128,-1,43
 559 990 559 990 547.5 954.5 c 128,-1,44
 536 919 536 919 522.5 874.5 c 128,-1,45
 509 830 509 830 495 785 c 0,46,47
 462 679 462 679 424 545 c 1,48,-1
 809 545 l 1,33,34
EndSplineSet
EndChar

StartChar: B
Encoding: 66 66 2
Width: 1039
Flags: W
HStem: 0 126<45 193 354 718.734> 532 129<353 679.117> 1026 127<45 193 353 683.363>
VStem: 193 160<127 532 661 1026> 741 165<721.356 970.832> 794 167<196.19 456.975>
LayerCount: 2
Fore
SplineSet
193 127 m 1,0,-1
 190 577 l 1,1,-1
 193 1026 l 1,2,-1
 45 1029 l 1,3,-1
 45 1153 l 1,4,-1
 531 1153 l 2,5,6
 635 1153 635 1153 706.5 1128.5 c 128,-1,7
 778 1104 778 1104 822.5 1062.5 c 128,-1,8
 867 1021 867 1021 886.5 967.5 c 128,-1,9
 906 914 906 914 906 857 c 0,10,11
 906 811 906 811 893.5 771.5 c 128,-1,12
 881 732 881 732 859.5 700.5 c 128,-1,13
 838 669 838 669 809 645.5 c 128,-1,14
 780 622 780 622 746 607 c 1,15,16
 792 592 792 592 831.5 566 c 128,-1,17
 871 540 871 540 899.5 503.5 c 128,-1,18
 928 467 928 467 944.5 421 c 128,-1,19
 961 375 961 375 961 322 c 0,20,21
 961 270 961 270 942.5 213.5 c 128,-1,22
 924 157 924 157 875.5 109.5 c 128,-1,23
 827 62 827 62 741 31 c 128,-1,24
 655 0 655 0 520 0 c 2,25,-1
 45 0 l 1,26,-1
 45 125 l 1,27,-1
 193 127 l 1,0,-1
354 127 m 1,28,29
 392 126 392 126 425 126 c 2,30,-1
 519 126 l 2,31,32
 595 126 595 126 647.5 140 c 128,-1,33
 700 154 700 154 732.5 180.5 c 128,-1,34
 765 207 765 207 779.5 245 c 128,-1,35
 794 283 794 283 794 332 c 0,36,37
 794 371 794 371 780.5 407 c 128,-1,38
 767 443 767 443 736 470.5 c 128,-1,39
 705 498 705 498 653 515 c 128,-1,40
 601 532 601 532 525 532 c 2,41,-1
 353 532 l 1,42,-1
 353 320 l 2,43,44
 353 234 353 234 354 127 c 1,28,29
516 661 m 2,45,46
 579 661 579 661 622 676 c 128,-1,47
 665 691 665 691 691.5 716.5 c 128,-1,48
 718 742 718 742 729.5 776 c 128,-1,49
 741 810 741 810 741 847 c 0,50,51
 741 892 741 892 727.5 925.5 c 128,-1,52
 714 959 714 959 684.5 981.5 c 128,-1,53
 655 1004 655 1004 607.5 1015.5 c 128,-1,54
 560 1027 560 1027 492 1027 c 0,55,56
 481 1027 481 1027 457.5 1026.5 c 128,-1,57
 434 1026 434 1026 411 1026 c 2,58,-1
 353 1026 l 1,59,-1
 353 661 l 1,60,-1
 516 661 l 2,45,46
EndSplineSet
EndChar

StartChar: C
Encoding: 67 67 3
Width: 1285
Flags: W
HStem: -19 139<478.2 880.683> 804 21G<1015 1169> 1036 135<470.871 860.264> 1133 20G<1039 1169>
VStem: 81 177<358.533 804.446> 1039 130<1022 1153> 1065 135<289.703 354.54>
LayerCount: 2
Fore
SplineSet
655 -19 m 0,0,1
 523 -19 523 -19 416.5 24.5 c 128,-1,2
 310 68 310 68 235.5 146 c 128,-1,3
 161 224 161 224 121 333.5 c 128,-1,4
 81 443 81 443 81 575 c 256,5,6
 81 707 81 707 119 817 c 128,-1,7
 157 927 157 927 230 1005.5 c 128,-1,8
 303 1084 303 1084 409.5 1127.5 c 128,-1,9
 516 1171 516 1171 652 1171 c 0,10,11
 774 1171 774 1171 873 1129.5 c 128,-1,12
 972 1088 972 1088 1039 1022 c 1,13,-1
 1039 1153 l 1,14,-1
 1169 1153 l 1,15,-1
 1169 804 l 1,16,-1
 1044 804 l 1,17,18
 986 920 986 920 885.5 978 c 128,-1,19
 785 1036 785 1036 660 1036 c 0,20,21
 565 1036 565 1036 490.5 1001.5 c 128,-1,22
 416 967 416 967 364.5 905.5 c 128,-1,23
 313 844 313 844 285.5 760.5 c 128,-1,24
 258 677 258 677 258 580 c 0,25,26
 258 484 258 484 286.5 400 c 128,-1,27
 315 316 315 316 368 253.5 c 128,-1,28
 421 191 421 191 496.5 155.5 c 128,-1,29
 572 120 572 120 666 120 c 0,30,31
 729 120 729 120 794 134.5 c 128,-1,32
 859 149 859 149 914.5 183.5 c 128,-1,33
 970 218 970 218 1010.5 275 c 128,-1,34
 1051 332 1051 332 1065 418 c 1,35,-1
 1200 347 l 1,36,37
 1182 264 1182 264 1136 196.5 c 128,-1,38
 1090 129 1090 129 1020 81 c 128,-1,39
 950 33 950 33 858 7 c 128,-1,40
 766 -19 766 -19 655 -19 c 0,0,1
EndSplineSet
EndChar

StartChar: D
Encoding: 68 68 4
Width: 1262
Flags: W
HStem: 0 126<30 191 353 800.598> 1026 127<30 191 351 802.298>
VStem: 189.5 162<127 1026> 1005 165<332.641 818.009>
LayerCount: 2
Fore
SplineSet
30 125 m 1,0,-1
 191 127 l 1,1,2
 190 244 190 244 190 340 c 0,3,4
 190 381 190 381 189.5 421 c 128,-1,5
 189 461 189 461 189 493.5 c 128,-1,6
 189 526 189 526 189 548.5 c 128,-1,7
 189 571 189 571 189 577 c 256,8,9
 189 583 189 583 189 605 c 128,-1,10
 189 627 189 627 189 660 c 128,-1,11
 189 693 189 693 189.5 732.5 c 128,-1,12
 190 772 190 772 190 813 c 0,13,14
 190 908 190 908 191 1026 c 1,15,-1
 30 1029 l 1,16,-1
 30 1153 l 1,17,-1
 293 1153 l 2,18,19
 343 1153 343 1153 392.5 1153 c 128,-1,20
 442 1153 442 1153 482 1153.5 c 128,-1,21
 522 1154 522 1154 549.5 1154 c 128,-1,22
 577 1154 577 1154 584 1154 c 0,23,24
 698 1154 698 1154 786 1131 c 128,-1,25
 874 1108 874 1108 939 1067 c 128,-1,26
 1004 1026 1004 1026 1048.5 971.5 c 128,-1,27
 1093 917 1093 917 1120 854 c 128,-1,28
 1147 791 1147 791 1158.5 722.5 c 128,-1,29
 1170 654 1170 654 1170 587 c 0,30,31
 1170 454 1170 454 1136.5 346 c 128,-1,32
 1103 238 1103 238 1031 161 c 128,-1,33
 959 84 959 84 845 42 c 128,-1,34
 731 0 731 0 570 0 c 2,35,-1
 30 0 l 1,36,-1
 30 125 l 1,0,-1
351 577 m 2,37,38
 351 572 351 572 351 550 c 128,-1,39
 351 528 351 528 351 495.5 c 128,-1,40
 351 463 351 463 351.5 423 c 128,-1,41
 352 383 352 383 352 342 c 0,42,43
 352 246 352 246 353 127 c 1,44,45
 406 126 406 126 452 126 c 2,46,-1
 576 126 l 2,47,48
 702 126 702 126 785 162.5 c 128,-1,49
 868 199 868 199 916.5 261 c 128,-1,50
 965 323 965 323 985 405.5 c 128,-1,51
 1005 488 1005 488 1005 581 c 0,52,53
 1005 676 1005 676 982.5 757.5 c 128,-1,54
 960 839 960 839 909.5 899 c 128,-1,55
 859 959 859 959 778 993 c 128,-1,56
 697 1027 697 1027 580 1027 c 0,57,58
 574 1027 574 1027 561 1027 c 128,-1,59
 548 1027 548 1027 530.5 1026.5 c 128,-1,60
 513 1026 513 1026 493 1026 c 128,-1,61
 473 1026 473 1026 453 1026 c 2,62,-1
 351 1026 l 1,63,-1
 351 577 l 2,37,38
EndSplineSet
EndChar

StartChar: E
Encoding: 69 69 5
Width: 1089
Flags: W
HStem: 0 127<52 208 369 894> 526 129<369 728> 1026 127<52 208 367 892>
VStem: 208 161<127 526 655 1026> 741 88<410 526 655 769> 894 129<127 328 832 1026>
LayerCount: 2
Fore
SplineSet
52 127 m 1,0,-1
 208 127 l 1,1,-1
 208 577 l 1,2,-1
 208 1029 l 1,3,-1
 52 1029 l 1,4,-1
 52 1153 l 1,5,-1
 550 1153 l 1,6,-1
 1023 1153 l 1,7,-1
 1023 832 l 1,8,-1
 892 832 l 1,9,-1
 892 1026 l 1,10,-1
 367 1026 l 1,11,-1
 367 655 l 1,12,-1
 729 655 l 1,13,-1
 742 769 l 1,14,-1
 829 769 l 1,15,-1
 829 410 l 1,16,-1
 741 410 l 1,17,-1
 728 526 l 1,18,-1
 369 526 l 1,19,-1
 369 127 l 1,20,-1
 894 127 l 1,21,-1
 894 328 l 1,22,-1
 1023 328 l 1,23,-1
 1023 0 l 1,24,-1
 550 0 l 1,25,-1
 52 0 l 1,26,-1
 52 127 l 1,0,-1
EndSplineSet
EndChar

StartChar: F
Encoding: 70 70 6
Width: 974
Flags: W
HStem: 0 126<38 190 351 507> 528 129<351 757> 1026 127<38 190 350 823>
VStem: 190 161<127 528 657 1026> 823 132<832 1026>
LayerCount: 2
Fore
SplineSet
38 127 m 1,0,-1
 190 127 l 1,1,-1
 190 577 l 1,2,-1
 190 1029 l 1,3,-1
 38 1029 l 1,4,-1
 38 1153 l 1,5,-1
 955 1153 l 1,6,-1
 955 832 l 1,7,-1
 823 832 l 1,8,-1
 823 1026 l 1,9,-1
 350 1026 l 1,10,-1
 350 657 l 1,11,-1
 757 657 l 1,12,-1
 757 528 l 1,13,-1
 351 528 l 1,14,-1
 351 126 l 1,15,-1
 507 126 l 1,16,-1
 507 0 l 1,17,-1
 38 0 l 1,18,-1
 38 127 l 1,0,-1
EndSplineSet
EndChar

StartChar: G
Encoding: 71 71 7
Width: 1370
Flags: W
HStem: -19 138<489.737 928.016> 436 127<852 1079> 804 21G<1036.5 1190> 1036 135<483.288 881.792> 1133 20G<1060 1190>
VStem: 87 178<352.29 807.351> 1060 130<1022 1153>
LayerCount: 2
Fore
SplineSet
673 1171 m 0,0,1
 795 1171 795 1171 894.5 1129.5 c 128,-1,2
 994 1088 994 1088 1060 1022 c 1,3,-1
 1060 1153 l 1,4,-1
 1190 1153 l 1,5,-1
 1190 804 l 1,6,-1
 1066 804 l 1,7,8
 1007 920 1007 920 907 978 c 128,-1,9
 807 1036 807 1036 682 1036 c 0,10,11
 582 1036 582 1036 504.5 1001.5 c 128,-1,12
 427 967 427 967 373.5 906.5 c 128,-1,13
 320 846 320 846 292.5 762 c 128,-1,14
 265 678 265 678 265 579 c 256,15,16
 265 480 265 480 292.5 396 c 128,-1,17
 320 312 320 312 374.5 250.5 c 128,-1,18
 429 189 429 189 510 154 c 128,-1,19
 591 119 591 119 697 119 c 0,20,21
 796 119 796 119 866 139.5 c 128,-1,22
 936 160 936 160 981 200 c 128,-1,23
 1026 240 1026 240 1049.5 299.5 c 128,-1,24
 1073 359 1073 359 1079 436 c 1,25,-1
 852 436 l 1,26,-1
 852 563 l 1,27,-1
 1259 563 l 1,28,29
 1256 405 1256 405 1211.5 294.5 c 128,-1,30
 1167 184 1167 184 1092 114.5 c 128,-1,31
 1017 45 1017 45 915.5 13 c 128,-1,32
 814 -19 814 -19 696 -19 c 0,33,34
 571 -19 571 -19 477.5 9.5 c 128,-1,35
 384 38 384 38 316.5 85.5 c 128,-1,36
 249 133 249 133 204.5 194.5 c 128,-1,37
 160 256 160 256 134 322.5 c 128,-1,38
 108 389 108 389 97.5 456 c 128,-1,39
 87 523 87 523 87 580 c 0,40,41
 87 646 87 646 100 715.5 c 128,-1,42
 113 785 113 785 142 851 c 128,-1,43
 171 917 171 917 216.5 975 c 128,-1,44
 262 1033 262 1033 327 1076.5 c 128,-1,45
 392 1120 392 1120 478 1145.5 c 128,-1,46
 564 1171 564 1171 673 1171 c 0,0,1
EndSplineSet
EndChar

StartChar: H
Encoding: 72 72 8
Width: 1250
Flags: W
HStem: 0 127<51 190 351 494 759 902 1062 1201> 538 129<351 901> 1026 127<51 190 350 494 759 901 1062 1201>
VStem: 190 161<127 538 667 1026> 759 442<0 125 1027 1153> 902 160<127 538 667 1026>
LayerCount: 2
Fore
SplineSet
51 127 m 1,0,-1
 190 127 l 1,1,-1
 190 577 l 1,2,-1
 190 1029 l 1,3,-1
 51 1029 l 1,4,-1
 51 1153 l 1,5,-1
 494 1153 l 1,6,-1
 494 1026 l 1,7,-1
 350 1026 l 1,8,-1
 350 667 l 1,9,-1
 901 667 l 1,10,-1
 901 1027 l 1,11,-1
 759 1027 l 1,12,-1
 759 1153 l 1,13,-1
 1201 1153 l 1,14,-1
 1201 1026 l 1,15,-1
 1062 1026 l 1,16,-1
 1062 577 l 1,17,-1
 1062 125 l 1,18,-1
 1201 125 l 1,19,-1
 1201 0 l 1,20,-1
 759 0 l 1,21,-1
 759 127 l 1,22,-1
 902 127 l 1,23,-1
 902 538 l 1,24,-1
 351 538 l 1,25,-1
 351 126 l 1,26,-1
 494 126 l 1,27,-1
 494 0 l 1,28,-1
 51 0 l 1,29,-1
 51 127 l 1,0,-1
EndSplineSet
EndChar

StartChar: I
Encoding: 73 73 9
Width: 543
Flags: W
HStem: 0 127<57 191 353 485> 1029 124<57 191 353 485>
VStem: 57 428<0 126 1029 1153> 191 162<127 1026>
LayerCount: 2
Fore
SplineSet
57 127 m 1,0,-1
 191 127 l 1,1,-1
 191 577 l 1,2,-1
 191 1029 l 1,3,-1
 57 1029 l 1,4,-1
 57 1153 l 1,5,-1
 485 1153 l 1,6,-1
 485 1026 l 1,7,-1
 353 1026 l 1,8,-1
 353 577 l 1,9,-1
 353 126 l 1,10,-1
 485 126 l 1,11,-1
 485 0 l 1,12,-1
 57 0 l 1,13,-1
 57 127 l 1,0,-1
EndSplineSet
EndChar

StartChar: J
Encoding: 74 74 10
Width: 553
Flags: W
HStem: -310 145<-51.0601 176.958> 1029 124<54 212 372 525>
VStem: 210 162<-124.255 1026>
LayerCount: 2
Fore
SplineSet
-52 -141 m 1,0,1
 -29 -152 -29 -152 -0.5 -158.5 c 128,-1,2
 28 -165 28 -165 68 -165 c 0,3,4
 145 -165 145 -165 178 -125.5 c 128,-1,5
 211 -86 211 -86 211 -4 c 0,6,7
 211 -1 211 -1 211 22 c 128,-1,8
 211 45 211 45 210.5 80.5 c 128,-1,9
 210 116 210 116 210 160.5 c 128,-1,10
 210 205 210 205 210 251 c 0,11,12
 209 358 209 358 209 494 c 2,13,-1
 212 1029 l 1,14,-1
 54 1029 l 1,15,-1
 54 1153 l 1,16,-1
 525 1153 l 1,17,-1
 525 1026 l 1,18,-1
 372 1026 l 1,19,-1
 372 -22 l 2,20,21
 372 -106 372 -106 347 -161.5 c 128,-1,22
 322 -217 322 -217 282 -250 c 128,-1,23
 242 -283 242 -283 192.5 -296.5 c 128,-1,24
 143 -310 143 -310 95 -310 c 0,25,26
 58 -310 58 -310 18 -302.5 c 128,-1,27
 -22 -295 -22 -295 -52 -284 c 1,28,-1
 -52 -141 l 1,0,1
EndSplineSet
EndChar

StartChar: L
Encoding: 76 76 11
Width: 923
Flags: W
HStem: 0 127<32 190 351 761> 1029 124<32 190 351 506>
VStem: 190 161<127 1026> 761 145<127 482>
LayerCount: 2
Fore
SplineSet
32 127 m 1,0,-1
 190 127 l 1,1,-1
 190 577 l 1,2,-1
 190 1029 l 1,3,-1
 32 1029 l 1,4,-1
 32 1153 l 1,5,-1
 506 1153 l 1,6,-1
 506 1026 l 1,7,-1
 351 1026 l 1,8,-1
 351 127 l 1,9,-1
 761 127 l 1,10,-1
 761 482 l 1,11,-1
 906 482 l 1,12,-1
 906 0 l 1,13,-1
 481 0 l 1,14,-1
 32 0 l 1,15,-1
 32 127 l 1,0,-1
EndSplineSet
EndChar

StartChar: M
Encoding: 77 77 12
Width: 1538
Flags: W
HStem: 0 127<46 194 328 461 1064 1197 1345 1492> 1029 124<46 194 1345 1492>
VStem: 194 134<127 1022> 1197 148<127 1023>
LayerCount: 2
Fore
SplineSet
194 577 m 1,0,-1
 194 1029 l 1,1,-1
 46 1029 l 1,2,-1
 46 1153 l 1,3,-1
 431 1153 l 1,4,-1
 599 736 l 1,5,-1
 764 317 l 1,6,-1
 1102 1153 l 1,7,-1
 1492 1153 l 1,8,-1
 1492 1026 l 1,9,-1
 1345 1026 l 1,10,-1
 1345 577 l 1,11,-1
 1345 125 l 1,12,-1
 1492 125 l 1,13,-1
 1492 0 l 1,14,-1
 1064 0 l 1,15,-1
 1064 127 l 1,16,-1
 1197 127 l 1,17,-1
 1197 1023 l 1,18,-1
 988 507 l 1,19,-1
 782 -10 l 1,20,-1
 740 -10 l 1,21,-1
 534 507 l 1,22,-1
 328 1022 l 1,23,-1
 328 126 l 1,24,-1
 461 126 l 1,25,-1
 461 0 l 1,26,-1
 46 0 l 1,27,-1
 46 127 l 1,28,-1
 194 127 l 1,29,-1
 194 577 l 1,0,-1
EndSplineSet
EndChar

StartChar: N
Encoding: 78 78 13
Width: 1267
Flags: W
HStem: 0 127<16 185 319 488> 1026 127<16 185 781 946 1080 1253>
VStem: 185 134<127 993> 946 134<225 1026>
LayerCount: 2
Fore
SplineSet
16 127 m 1,0,-1
 185 127 l 1,1,-1
 185 577 l 1,2,-1
 185 1029 l 1,3,-1
 16 1029 l 1,4,-1
 16 1153 l 1,5,-1
 398 1153 l 1,6,-1
 946 225 l 1,7,-1
 946 1027 l 1,8,-1
 781 1027 l 1,9,-1
 781 1153 l 1,10,-1
 1253 1153 l 1,11,-1
 1253 1026 l 1,12,-1
 1080 1026 l 1,13,-1
 1080 511 l 1,14,-1
 1080 -10 l 1,15,-1
 907 -10 l 1,16,-1
 319 993 l 1,17,-1
 319 126 l 1,18,-1
 488 126 l 1,19,-1
 488 0 l 1,20,-1
 16 0 l 1,21,-1
 16 127 l 1,0,-1
EndSplineSet
EndChar

StartChar: O
Encoding: 79 79 14
Width: 1371
Flags: W
HStem: -19 137<496.753 873.982> 1036 135<497.083 873.982>
VStem: 91 177<359.113 792.872> 1103 178<359.398 794.095>
LayerCount: 2
Fore
SplineSet
91 575 m 256,0,1
 91 700 91 700 132 809 c 128,-1,2
 173 918 173 918 249.5 998.5 c 128,-1,3
 326 1079 326 1079 436.5 1125 c 128,-1,4
 547 1171 547 1171 685 1171 c 0,5,6
 824 1171 824 1171 934.5 1124.5 c 128,-1,7
 1045 1078 1045 1078 1122 997.5 c 128,-1,8
 1199 917 1199 917 1240 808 c 128,-1,9
 1281 699 1281 699 1281 575 c 256,10,11
 1281 451 1281 451 1240 342.5 c 128,-1,12
 1199 234 1199 234 1122 154 c 128,-1,13
 1045 74 1045 74 934.5 27.5 c 128,-1,14
 824 -19 824 -19 685 -19 c 256,15,16
 546 -19 546 -19 436 27 c 128,-1,17
 326 73 326 73 249.5 153.5 c 128,-1,18
 173 234 173 234 132 342 c 128,-1,19
 91 450 91 450 91 575 c 256,0,1
268 575 m 0,20,21
 268 480 268 480 297.5 397 c 128,-1,22
 327 314 327 314 382 252 c 128,-1,23
 437 190 437 190 513.5 154 c 128,-1,24
 590 118 590 118 685 118 c 256,25,26
 780 118 780 118 857.5 154 c 128,-1,27
 935 190 935 190 989.5 252 c 128,-1,28
 1044 314 1044 314 1073.5 397 c 128,-1,29
 1103 480 1103 480 1103 575 c 0,30,31
 1103 671 1103 671 1073.5 755.5 c 128,-1,32
 1044 840 1044 840 989.5 902 c 128,-1,33
 935 964 935 964 857.5 1000 c 128,-1,34
 780 1036 780 1036 685 1036 c 256,35,36
 590 1036 590 1036 513.5 1000 c 128,-1,37
 437 964 437 964 382 902 c 128,-1,38
 327 840 327 840 297.5 755.5 c 128,-1,39
 268 671 268 671 268 575 c 0,20,21
EndSplineSet
EndChar

StartChar: P
Encoding: 80 80 15
Width: 1017
Flags: W
HStem: 0 126<40 191 353 511> 452 125<353 721.586> 1027 126<40 191 351 730.916>
VStem: 191 160<127 452 577 1027> 804 165<655.083 954.751>
LayerCount: 2
Fore
SplineSet
40 127 m 1,0,-1
 191 127 l 1,1,-1
 191 577 l 1,2,-1
 191 1029 l 1,3,-1
 40 1029 l 1,4,-1
 40 1153 l 1,5,-1
 573 1153 l 2,6,7
 693 1153 693 1153 769.5 1120.5 c 128,-1,8
 846 1088 846 1088 890.5 1037.5 c 128,-1,9
 935 987 935 987 952 925 c 128,-1,10
 969 863 969 863 969 805 c 0,11,12
 969 699 969 699 934 630.5 c 128,-1,13
 899 562 899 562 836.5 522.5 c 128,-1,14
 774 483 774 483 687.5 467.5 c 128,-1,15
 601 452 601 452 499 452 c 2,16,-1
 353 452 l 1,17,-1
 353 126 l 1,18,-1
 511 126 l 1,19,-1
 511 0 l 1,20,-1
 40 0 l 1,21,-1
 40 127 l 1,0,-1
351 577 m 1,22,-1
 529 577 l 2,23,24
 610 577 610 577 663.5 594.5 c 128,-1,25
 717 612 717 612 748 643 c 128,-1,26
 779 674 779 674 791.5 716 c 128,-1,27
 804 758 804 758 804 807 c 0,28,29
 804 915 804 915 744.5 971 c 128,-1,30
 685 1027 685 1027 578 1027 c 2,31,-1
 351 1027 l 1,32,-1
 351 577 l 1,22,-1
EndSplineSet
EndChar

StartChar: R
Encoding: 82 82 16
Width: 1074
Flags: W
HStem: 0 127<30 193 353 509 936 1082> 538 129<353 546> 1029 124<30 193 353 737.852>
VStem: 193 160<127 538 667 1026> 796 165<726.883 973.519>
LayerCount: 2
Fore
SplineSet
30 127 m 1,0,-1
 193 127 l 1,1,-1
 193 577 l 1,2,-1
 193 1029 l 1,3,-1
 30 1029 l 1,4,-1
 30 1153 l 1,5,-1
 581 1153 l 2,6,7
 680 1153 680 1153 751.5 1131.5 c 128,-1,8
 823 1110 823 1110 869.5 1071 c 128,-1,9
 916 1032 916 1032 938.5 977 c 128,-1,10
 961 922 961 922 961 855 c 0,11,12
 961 738 961 738 896 661 c 128,-1,13
 831 584 831 584 702 558 c 1,14,-1
 936 125 l 1,15,-1
 1082 125 l 1,16,-1
 1082 0 l 1,17,-1
 829 0 l 1,18,-1
 546 538 l 1,19,-1
 353 538 l 1,20,-1
 353 127 l 1,21,-1
 509 126 l 1,22,-1
 509 0 l 1,23,-1
 30 0 l 1,24,-1
 30 127 l 1,0,-1
576 667 m 2,25,26
 641 667 641 667 683.5 683.5 c 128,-1,27
 726 700 726 700 751 726.5 c 128,-1,28
 776 753 776 753 786 786.5 c 128,-1,29
 796 820 796 820 796 855 c 0,30,31
 796 940 796 940 740 983.5 c 128,-1,32
 684 1027 684 1027 589 1027 c 0,33,34
 575 1027 575 1027 537.5 1026.5 c 128,-1,35
 500 1026 500 1026 458 1026 c 2,36,-1
 353 1026 l 1,37,-1
 353 667 l 1,38,-1
 576 667 l 2,25,26
EndSplineSet
EndChar

StartChar: S
Encoding: 83 83 17
Width: 942
Flags: W
HStem: -19 130<325.735 637.426> 1041 130<267.984 607.668> 1133 20G<690 822>
VStem: 70 132<10 87 222.736 387 775.245 977.815> 691 131<826 966.809 1088.97 1153> 719 165<189.428 423.262>
LayerCount: 2
Fore
SplineSet
501 -19 m 0,0,1
 415 -19 415 -19 341 8 c 128,-1,2
 267 35 267 35 205 87 c 1,3,4
 205 87 205 87 204.5 74.5 c 128,-1,5
 204 62 204 62 203.5 47 c 128,-1,6
 203 32 203 32 202.5 19.5 c 128,-1,7
 202 7 202 7 202 7 c 1,8,9
 200 8 200 8 179 8 c 128,-1,10
 158 8 158 8 134 9 c 1,11,12
 105 9 105 9 70 10 c 1,13,-1
 70 387 l 1,14,-1
 199 387 l 1,15,16
 199 360 199 360 200 338 c 0,17,18
 200 319 200 319 200.5 302 c 128,-1,19
 201 285 201 285 201 281 c 1,20,21
 257 199 257 199 326.5 155 c 128,-1,22
 396 111 396 111 487 111 c 0,23,24
 540 111 540 111 583 127 c 128,-1,25
 626 143 626 143 656 170.5 c 128,-1,26
 686 198 686 198 702.5 235 c 128,-1,27
 719 272 719 272 719 314 c 0,28,29
 719 367 719 367 693.5 402 c 128,-1,30
 668 437 668 437 624 460.5 c 128,-1,31
 580 484 580 484 521.5 499.5 c 128,-1,32
 463 515 463 515 396 530 c 0,33,34
 328 545 328 545 267 567.5 c 128,-1,35
 206 590 206 590 160.5 628 c 128,-1,36
 115 666 115 666 88.5 722 c 128,-1,37
 62 778 62 778 62 859 c 0,38,39
 62 936 62 936 90 994.5 c 128,-1,40
 118 1053 118 1053 167 1092 c 128,-1,41
 216 1131 216 1131 282 1151 c 128,-1,42
 348 1171 348 1171 423 1171 c 0,43,44
 496 1171 496 1171 563 1150 c 128,-1,45
 630 1129 630 1129 687 1089 c 0,46,47
 687 1088 687 1088 687.5 1098.5 c 128,-1,48
 688 1109 688 1109 689 1121 c 0,49,50
 690 1135 690 1135 690 1153 c 1,51,-1
 822 1153 l 1,52,-1
 822 826 l 1,53,-1
 693 826 l 1,54,55
 692 848 692 848 692 867 c 1,56,57
 691 883 691 883 691 898 c 128,-1,58
 691 913 691 913 691 918 c 1,59,60
 643 981 643 981 581 1011 c 128,-1,61
 519 1041 519 1041 434 1041 c 0,62,63
 378 1041 378 1041 336 1028.5 c 128,-1,64
 294 1016 294 1016 265.5 994.5 c 128,-1,65
 237 973 237 973 222.5 943 c 128,-1,66
 208 913 208 913 208 877 c 0,67,68
 208 818 208 818 238 784 c 128,-1,69
 268 750 268 750 316.5 729.5 c 128,-1,70
 365 709 365 709 426.5 696.5 c 128,-1,71
 488 684 488 684 552 668 c 128,-1,72
 616 652 616 652 677 627.5 c 128,-1,73
 738 603 738 603 784 559 c 0,74,75
 832 513 832 513 858 449 c 128,-1,76
 884 385 884 385 884 316 c 0,77,78
 884 245 884 245 856 183.5 c 128,-1,79
 828 122 828 122 778 77 c 128,-1,80
 728 32 728 32 657 6.5 c 128,-1,81
 586 -19 586 -19 501 -19 c 0,0,1
EndSplineSet
EndChar

StartChar: T
Encoding: 84 84 18
Width: 992
Flags: W
HStem: 0 127<260 415 578 732> 754 399<21 150 837 968> 1027 126<150 415 578 837>
VStem: 21 129<754 1027> 415 163<127 1027> 837 131<754 1027>
LayerCount: 2
Fore
SplineSet
260 127 m 1,0,-1
 415 127 l 1,1,-1
 415 577 l 1,2,-1
 415 1027 l 1,3,-1
 150 1027 l 1,4,-1
 150 754 l 1,5,-1
 21 754 l 1,6,-1
 21 1153 l 1,7,-1
 494 1153 l 1,8,-1
 968 1153 l 1,9,-1
 968 754 l 1,10,-1
 837 754 l 1,11,-1
 837 1027 l 1,12,-1
 578 1027 l 1,13,-1
 578 577 l 1,14,-1
 578 126 l 1,15,-1
 732 126 l 1,16,-1
 732 0 l 1,17,-1
 260 0 l 1,18,-1
 260 127 l 1,0,-1
EndSplineSet
EndChar

StartChar: U
Encoding: 85 85 19
Width: 1197
Flags: W
HStem: -19 125<431.409 771.874> 1029 124<27 177 337 479 719 861 1021 1170>
VStem: 175 162<201.959 1026> 861 161<196.015 1026>
LayerCount: 2
Fore
SplineSet
27 1029 m 1,0,-1
 27 1153 l 1,1,-1
 479 1153 l 1,2,-1
 479 1026 l 1,3,-1
 337 1026 l 1,4,-1
 337 378 l 2,5,6
 337 246 337 246 402.5 176 c 128,-1,7
 468 106 468 106 595 106 c 0,8,9
 671 106 671 106 722.5 125 c 128,-1,10
 774 144 774 144 804.5 180 c 128,-1,11
 835 216 835 216 848 268.5 c 128,-1,12
 861 321 861 321 861 389 c 2,13,-1
 861 1027 l 1,14,-1
 719 1027 l 1,15,-1
 719 1153 l 1,16,-1
 1170 1153 l 1,17,-1
 1170 1029 l 1,18,-1
 1021 1026 l 1,19,20
 1021 854 1021 854 1022 715 c 0,21,22
 1022 656 1022 656 1022 598 c 128,-1,23
 1022 540 1022 540 1022.5 493.5 c 128,-1,24
 1023 447 1023 447 1023 416.5 c 128,-1,25
 1023 386 1023 386 1023 380 c 0,26,27
 1023 272 1023 272 989.5 196 c 128,-1,28
 956 120 956 120 899 72.5 c 128,-1,29
 842 25 842 25 766.5 3 c 128,-1,30
 691 -19 691 -19 607 -19 c 0,31,32
 518 -19 518 -19 451.5 -3.5 c 128,-1,33
 385 12 385 12 337 39.5 c 128,-1,34
 289 67 289 67 257.5 104.5 c 128,-1,35
 226 142 226 142 208 186.5 c 128,-1,36
 190 231 190 231 182.5 281 c 128,-1,37
 175 331 175 331 175 382 c 0,38,39
 175 388 175 388 175 418.5 c 128,-1,40
 175 449 175 449 175 495.5 c 128,-1,41
 175 542 175 542 175.5 599.5 c 128,-1,42
 176 657 176 657 176 716 c 128,-1,43
 176 775 176 775 176.5 831 c 128,-1,44
 177 887 177 887 177 931 c 128,-1,45
 177 975 177 975 177 1001.5 c 128,-1,46
 177 1028 177 1028 177 1029 c 1,47,-1
 27 1029 l 1,0,-1
EndSplineSet
EndChar

StartChar: V
Encoding: 86 86 20
Width: 1237
Flags: W
HStem: -10 21G<537.243 706.683> 1026 127<-4 142 310 451 798 939 1097 1243>
LayerCount: 2
Fore
SplineSet
142 1029 m 1,0,-1
 -4 1029 l 1,1,-1
 -4 1153 l 1,2,-1
 451 1153 l 1,3,-1
 451 1026 l 1,4,-1
 310 1026 l 1,5,-1
 465 617 l 1,6,-1
 627 204 l 1,7,-1
 786 617 l 1,8,-1
 939 1027 l 1,9,-1
 798 1027 l 1,10,-1
 798 1153 l 1,11,-1
 1243 1153 l 1,12,-1
 1243 1026 l 1,13,-1
 1097 1026 l 1,14,-1
 699 -10 l 1,15,-1
 545 -10 l 1,16,-1
 142 1029 l 1,0,-1
EndSplineSet
EndChar

StartChar: W
Encoding: 87 87 21
Width: 1790
Flags: W
HStem: -10 21G<453.917 619.013 1174.9 1344.98> 1026 127<-1 144 298 442 643 783 1023 1162 1364 1508 1649 1791>
LayerCount: 2
Fore
SplineSet
144 1029 m 1,0,-1
 -1 1029 l 1,1,-1
 -1 1153 l 1,2,-1
 442 1153 l 1,3,-1
 442 1026 l 1,4,-1
 298 1026 l 1,5,-1
 419 623 l 1,6,-1
 543 220 l 1,7,-1
 666 623 l 1,8,-1
 783 1029 l 1,9,-1
 643 1029 l 1,10,-1
 643 1153 l 1,11,-1
 1162 1153 l 1,12,-1
 1162 1026 l 1,13,-1
 1023 1026 l 1,14,-1
 1142 623 l 1,15,-1
 1264 220 l 1,16,-1
 1389 623 l 1,17,-1
 1508 1027 l 1,18,-1
 1364 1027 l 1,19,-1
 1364 1153 l 1,20,-1
 1791 1153 l 1,21,-1
 1791 1026 l 1,22,-1
 1649 1026 l 1,23,-1
 1339 -10 l 1,24,-1
 1181 -10 l 1,25,-1
 895 928 l 1,26,-1
 613 -10 l 1,27,-1
 460 -10 l 1,28,-1
 144 1029 l 1,0,-1
EndSplineSet
EndChar

StartChar: X
Encoding: 88 88 22
Width: 1151
Flags: W
HStem: 0 127<15 176 332 476 665 804 982 1137> 1026 127<26 180 353 488 661 801 956 1107>
LayerCount: 2
Fore
SplineSet
15 127 m 1,0,-1
 176 127 l 1,1,-1
 489 582 l 1,2,-1
 180 1029 l 1,3,-1
 26 1029 l 1,4,-1
 26 1153 l 1,5,-1
 488 1153 l 1,6,-1
 488 1026 l 1,7,-1
 353 1026 l 1,8,-1
 575 705 l 1,9,-1
 801 1027 l 1,10,-1
 661 1027 l 1,11,-1
 661 1153 l 1,12,-1
 1107 1153 l 1,13,-1
 1107 1026 l 1,14,-1
 956 1026 l 1,15,-1
 654 595 l 1,16,-1
 982 125 l 1,17,-1
 1137 125 l 1,18,-1
 1137 0 l 1,19,-1
 665 0 l 1,20,-1
 665 127 l 1,21,-1
 804 127 l 1,22,-1
 568 470 l 1,23,-1
 332 126 l 1,24,-1
 476 126 l 1,25,-1
 476 0 l 1,26,-1
 15 0 l 1,27,-1
 15 127 l 1,0,-1
EndSplineSet
EndChar

StartChar: Y
Encoding: 89 89 23
Width: 1131
Flags: W
HStem: 0 126<329 488 648 812> 1026 127<-16 130 306 456 687 837 991 1147>
VStem: 488 160<127 530>
LayerCount: 2
Fore
SplineSet
329 127 m 1,0,-1
 488 127 l 1,1,-1
 488 530 l 1,2,-1
 130 1029 l 1,3,-1
 -16 1029 l 1,4,-1
 -16 1153 l 1,5,-1
 456 1153 l 1,6,-1
 456 1026 l 1,7,-1
 306 1026 l 1,8,-1
 580 648 l 1,9,-1
 837 1027 l 1,10,-1
 687 1027 l 1,11,-1
 687 1153 l 1,12,-1
 1147 1153 l 1,13,-1
 1147 1026 l 1,14,-1
 991 1026 l 1,15,-1
 648 530 l 1,16,-1
 648 126 l 1,17,-1
 812 126 l 1,18,-1
 812 0 l 1,19,-1
 329 0 l 1,20,-1
 329 127 l 1,0,-1
EndSplineSet
EndChar

StartChar: Z
Encoding: 90 90 24
Width: 982
Flags: W
HStem: 0 127<241 789> 1026 127<205 703>
VStem: 76 129<833 1026> 789 129<127 335>
LayerCount: 2
Fore
SplineSet
46 128 m 1,0,-1
 703 1026 l 1,1,-1
 205 1026 l 1,2,-1
 205 833 l 1,3,-1
 76 833 l 1,4,-1
 76 1153 l 1,5,-1
 489 1153 l 1,6,-1
 908 1153 l 1,7,-1
 908 1041 l 1,8,-1
 241 127 l 1,9,-1
 789 127 l 1,10,-1
 789 335 l 1,11,-1
 918 335 l 1,12,-1
 918 0 l 1,13,-1
 482 0 l 1,14,-1
 46 0 l 1,15,-1
 46 128 l 1,0,-1
EndSplineSet
EndChar

StartChar: a
Encoding: 97 97 25
Width: 928
Flags: W
HStem: -22 111<249.95 535.125> 0 121<371.031 573.812 766 910> 360.5 89.5<435.686 617> 368 102<261.221 613.877> 701 118<273.989 571.454>
VStem: 77 141<121.762 324.531> 617 149<144.695 352 450 655.626>
LayerCount: 2
Fore
SplineSet
349 -22 m 0,0,1
 286 -22 286 -22 235.5 -2 c 128,-1,2
 185 18 185 18 149.5 51 c 128,-1,3
 114 84 114 84 95.5 127 c 128,-1,4
 77 170 77 170 77 216 c 0,5,6
 77 291 77 291 104.5 340 c 128,-1,7
 132 389 132 389 179 418 c 128,-1,8
 226 447 226 447 289.5 458.5 c 128,-1,9
 353 470 353 470 424 470 c 0,10,11
 517 470 517 470 617 450 c 1,12,-1
 617 547 l 2,13,14
 617 589 617 589 601.5 618.5 c 128,-1,15
 586 648 586 648 559 666 c 128,-1,16
 532 684 532 684 496.5 692.5 c 128,-1,17
 461 701 461 701 421 701 c 0,18,19
 359 701 359 701 312 680 c 128,-1,20
 265 659 265 659 236 617 c 1,21,-1
 96 656 l 1,22,23
 142 735 142 735 229 777 c 128,-1,24
 316 819 316 819 441 819 c 0,25,26
 535 819 535 819 598 797 c 128,-1,27
 661 775 661 775 698 738 c 128,-1,28
 735 701 735 701 750.5 653 c 128,-1,29
 766 605 766 605 766 554 c 2,30,-1
 766 121 l 1,31,-1
 910 121 l 1,32,-1
 910 0 l 1,33,-1
 633 0 l 1,34,35
 632 23 632 23 632 41 c 0,36,37
 632 49 632 49 631.5 56.5 c 128,-1,38
 631 64 631 64 631 70 c 2,39,-1
 631 83 l 1,40,41
 591 54 591 54 556 34 c 128,-1,42
 521 14 521 14 487.5 1.5 c 128,-1,43
 454 -11 454 -11 420 -16.5 c 128,-1,44
 386 -22 386 -22 349 -22 c 0,0,1
617 352 m 1,45,46
 585 353 585 353 536.5 360.5 c 128,-1,47
 488 368 488 368 434 368 c 0,48,49
 395 368 395 368 356 362.5 c 128,-1,50
 317 357 317 357 286.5 341 c 128,-1,51
 256 325 256 325 237 295 c 128,-1,52
 218 265 218 265 218 216 c 0,53,54
 218 190 218 190 228 166.5 c 128,-1,55
 238 143 238 143 257.5 126 c 128,-1,56
 277 109 277 109 305 99 c 128,-1,57
 333 89 333 89 370 89 c 0,58,59
 403 89 403 89 437 95 c 128,-1,60
 471 101 471 101 503.5 112.5 c 128,-1,61
 536 124 536 124 565 140.5 c 128,-1,62
 594 157 594 157 617 178 c 1,63,-1
 617 352 l 1,45,46
EndSplineSet
EndChar

StartChar: b
Encoding: 98 98 26
Width: 1111
Flags: W
HStem: -19 125<446.46 756.683> 0 122<45 194 425.773 603.19> 698 121<452.927 760.314> 1032 121<47 194>
VStem: 192.5 152.5<204.511 590.763 707 1029> 875 160<231.387 581.603>
LayerCount: 2
Fore
SplineSet
45 121 m 1,0,1
 83 121 83 121 115 122 c 0,2,3
 142 122 142 122 165.5 122.5 c 128,-1,4
 189 123 189 123 194 123 c 1,5,6
 194 127 194 127 193.5 160 c 128,-1,7
 193 193 193 193 193 241 c 128,-1,8
 193 289 193 289 192.5 345 c 128,-1,9
 192 401 192 401 192 450.5 c 128,-1,10
 192 500 192 500 192 536 c 128,-1,11
 192 572 192 572 192 580 c 0,12,13
 192 586 192 586 192 608.5 c 128,-1,14
 192 631 192 631 192 664 c 128,-1,15
 192 697 192 697 192.5 736.5 c 128,-1,16
 193 776 193 776 193 817 c 0,17,18
 193 912 193 912 194 1029 c 1,19,-1
 47 1032 l 1,20,-1
 47 1153 l 1,21,-1
 342 1153 l 1,22,23
 341 1036 341 1036 341 942 c 2,24,-1
 341 707 l 1,25,26
 404 765 404 765 475 792 c 128,-1,27
 546 819 546 819 637 819 c 0,28,29
 729 819 729 819 803 787 c 128,-1,30
 877 755 877 755 928.5 699.5 c 128,-1,31
 980 644 980 644 1007.5 569.5 c 128,-1,32
 1035 495 1035 495 1035 410 c 0,33,34
 1035 321 1035 321 1007 243 c 128,-1,35
 979 165 979 165 927.5 106.5 c 128,-1,36
 876 48 876 48 802 14.5 c 128,-1,37
 728 -19 728 -19 636 -19 c 0,38,39
 592 -19 592 -19 550 -11 c 128,-1,40
 508 -3 508 -3 470.5 12.5 c 128,-1,41
 433 28 433 28 401 50.5 c 128,-1,42
 369 73 369 73 347 101 c 1,43,44
 347 101 347 101 346 85 c 128,-1,45
 345 69 345 69 344 50 c 128,-1,46
 343 31 343 31 342 15 c 128,-1,47
 341 -1 341 -1 341 -1 c 1,48,49
 338 -1 338 -1 316 -1 c 128,-1,50
 294 -1 294 -1 262 -1 c 128,-1,51
 230 -1 230 -1 193 -0.5 c 128,-1,52
 156 0 156 0 124 0 c 128,-1,53
 92 0 92 0 69.5 0 c 128,-1,54
 47 0 47 0 45 0 c 1,55,-1
 45 121 l 1,0,1
605 106 m 0,56,57
 668 106 668 106 718.5 129 c 128,-1,58
 769 152 769 152 803.5 193 c 128,-1,59
 838 234 838 234 856.5 290.5 c 128,-1,60
 875 347 875 347 875 413 c 0,61,62
 875 486 875 486 852 540 c 128,-1,63
 829 594 829 594 791.5 629 c 128,-1,64
 754 664 754 664 706.5 681 c 128,-1,65
 659 698 659 698 609 698 c 0,66,67
 554 698 554 698 507.5 681 c 128,-1,68
 461 664 461 664 426.5 633 c 128,-1,69
 392 602 392 602 370.5 559 c 128,-1,70
 349 516 349 516 345 464 c 1,71,-1
 345 343 l 2,72,73
 345 292 345 292 364 248.5 c 128,-1,74
 383 205 383 205 417.5 173.5 c 128,-1,75
 452 142 452 142 499.5 124 c 128,-1,76
 547 106 547 106 605 106 c 0,56,57
EndSplineSet
EndChar

StartChar: c
Encoding: 99 99 27
Width: 898
Flags: W
HStem: -19 129<335.148 646.447> 517 288<696 829> 690 129<329.431 633.337>
VStem: 66 159<227.962 582.484> 700 129<517 624.427 733 805>
LayerCount: 2
Fore
SplineSet
480 -19 m 0,0,1
 370 -19 370 -19 291.5 20 c 128,-1,2
 213 59 213 59 163 121 c 128,-1,3
 113 183 113 183 89.5 258.5 c 128,-1,4
 66 334 66 334 66 408 c 0,5,6
 66 489 66 489 95 563.5 c 128,-1,7
 124 638 124 638 176.5 694.5 c 128,-1,8
 229 751 229 751 303.5 785 c 128,-1,9
 378 819 378 819 469 819 c 0,10,11
 502 819 502 819 534.5 815 c 128,-1,12
 567 811 567 811 597 801 c 128,-1,13
 627 791 627 791 652.5 774.5 c 128,-1,14
 678 758 678 758 695 733 c 1,15,-1
 696 805 l 1,16,-1
 829 805 l 1,17,-1
 829 517 l 1,18,-1
 700 517 l 1,19,20
 684 604 684 604 633 647 c 128,-1,21
 582 690 582 690 480 690 c 0,22,23
 418 690 418 690 370.5 669 c 128,-1,24
 323 648 323 648 290.5 610.5 c 128,-1,25
 258 573 258 573 241.5 522 c 128,-1,26
 225 471 225 471 225 410 c 0,27,28
 225 344 225 344 242.5 289 c 128,-1,29
 260 234 260 234 293 194 c 128,-1,30
 326 154 326 154 374 132 c 128,-1,31
 422 110 422 110 484 110 c 0,32,33
 565 110 565 110 628 143.5 c 128,-1,34
 691 177 691 177 729 243 c 1,35,-1
 850 188 l 1,36,37
 804 87 804 87 709 34 c 128,-1,38
 614 -19 614 -19 480 -19 c 0,0,1
EndSplineSet
EndChar

StartChar: d
Encoding: 100 100 28
Width: 1080
Flags: W
HStem: -19 125<351.353 664.023> 0 121<331.756 476.564 481.621 503.004 506.81 683.047 918 1070> 698 121<355.4 663.998> 1032 121<608 768>
VStem: 78 159<225.933 575.125> 769 149<208.37 596.258 713 1029>
LayerCount: 2
Fore
SplineSet
918 1153 m 1,0,-1
 918 121 l 1,1,-1
 1070 121 l 1,2,-1
 1070 0 l 1,3,-1
 766 0 l 1,4,-1
 765 99 l 1,5,6
 701 37 701 37 632 9 c 128,-1,7
 563 -19 563 -19 479 -19 c 0,8,9
 401 -19 401 -19 329 8 c 128,-1,10
 257 35 257 35 201 88 c 128,-1,11
 145 141 145 141 111.5 219 c 128,-1,12
 78 297 78 297 78 400 c 0,13,14
 78 485 78 485 106.5 561 c 128,-1,15
 135 637 135 637 187.5 694.5 c 128,-1,16
 240 752 240 752 315 785.5 c 128,-1,17
 390 819 390 819 482 819 c 0,18,19
 568 819 568 819 639 792 c 128,-1,20
 710 765 710 765 770 713 c 1,21,22
 770 717 770 717 770 733 c 128,-1,23
 770 749 770 749 769.5 772.5 c 128,-1,24
 769 796 769 796 769 823.5 c 128,-1,25
 769 851 769 851 769 880 c 0,26,27
 768 947 768 947 768 1029 c 1,28,-1
 608 1032 l 1,29,-1
 608 1153 l 1,30,-1
 918 1153 l 1,0,-1
505 106 m 0,31,32
 563 106 563 106 612 124.5 c 128,-1,33
 661 143 661 143 696 176 c 128,-1,34
 731 209 731 209 750.5 254 c 128,-1,35
 770 299 770 299 770 353 c 0,36,37
 770 355 770 355 770 374 c 128,-1,38
 770 393 770 393 769.5 415.5 c 128,-1,39
 769 438 769 438 769 457 c 128,-1,40
 769 476 769 476 769 478 c 0,41,42
 764 527 764 527 742.5 567.5 c 128,-1,43
 721 608 721 608 686.5 637 c 128,-1,44
 652 666 652 666 605 682 c 128,-1,45
 558 698 558 698 503 698 c 0,46,47
 442 698 442 698 392.5 675 c 128,-1,48
 343 652 343 652 308.5 612.5 c 128,-1,49
 274 573 274 573 255.5 519 c 128,-1,50
 237 465 237 465 237 403 c 0,51,52
 237 338 237 338 255 283.5 c 128,-1,53
 273 229 273 229 307.5 189.5 c 128,-1,54
 342 150 342 150 391.5 128 c 128,-1,55
 441 106 441 106 505 106 c 0,31,32
EndSplineSet
EndChar

StartChar: e
Encoding: 101 101 29
Width: 986
Flags: W
HStem: -19 125<353.767 701.962> 365 102<236 767> 704 115<352.2 656.415>
LayerCount: 2
Fore
SplineSet
574 363 m 1,0,-1
 232 365 l 1,1,2
 240 307 240 307 261.5 259 c 128,-1,3
 283 211 283 211 319 177 c 128,-1,4
 355 143 355 143 404.5 124.5 c 128,-1,5
 454 106 454 106 519 106 c 0,6,7
 597 106 597 106 667 134 c 128,-1,8
 737 162 737 162 783 217 c 1,9,-1
 911 161 l 1,10,11
 853 75 853 75 751 28 c 128,-1,12
 649 -19 649 -19 515 -19 c 0,13,14
 411 -19 411 -19 328 14 c 128,-1,15
 245 47 245 47 187.5 104 c 128,-1,16
 130 161 130 161 99 238 c 128,-1,17
 68 315 68 315 68 402 c 0,18,19
 68 493 68 493 102 570 c 128,-1,20
 136 647 136 647 195 702 c 128,-1,21
 254 757 254 757 335 788 c 128,-1,22
 416 819 416 819 511 819 c 0,23,24
 610 819 610 819 685 783.5 c 128,-1,25
 760 748 760 748 810.5 688 c 128,-1,26
 861 628 861 628 886 548.5 c 128,-1,27
 911 469 911 469 911 382 c 2,28,-1
 911 365 l 1,29,-1
 574 363 l 1,0,-1
505 467 m 1,30,-1
 767 467 l 1,31,32
 759 515 759 515 739 558 c 128,-1,33
 719 601 719 601 687 633.5 c 128,-1,34
 655 666 655 666 611.5 685 c 128,-1,35
 568 704 568 704 513 704 c 0,36,37
 453 704 453 704 405 686 c 128,-1,38
 357 668 357 668 322.5 636.5 c 128,-1,39
 288 605 288 605 266.5 561.5 c 128,-1,40
 245 518 245 518 236 467 c 1,41,-1
 505 467 l 1,30,-1
EndSplineSet
EndChar

StartChar: f
Encoding: 102 102 30
Width: 516
Flags: W
HStem: 0 122<64 184 335 497> 683 122<55 184 335 488> 1071 115<359.085 476.858>
VStem: 64 433<0 122 683 805> 184 151<123 683 805 1054.5> 481 128<1026.2 1068.5>
LayerCount: 2
Fore
SplineSet
64 123 m 1,0,-1
 184 123 l 1,1,-1
 184 430 l 1,2,-1
 184 683 l 1,3,-1
 55 683 l 1,4,-1
 55 805 l 1,5,-1
 184 805 l 1,6,-1
 185 938 l 2,7,8
 185 1000 185 1000 202 1046.5 c 128,-1,9
 219 1093 219 1093 249.5 1124 c 128,-1,10
 280 1155 280 1155 322.5 1170.5 c 128,-1,11
 365 1186 365 1186 417 1186 c 0,12,13
 493 1186 493 1186 545 1145 c 128,-1,14
 597 1104 597 1104 609 1029 c 1,15,-1
 481 1004 l 1,16,17
 474 1071 474 1071 424 1071 c 0,18,19
 388 1071 388 1071 369 1055 c 128,-1,20
 350 1039 350 1039 342 1006 c 128,-1,21
 334 973 334 973 333.5 923 c 128,-1,22
 333 873 333 873 335 805 c 1,23,-1
 488 805 l 1,24,-1
 488 683 l 1,25,-1
 335 683 l 1,26,-1
 335 122 l 1,27,-1
 497 122 l 1,28,-1
 497 0 l 1,29,-1
 64 0 l 1,30,-1
 64 123 l 1,0,-1
EndSplineSet
EndChar

StartChar: g
Encoding: 103 103 31
Width: 1079
Flags: W
HStem: -360 124<301.768 654.287> 0 125<335.186 654.637> 687 132<344.941 654.36 906 1057>
VStem: 66 159<237.198 564.039> 760 146<-134.414 93 221.709 587.047>
LayerCount: 2
Fore
SplineSet
473 -360 m 0,0,1
 380 -360 380 -360 306 -338.5 c 128,-1,2
 232 -317 232 -317 162 -267 c 1,3,-1
 256 -163 l 1,4,5
 307 -200 307 -200 366 -218 c 128,-1,6
 425 -236 425 -236 486 -236 c 0,7,8
 531 -236 531 -236 578.5 -224 c 128,-1,9
 626 -212 626 -212 666 -184 c 128,-1,10
 706 -156 706 -156 732 -110 c 128,-1,11
 758 -64 758 -64 759 3 c 0,12,13
 759 4 759 4 758.5 18 c 128,-1,14
 758 32 758 32 757.5 48 c 128,-1,15
 757 64 757 64 756.5 77.5 c 128,-1,16
 756 91 756 91 756 93 c 1,17,18
 735 73 735 73 702.5 56.5 c 128,-1,19
 670 40 670 40 631 27 c 128,-1,20
 592 14 592 14 549.5 7 c 128,-1,21
 507 0 507 0 466 0 c 0,22,23
 373 0 373 0 299 31 c 128,-1,24
 225 62 225 62 173 115.5 c 128,-1,25
 121 169 121 169 93.5 240.5 c 128,-1,26
 66 312 66 312 66 392 c 0,27,28
 66 479 66 479 94.5 556.5 c 128,-1,29
 123 634 123 634 176 692.5 c 128,-1,30
 229 751 229 751 304 785 c 128,-1,31
 379 819 379 819 472 819 c 0,32,33
 632 819 632 819 755 709 c 1,34,-1
 757 757 l 2,35,36
 758 778 758 778 758 805 c 1,37,-1
 1057 805 l 1,38,-1
 1057 685 l 1,39,-1
 906 682 l 1,40,-1
 906 381 l 2,41,42
 906 324 906 324 906 268 c 128,-1,43
 906 212 906 212 906.5 167 c 128,-1,44
 907 122 907 122 907 92.5 c 128,-1,45
 907 63 907 63 907 57 c 0,46,47
 907 -62 907 -62 869 -142 c 128,-1,48
 831 -222 831 -222 769.5 -270.5 c 128,-1,49
 708 -319 708 -319 630 -339.5 c 128,-1,50
 552 -360 552 -360 473 -360 c 0,0,1
493 125 m 0,51,52
 547 125 547 125 595 141.5 c 128,-1,53
 643 158 643 158 680 187 c 128,-1,54
 717 216 717 216 738.5 255 c 128,-1,55
 760 294 760 294 760 339 c 2,56,-1
 760 464 l 1,57,58
 758 512 758 512 737 552.5 c 128,-1,59
 716 593 716 593 681 623 c 128,-1,60
 646 653 646 653 598.5 670 c 128,-1,61
 551 687 551 687 496 687 c 0,62,63
 433 687 433 687 383 664 c 128,-1,64
 333 641 333 641 297.5 601.5 c 128,-1,65
 262 562 262 562 243.5 509 c 128,-1,66
 225 456 225 456 225 396 c 0,67,68
 225 340 225 340 243 290.5 c 128,-1,69
 261 241 261 241 295 204 c 128,-1,70
 329 167 329 167 379 146 c 128,-1,71
 429 125 429 125 493 125 c 0,51,52
EndSplineSet
EndChar

StartChar: h
Encoding: 104 104 32
Width: 1014
Flags: W
HStem: 0 123<37 189 338 483 607 709 857 1001> 702 117<420.411 676.27> 1032 121<39 189>
VStem: 189 149<123 639.977 726 1032> 709 148<123 670.125>
LayerCount: 2
Fore
SplineSet
37 123 m 1,0,-1
 189 123 l 1,1,-1
 189 577 l 1,2,-1
 189 1032 l 1,3,-1
 39 1032 l 1,4,-1
 39 1153 l 1,5,-1
 339 1153 l 1,6,7
 338 1042 338 1042 338 951 c 2,8,-1
 338 726 l 1,9,10
 468 819 468 819 612 819 c 0,11,12
 732 819 732 819 795 752.5 c 128,-1,13
 858 686 858 686 858 556 c 0,14,15
 858 553 858 553 858 533.5 c 128,-1,16
 858 514 858 514 857.5 483 c 128,-1,17
 857 452 857 452 857 413.5 c 128,-1,18
 857 375 857 375 857 335 c 2,19,-1
 857 123 l 1,20,-1
 1001 121 l 1,21,-1
 1001 0 l 1,22,-1
 607 0 l 1,23,-1
 607 121 l 1,24,-1
 709 121 l 1,25,-1
 709 528 l 2,26,27
 709 562 709 562 703.5 593.5 c 128,-1,28
 698 625 698 625 683 649 c 128,-1,29
 668 673 668 673 643 687.5 c 128,-1,30
 618 702 618 702 579 702 c 0,31,32
 525 702 525 702 461.5 678.5 c 128,-1,33
 398 655 398 655 338 611 c 1,34,-1
 338 122 l 1,35,-1
 483 122 l 1,36,-1
 483 0 l 1,37,-1
 37 0 l 1,38,-1
 37 123 l 1,0,-1
EndSplineSet
EndChar

StartChar: i
Encoding: 105 105 33
Width: 507
Flags: W
HStem: 0 122<45 180 329 465> 685 120<45 180> 979 174<173.107 333.893>
VStem: 162 183<990.619 1141.38> 180 149<124 685>
LayerCount: 2
Fore
SplineSet
45 124 m 1,0,-1
 180 124 l 1,1,-1
 180 685 l 1,2,-1
 45 685 l 1,3,-1
 45 805 l 1,4,-1
 329 805 l 1,5,-1
 329 122 l 1,6,-1
 465 122 l 1,7,-1
 465 0 l 1,8,-1
 45 0 l 1,9,-1
 45 124 l 1,0,-1
162 1066 m 256,10,11
 162 1084 162 1084 169 1100 c 128,-1,12
 176 1116 176 1116 188.5 1128 c 128,-1,13
 201 1140 201 1140 217.5 1146.5 c 128,-1,14
 234 1153 234 1153 253 1153 c 256,15,16
 272 1153 272 1153 289 1146.5 c 128,-1,17
 306 1140 306 1140 318.5 1128 c 128,-1,18
 331 1116 331 1116 338 1100 c 128,-1,19
 345 1084 345 1084 345 1066 c 256,20,21
 345 1048 345 1048 338 1032 c 128,-1,22
 331 1016 331 1016 318.5 1004 c 128,-1,23
 306 992 306 992 289 985.5 c 128,-1,24
 272 979 272 979 253 979 c 256,25,26
 234 979 234 979 217.5 985.5 c 128,-1,27
 201 992 201 992 188.5 1004 c 128,-1,28
 176 1016 176 1016 169 1032 c 128,-1,29
 162 1048 162 1048 162 1066 c 256,10,11
EndSplineSet
EndChar

StartChar: j
Encoding: 106 106 34
Width: 501
Flags: W
HStem: -367 128<-28 163.431> 685 120<63 195> 979 174<186.107 331.154>
VStem: 175 184<1032.97 1099.03> 195 151<-208.996 685>
LayerCount: 2
Fore
SplineSet
-28 -235 m 1,0,1
 -5 -237 -5 -237 12 -238 c 128,-1,2
 29 -239 29 -239 49 -239 c 0,3,4
 91 -239 91 -239 119.5 -228 c 128,-1,5
 148 -217 148 -217 165.5 -193.5 c 128,-1,6
 183 -170 183 -170 190.5 -133 c 128,-1,7
 198 -96 198 -96 198 -43 c 0,8,9
 198 -41 198 -41 198 -23 c 128,-1,10
 198 -5 198 -5 197.5 23 c 128,-1,11
 197 51 197 51 196.5 86.5 c 128,-1,12
 196 122 196 122 196 158 c 0,13,14
 195 243 195 243 195 351 c 2,15,-1
 195 685 l 1,16,-1
 63 685 l 1,17,-1
 63 805 l 1,18,-1
 346 805 l 1,19,-1
 346 430 l 1,20,-1
 346 220 l 2,21,22
 346 181 346 181 346 142.5 c 128,-1,23
 346 104 346 104 346.5 74 c 128,-1,24
 347 44 347 44 347 24.5 c 128,-1,25
 347 5 347 5 347 4 c 0,26,27
 347 -72 347 -72 340 -139 c 128,-1,28
 333 -206 333 -206 304.5 -256 c 128,-1,29
 276 -306 276 -306 219 -336 c 128,-1,30
 162 -366 162 -366 63 -367 c 0,31,32
 38 -367 38 -367 17 -366 c 128,-1,33
 -4 -365 -4 -365 -28 -361 c 1,34,-1
 -28 -235 l 1,0,1
175 1066 m 256,35,36
 175 1084 175 1084 182 1100 c 128,-1,37
 189 1116 189 1116 201.5 1128 c 128,-1,38
 214 1140 214 1140 231 1146.5 c 128,-1,39
 248 1153 248 1153 267 1153 c 0,40,41
 305 1153 305 1153 332 1128 c 128,-1,42
 359 1103 359 1103 359 1066 c 256,43,44
 359 1029 359 1029 332 1004 c 128,-1,45
 305 979 305 979 267 979 c 0,46,47
 248 979 248 979 231 985.5 c 128,-1,48
 214 992 214 992 201.5 1004 c 128,-1,49
 189 1016 189 1016 182 1032 c 128,-1,50
 175 1048 175 1048 175 1066 c 256,35,36
EndSplineSet
EndChar

StartChar: k
Encoding: 107 107 35
Width: 1002
Flags: W
HStem: 0 122<41 194 342 446 558 664 849 979> 691 114<531 671 847 979> 1032 121<41 194>
VStem: 194 148<122 405 430 1032>
LayerCount: 2
Fore
SplineSet
41 122 m 1,0,-1
 194 122 l 1,1,-1
 194 577 l 1,2,-1
 194 1032 l 1,3,-1
 41 1032 l 1,4,-1
 41 1153 l 1,5,-1
 342 1153 l 1,6,-1
 342 430 l 1,7,-1
 671 691 l 1,8,-1
 531 691 l 1,9,-1
 531 805 l 1,10,-1
 979 805 l 1,11,-1
 979 691 l 1,12,-1
 847 691 l 1,13,-1
 515 415 l 1,14,-1
 849 122 l 1,15,-1
 979 122 l 1,16,-1
 979 0 l 1,17,-1
 558 0 l 1,18,-1
 558 122 l 1,19,-1
 664 122 l 1,20,-1
 342 405 l 1,21,-1
 342 122 l 1,22,-1
 446 122 l 1,23,-1
 446 0 l 1,24,-1
 41 0 l 1,25,-1
 41 122 l 1,0,-1
EndSplineSet
EndChar

StartChar: l
Encoding: 108 108 36
Width: 505
Flags: W
HStem: 0 123<43 195 344 477> 1032 121<46 195>
VStem: 195 149<123 1032>
LayerCount: 2
Fore
SplineSet
43 123 m 1,0,-1
 195 123 l 1,1,-1
 195 580 l 1,2,-1
 195 1032 l 1,3,-1
 46 1032 l 1,4,-1
 46 1153 l 1,5,-1
 344 1153 l 1,6,-1
 344 122 l 1,7,-1
 477 122 l 1,8,-1
 477 0 l 1,9,-1
 43 0 l 1,10,-1
 43 123 l 1,0,-1
EndSplineSet
EndChar

StartChar: m
Encoding: 109 109 37
Width: 1550
Flags: W
HStem: 0 123<52 202 353 498 630 722 874 1019 1151 1244 1391 1536> 689 130<59 202 463.488 689.758 985.032 1216.37>
VStem: 202 151<123 593.513> 722 152<121 597.838> 1244 148<124 650.165>
LayerCount: 2
Fore
SplineSet
202 432 m 1,0,-1
 202 685 l 1,1,-1
 59 685 l 1,2,-1
 59 805 l 1,3,-1
 348 805 l 1,4,5
 349 779 349 779 350 758 c 0,6,7
 351 739 351 739 351.5 722 c 128,-1,8
 352 705 352 705 353 698 c 1,9,10
 422 756 422 756 489.5 787.5 c 128,-1,11
 557 819 557 819 635 819 c 0,12,13
 715 819 715 819 770.5 782.5 c 128,-1,14
 826 746 826 746 853 680 c 1,15,16
 893 714 893 714 930 740 c 128,-1,17
 967 766 967 766 1003 783.5 c 128,-1,18
 1039 801 1039 801 1076 810 c 128,-1,19
 1113 819 1113 819 1153 819 c 0,20,21
 1215 819 1215 819 1260.5 799.5 c 128,-1,22
 1306 780 1306 780 1335.5 746.5 c 128,-1,23
 1365 713 1365 713 1379.5 667 c 128,-1,24
 1394 621 1394 621 1394 568 c 0,25,26
 1394 565 1394 565 1394 544 c 128,-1,27
 1394 523 1394 523 1393.5 491 c 128,-1,28
 1393 459 1393 459 1392.5 419.5 c 128,-1,29
 1392 380 1392 380 1392 339 c 0,30,31
 1391 243 1391 243 1391 123 c 1,32,-1
 1536 121 l 1,33,-1
 1536 0 l 1,34,-1
 1151 0 l 1,35,-1
 1151 124 l 1,36,-1
 1244 124 l 1,37,-1
 1244 537 l 2,38,39
 1244 609 1244 609 1214.5 651.5 c 128,-1,40
 1185 694 1185 694 1116 694 c 256,41,42
 1047 694 1047 694 987 654 c 128,-1,43
 927 614 927 614 874 551 c 1,44,-1
 874 121 l 1,45,-1
 1019 121 l 1,46,-1
 1019 0 l 1,47,-1
 630 0 l 1,48,-1
 630 121 l 1,49,-1
 722 121 l 1,50,-1
 722 534 l 2,51,52
 722 611 722 611 689 650 c 128,-1,53
 656 689 656 689 593 689 c 256,54,55
 530 689 530 689 473.5 652 c 128,-1,56
 417 615 417 615 353 551 c 1,57,-1
 353 122 l 1,58,-1
 498 122 l 1,59,-1
 498 0 l 1,60,-1
 52 0 l 1,61,-1
 52 123 l 1,62,-1
 202 123 l 1,63,-1
 202 432 l 1,0,-1
EndSplineSet
EndChar

StartChar: n
Encoding: 110 110 38
Width: 1019
Flags: W
HStem: 0 123<53 196 347 492 607 717 864 1009> 685 120<47 196 447.268 690.29>
VStem: 196 151<123 596.097> 717 148<123 641.49>
LayerCount: 2
Fore
SplineSet
53 123 m 1,0,-1
 196 123 l 1,1,-1
 196 685 l 1,2,-1
 47 685 l 1,3,-1
 47 805 l 1,4,-1
 343 805 l 1,5,6
 343 780 343 780 344 759 c 0,7,8
 345 741 345 741 345.5 724 c 128,-1,9
 346 707 346 707 347 701 c 1,10,11
 424 761 424 761 490 790 c 128,-1,12
 556 819 556 819 630 819 c 0,13,14
 685 819 685 819 729 801 c 128,-1,15
 773 783 773 783 803.5 749.5 c 128,-1,16
 834 716 834 716 850.5 668.5 c 128,-1,17
 867 621 867 621 867 562 c 0,18,19
 867 559 867 559 867 538.5 c 128,-1,20
 867 518 867 518 866.5 487 c 128,-1,21
 866 456 866 456 865.5 416.5 c 128,-1,22
 865 377 865 377 865 337 c 0,23,24
 864 242 864 242 864 123 c 1,25,-1
 1009 121 l 1,26,-1
 1009 0 l 1,27,-1
 607 0 l 1,28,-1
 607 120 l 1,29,-1
 717 120 l 1,30,-1
 717 507 l 2,31,32
 717 595 717 595 690 643 c 128,-1,33
 663 691 663 691 592 691 c 0,34,35
 523 691 523 691 462 651 c 128,-1,36
 401 611 401 611 347 550 c 1,37,-1
 347 122 l 1,38,-1
 492 122 l 1,39,-1
 492 0 l 1,40,-1
 53 0 l 1,41,-1
 53 123 l 1,0,-1
EndSplineSet
EndChar

StartChar: o
Encoding: 111 111 39
Width: 994
Flags: W
HStem: -19 137<344.114 648.615> 691 128<345.605 647.175>
VStem: 71 159<235.522 571.639> 764 160<235.522 570.463>
LayerCount: 2
Fore
SplineSet
496 118 m 0,0,1
 558 118 558 118 607.5 139.5 c 128,-1,2
 657 161 657 161 692 199 c 128,-1,3
 727 237 727 237 745.5 289 c 128,-1,4
 764 341 764 341 764 402 c 256,5,6
 764 463 764 463 745.5 516 c 128,-1,7
 727 569 727 569 692 608 c 128,-1,8
 657 647 657 647 607.5 669 c 128,-1,9
 558 691 558 691 496 691 c 0,10,11
 435 691 435 691 385.5 669 c 128,-1,12
 336 647 336 647 301.5 608 c 128,-1,13
 267 569 267 569 248.5 516 c 128,-1,14
 230 463 230 463 230 402 c 256,15,16
 230 341 230 341 248.5 289 c 128,-1,17
 267 237 267 237 301.5 199 c 128,-1,18
 336 161 336 161 385.5 139.5 c 128,-1,19
 435 118 435 118 496 118 c 0,0,1
496 -19 m 256,20,21
 398 -19 398 -19 319.5 14.5 c 128,-1,22
 241 48 241 48 186 105 c 128,-1,23
 131 162 131 162 101 238.5 c 128,-1,24
 71 315 71 315 71 402 c 256,25,26
 71 489 71 489 101 565 c 128,-1,27
 131 641 131 641 186.5 697.5 c 128,-1,28
 242 754 242 754 321 786.5 c 128,-1,29
 400 819 400 819 498 819 c 0,30,31
 595 819 595 819 674 786.5 c 128,-1,32
 753 754 753 754 808.5 697.5 c 128,-1,33
 864 641 864 641 894 565 c 128,-1,34
 924 489 924 489 924 402 c 256,35,36
 924 315 924 315 894 238.5 c 128,-1,37
 864 162 864 162 808 105 c 128,-1,38
 752 48 752 48 673 14.5 c 128,-1,39
 594 -19 594 -19 496 -19 c 256,20,21
EndSplineSet
EndChar

StartChar: p
Encoding: 112 112 40
Width: 1079
Flags: W
HStem: -368 124<16 169 318 481> -19 129<418.743 734.873> 685 120<28 169 411.487 746.361>
VStem: 169 148<-244 87 207.875 592.125> 849 155<228.12 575.467>
LayerCount: 2
Fore
SplineSet
16 -244 m 1,0,-1
 169 -244 l 1,1,-1
 169 223 l 1,2,-1
 169 685 l 1,3,-1
 28 685 l 1,4,-1
 28 805 l 1,5,-1
 320 805 l 1,6,7
 321 775 321 775 322 752 c 0,8,9
 323 732 323 732 323.5 715.5 c 128,-1,10
 324 699 324 699 325 699 c 0,11,12
 381 759 381 759 452.5 789 c 128,-1,13
 524 819 524 819 605 819 c 0,14,15
 698 819 698 819 772 786 c 128,-1,16
 846 753 846 753 897.5 696.5 c 128,-1,17
 949 640 949 640 976.5 563.5 c 128,-1,18
 1004 487 1004 487 1004 400 c 0,19,20
 1004 314 1004 314 975.5 238 c 128,-1,21
 947 162 947 162 894.5 105 c 128,-1,22
 842 48 842 48 768 14.5 c 128,-1,23
 694 -19 694 -19 603 -19 c 0,24,25
 522 -19 522 -19 448 8 c 128,-1,26
 374 35 374 35 317 87 c 1,27,-1
 317 -87 l 2,28,29
 317 -157 317 -157 318 -244 c 1,30,-1
 481 -245 l 1,31,-1
 481 -368 l 1,32,-1
 16 -368 l 1,33,-1
 16 -244 l 1,0,-1
576 110 m 0,34,35
 641 110 641 110 692 131.5 c 128,-1,36
 743 153 743 153 778 192 c 128,-1,37
 813 231 813 231 831 285.5 c 128,-1,38
 849 340 849 340 849 405 c 0,39,40
 849 466 849 466 831 519 c 128,-1,41
 813 572 813 572 778.5 611 c 128,-1,42
 744 650 744 650 694.5 672 c 128,-1,43
 645 694 645 694 583 694 c 0,44,45
 527 694 527 694 478.5 676 c 128,-1,46
 430 658 430 658 394 626.5 c 128,-1,47
 358 595 358 595 337 552 c 128,-1,48
 316 509 316 509 315 459 c 0,49,50
 315 458 315 458 314.5 439.5 c 128,-1,51
 314 421 314 421 314 399 c 128,-1,52
 314 377 314 377 314 358.5 c 128,-1,53
 314 340 314 340 314 339 c 0,54,55
 317 289 317 289 337.5 247 c 128,-1,56
 358 205 358 205 392.5 174.5 c 128,-1,57
 427 144 427 144 473.5 127 c 128,-1,58
 520 110 520 110 576 110 c 0,34,35
EndSplineSet
EndChar

StartChar: q
Encoding: 113 113 41
Width: 1066
Flags: W
HStem: -368 123<593 757 905 1057> -19 129<335.104 652.225> 694 125<337.243 649.406 905 1047>
VStem: 68 154<227.076 575.179> 754 293<699 805> 754.5 150.5<-244 90 207.13 594.942>
LayerCount: 2
Fore
SplineSet
593 -247 m 1,0,-1
 757 -244 l 1,1,2
 757 -157 757 -157 756 -87 c 0,3,4
 756 -57 756 -57 755.5 -27.5 c 128,-1,5
 755 2 755 2 754.5 26.5 c 128,-1,6
 754 51 754 51 754 68 c 128,-1,7
 754 85 754 85 754 90 c 1,8,9
 698 36 698 36 624.5 8.5 c 128,-1,10
 551 -19 551 -19 467 -19 c 0,11,12
 376 -19 376 -19 302 14.5 c 128,-1,13
 228 48 228 48 176 105 c 128,-1,14
 124 162 124 162 96 238.5 c 128,-1,15
 68 315 68 315 68 402 c 0,16,17
 68 488 68 488 95 564 c 128,-1,18
 122 640 122 640 173.5 696.5 c 128,-1,19
 225 753 225 753 299 786 c 128,-1,20
 373 819 373 819 467 819 c 0,21,22
 549 819 549 819 621 789 c 128,-1,23
 693 759 693 759 749 699 c 1,24,25
 749 706 749 706 750 715 c 0,26,27
 751 723 751 723 751 732 c 128,-1,28
 751 741 751 741 752 752 c 0,29,30
 753 775 753 775 754 805 c 1,31,-1
 1047 805 l 1,32,-1
 1047 682 l 1,33,-1
 905 682 l 1,34,-1
 905 -245 l 1,35,-1
 1057 -245 l 1,36,-1
 1057 -368 l 1,37,-1
 593 -368 l 1,38,-1
 593 -247 l 1,0,-1
757 326 m 0,39,40
 757 327 757 327 757.5 346.5 c 128,-1,41
 758 366 758 366 758 388.5 c 128,-1,42
 758 411 758 411 758 430 c 128,-1,43
 758 449 758 449 758 451 c 0,44,45
 758 503 758 503 738 547.5 c 128,-1,46
 718 592 718 592 682 624.5 c 128,-1,47
 646 657 646 657 596.5 675.5 c 128,-1,48
 547 694 547 694 488 694 c 0,49,50
 425 694 425 694 376 671.5 c 128,-1,51
 327 649 327 649 292.5 610 c 128,-1,52
 258 571 258 571 240 518 c 128,-1,53
 222 465 222 465 222 403 c 0,54,55
 222 338 222 338 240 284.5 c 128,-1,56
 258 231 258 231 292.5 192 c 128,-1,57
 327 153 327 153 377.5 131.5 c 128,-1,58
 428 110 428 110 494 110 c 0,59,60
 548 110 548 110 594 126 c 128,-1,61
 640 142 640 142 674.5 170.5 c 128,-1,62
 709 199 709 199 730.5 238.5 c 128,-1,63
 752 278 752 278 757 326 c 0,39,40
EndSplineSet
EndChar

StartChar: r
Encoding: 114 114 42
Width: 745
Flags: W
HStem: 0 122<46 207 357 533> 685 120<40 207 459.352 710.966>
VStem: 207 150<123 583.121> 207 121<630.224 685>
LayerCount: 2
Fore
SplineSet
46 123 m 1,0,-1
 207 123 l 1,1,-1
 207 685 l 1,2,-1
 40 685 l 1,3,-1
 40 805 l 1,4,-1
 323 805 l 1,5,6
 324 760 324 760 326 724 c 0,7,8
 327 692 327 692 328 664.5 c 128,-1,9
 329 637 329 637 330 630 c 1,10,11
 371 727 371 727 441.5 773 c 128,-1,12
 512 819 512 819 597 819 c 0,13,14
 602 819 602 819 621.5 818.5 c 128,-1,15
 641 818 641 818 662 817 c 0,16,17
 687 816 687 816 716 815 c 1,18,-1
 711 675 l 1,19,20
 710 676 710 676 696 676.5 c 128,-1,21
 682 677 682 677 664.5 677.5 c 128,-1,22
 647 678 647 678 632 678 c 128,-1,23
 617 678 617 678 613 678 c 0,24,25
 539 678 539 678 490 657 c 128,-1,26
 441 636 441 636 411.5 597 c 128,-1,27
 382 558 382 558 369.5 503 c 128,-1,28
 357 448 357 448 357 380 c 2,29,-1
 357 122 l 1,30,-1
 533 122 l 1,31,-1
 533 0 l 1,32,-1
 46 0 l 1,33,-1
 46 123 l 1,0,-1
EndSplineSet
EndChar

StartChar: s
Encoding: 115 115 43
Width: 806
Flags: W
HStem: -19 119<258.932 549.49> 0 263<77 205> 549 256<580 706> 702 117<252.065 532.589>
VStem: 75 141<0 40 142.969 263 521.935 672.366> 577 129<549 657.572 791 805> 599 153<132.828 297.054>
LayerCount: 2
Fore
SplineSet
77 263 m 1,0,-1
 206 263 l 1,1,2
 205 259 205 259 205 250 c 0,3,4
 205 215 205 215 220.5 187.5 c 128,-1,5
 236 160 236 160 264 140.5 c 128,-1,6
 292 121 292 121 330.5 110.5 c 128,-1,7
 369 100 369 100 416 100 c 0,8,9
 503 100 503 100 551 130.5 c 128,-1,10
 599 161 599 161 599 217 c 0,11,12
 599 248 599 248 586 268 c 128,-1,13
 573 288 573 288 549.5 300 c 128,-1,14
 526 312 526 312 493.5 319 c 128,-1,15
 461 326 461 326 421 331 c 0,16,17
 385 336 385 336 345.5 343.5 c 128,-1,18
 306 351 306 351 267.5 363 c 128,-1,19
 229 375 229 375 194 393.5 c 128,-1,20
 159 412 159 412 132.5 439 c 128,-1,21
 106 466 106 466 90.5 502 c 128,-1,22
 75 538 75 538 75 586 c 0,23,24
 75 636 75 636 96 678.5 c 128,-1,25
 117 721 117 721 156 752.5 c 128,-1,26
 195 784 195 784 249.5 801.5 c 128,-1,27
 304 819 304 819 372 819 c 0,28,29
 431 819 431 819 483.5 807.5 c 128,-1,30
 536 796 536 796 575 777 c 0,31,32
 575 776 575 776 576 781 c 128,-1,33
 577 786 577 786 578 791 c 2,34,-1
 580 805 l 1,35,-1
 706 805 l 1,36,-1
 706 549 l 1,37,-1
 580 549 l 1,38,39
 579 565 579 565 578 578 c 0,40,41
 577 589 577 589 577 600 c 128,-1,42
 577 611 577 611 577 616 c 1,43,44
 506 702 506 702 378 702 c 0,45,46
 304 702 304 702 260 672.5 c 128,-1,47
 216 643 216 643 216 592 c 0,48,49
 216 559 216 559 237.5 539 c 128,-1,50
 259 519 259 519 295 506.5 c 128,-1,51
 331 494 331 494 378.5 486.5 c 128,-1,52
 426 479 426 479 479 470 c 0,53,54
 534 461 534 461 584 444.5 c 128,-1,55
 634 428 634 428 671 400.5 c 128,-1,56
 708 373 708 373 730 331 c 128,-1,57
 752 289 752 289 752 228 c 0,58,59
 752 173 752 173 729.5 127.5 c 128,-1,60
 707 82 707 82 665.5 49.5 c 128,-1,61
 624 17 624 17 565 -1 c 128,-1,62
 506 -19 506 -19 433 -19 c 0,63,64
 364 -19 364 -19 309.5 -5 c 128,-1,65
 255 9 255 9 210 40 c 1,66,-1
 208 0 l 1,67,-1
 77 0 l 1,68,-1
 77 263 l 1,0,-1
EndSplineSet
EndChar

StartChar: t
Encoding: 116 116 44
Width: 533
Flags: W
HStem: -11 129<339.765 482.907> 683 122<46 170 321 484>
VStem: 170 151<134.506 683 805 973>
LayerCount: 2
Fore
SplineSet
46 805 m 1,0,-1
 173 805 l 1,1,-1
 173 973 l 1,2,-1
 321 1095 l 1,3,-1
 321 805 l 1,4,-1
 484 805 l 1,5,-1
 484 683 l 1,6,-1
 321 683 l 1,7,-1
 321 470 l 2,8,9
 321 460 321 460 321 436.5 c 128,-1,10
 321 413 321 413 321 383 c 128,-1,11
 321 353 321 353 321.5 321 c 128,-1,12
 322 289 322 289 322.5 261.5 c 128,-1,13
 323 234 323 234 323.5 214.5 c 128,-1,14
 324 195 324 195 325 192 c 0,15,16
 327 150 327 150 349 134 c 128,-1,17
 371 118 371 118 406 118 c 0,18,19
 440 118 440 118 484 132 c 1,20,-1
 484 5 l 1,21,22
 458 -2 458 -2 430 -6.5 c 128,-1,23
 402 -11 402 -11 376 -11 c 0,24,25
 333 -11 333 -11 297 -1 c 128,-1,26
 261 9 261 9 234.5 31.5 c 128,-1,27
 208 54 208 54 192.5 91 c 128,-1,28
 177 128 177 128 175 181 c 0,29,30
 173 250 173 250 172 307 c 0,31,32
 172 331 172 331 171.5 355.5 c 128,-1,33
 171 380 171 380 170.5 401 c 128,-1,34
 170 422 170 422 170 438 c 128,-1,35
 170 454 170 454 170 462 c 2,36,-1
 170 683 l 1,37,-1
 46 683 l 1,38,-1
 46 805 l 1,0,-1
EndSplineSet
EndChar

StartChar: u
Encoding: 117 117 45
Width: 1004
Flags: W
HStem: -19 125<343.961 580.115> 0 121<836 982> 683 122<44 167 540 685>
VStem: 165 151<149.321 682> 685 151<199.182 683>
LayerCount: 2
Fore
SplineSet
690 0 m 1,0,1
 689 24 689 24 688 44 c 0,2,3
 687 61 687 61 686.5 77 c 128,-1,4
 686 93 686 93 685 100 c 1,5,6
 619 41 619 41 553 11 c 128,-1,7
 487 -19 487 -19 413 -19 c 0,8,9
 347 -19 347 -19 300 0.5 c 128,-1,10
 253 20 253 20 223 56.5 c 128,-1,11
 193 93 193 93 179 144.5 c 128,-1,12
 165 196 165 196 165 261 c 0,13,14
 165 264 165 264 165 283.5 c 128,-1,15
 165 303 165 303 165 333 c 128,-1,16
 165 363 165 363 165.5 400.5 c 128,-1,17
 166 438 166 438 166 477 c 0,18,19
 166 568 166 568 167 682 c 1,20,-1
 44 685 l 1,21,-1
 44 805 l 1,22,-1
 316 805 l 1,23,-1
 316 268 l 2,24,25
 316 190 316 190 344 148 c 128,-1,26
 372 106 372 106 441 106 c 0,27,28
 511 106 511 106 574.5 146.5 c 128,-1,29
 638 187 638 187 685 250 c 1,30,-1
 685 683 l 1,31,-1
 540 683 l 1,32,-1
 540 805 l 1,33,-1
 836 805 l 1,34,-1
 836 121 l 1,35,-1
 982 121 l 1,36,-1
 982 0 l 1,37,-1
 690 0 l 1,0,1
EndSplineSet
EndChar

StartChar: v
Encoding: 118 118 46
Width: 959
Flags: W
HStem: -11 21G<413.011 564.908> 682 123<-3 143 292 408 559 682 831 961>
LayerCount: 2
Fore
SplineSet
143 685 m 1,0,-1
 -3 685 l 1,1,-1
 -3 805 l 1,2,-1
 408 805 l 1,3,-1
 408 682 l 1,4,-1
 292 682 l 1,5,-1
 390 427 l 1,6,-1
 487 181 l 1,7,-1
 584 427 l 1,8,-1
 682 683 l 1,9,-1
 559 683 l 1,10,-1
 559 805 l 1,11,-1
 961 805 l 1,12,-1
 961 682 l 1,13,-1
 831 682 l 1,14,-1
 557 -11 l 1,15,-1
 421 -11 l 1,16,-1
 143 685 l 1,0,-1
EndSplineSet
EndChar

StartChar: w
Encoding: 119 119 47
Width: 1400
Flags: W
HStem: -11 21G<334.305 490.872 894.355 1049.75> 682 123<-1 108 237 353 492 587 795 890 1026 1148 1277 1399>
LayerCount: 2
Fore
SplineSet
108 685 m 1,0,-1
 -1 685 l 1,1,-1
 -1 805 l 1,2,-1
 353 805 l 1,3,-1
 353 682 l 1,4,-1
 237 682 l 1,5,-1
 324 412 l 1,6,-1
 410 157 l 1,7,-1
 500 413 l 1,8,-1
 587 685 l 1,9,-1
 492 685 l 1,10,-1
 492 805 l 1,11,-1
 890 805 l 1,12,-1
 890 682 l 1,13,-1
 795 682 l 1,14,-1
 970 157 l 1,15,-1
 1060 412 l 1,16,-1
 1148 683 l 1,17,-1
 1026 683 l 1,18,-1
 1026 805 l 1,19,-1
 1399 805 l 1,20,-1
 1399 682 l 1,21,-1
 1277 682 l 1,22,-1
 1043 -11 l 1,23,-1
 901 -11 l 1,24,-1
 696 606 l 1,25,-1
 484 -11 l 1,26,-1
 341 -11 l 1,27,-1
 108 685 l 1,0,-1
EndSplineSet
EndChar

StartChar: x
Encoding: 120 120 48
Width: 972
Flags: W
HStem: 0 123<30 157 315 431 547 672 828 943> 682 123<49 168 325 439 549 645 800 939>
VStem: 547 396<0 121 683 805>
LayerCount: 2
Fore
SplineSet
30 123 m 1,0,-1
 157 123 l 1,1,-1
 411 413 l 1,2,-1
 168 685 l 1,3,-1
 49 685 l 1,4,-1
 49 805 l 1,5,-1
 439 805 l 1,6,-1
 439 682 l 1,7,-1
 325 682 l 1,8,-1
 488 500 l 1,9,-1
 645 683 l 1,10,-1
 549 683 l 1,11,-1
 549 805 l 1,12,-1
 939 805 l 1,13,-1
 939 682 l 1,14,-1
 800 682 l 1,15,-1
 567 413 l 1,16,-1
 828 121 l 1,17,-1
 943 121 l 1,18,-1
 943 0 l 1,19,-1
 547 0 l 1,20,-1
 547 124 l 1,21,-1
 672 124 l 1,22,-1
 488 327 l 1,23,-1
 315 122 l 1,24,-1
 431 122 l 1,25,-1
 431 0 l 1,26,-1
 30 0 l 1,27,-1
 30 123 l 1,0,-1
EndSplineSet
EndChar

StartChar: y
Encoding: 121 121 49
Width: 1002
Flags: W
HStem: -370 125<185 398.273> 682 123<17 142 315 423 583 698 867 996>
LayerCount: 2
Fore
SplineSet
327 -370 m 0,0,1
 298 -370 298 -370 272 -368 c 128,-1,2
 246 -366 246 -366 226 -364 c 0,3,4
 202 -361 202 -361 181 -357 c 1,5,-1
 185 -235 l 1,6,7
 202 -238 202 -238 220 -240 c 0,8,9
 236 -242 236 -242 255.5 -243.5 c 128,-1,10
 275 -245 275 -245 295 -245 c 0,11,12
 331 -245 331 -245 356.5 -235.5 c 128,-1,13
 382 -226 382 -226 404.5 -193 c 128,-1,14
 427 -160 427 -160 449.5 -97.5 c 128,-1,15
 472 -35 472 -35 501 71 c 1,16,-1
 406 70 l 1,17,-1
 142 685 l 1,18,-1
 17 685 l 1,19,-1
 17 805 l 1,20,-1
 423 805 l 1,21,-1
 423 682 l 1,22,-1
 315 682 l 1,23,-1
 517 162 l 1,24,-1
 537 162 l 1,25,-1
 623 432 l 1,26,-1
 698 683 l 1,27,-1
 583 683 l 1,28,-1
 583 805 l 1,29,-1
 996 805 l 1,30,-1
 996 682 l 1,31,-1
 867 682 l 1,32,-1
 651 36 l 1,33,34
 617 -59 617 -59 589.5 -134.5 c 128,-1,35
 562 -210 562 -210 527.5 -262.5 c 128,-1,36
 493 -315 493 -315 446 -342.5 c 128,-1,37
 399 -370 399 -370 327 -370 c 0,0,1
EndSplineSet
EndChar

StartChar: z
Encoding: 122 122 50
Width: 785
Flags: W
HStem: 0 276<606 734> 0 115<205 606> 537 268<74 195> 691 114<195 559>
VStem: 74 121<537 691> 606 128<115 276>
LayerCount: 2
Fore
SplineSet
734 0 m 1,0,-1
 384 0 l 1,1,-1
 34 0 l 1,2,-1
 34 116 l 1,3,-1
 559 691 l 1,4,-1
 195 691 l 1,5,-1
 195 537 l 1,6,-1
 74 537 l 1,7,-1
 74 805 l 1,8,-1
 404 805 l 1,9,-1
 737 805 l 1,10,-1
 737 683 l 1,11,-1
 205 115 l 1,12,-1
 606 115 l 1,13,-1
 606 276 l 1,14,-1
 734 276 l 1,15,-1
 734 0 l 1,0,-1
EndSplineSet
EndChar

StartChar: zero
Encoding: 48 48 51
Width: 971
Flags: W
HStem: -19 120<343.443 625.727> 1051 120<345.516 626.209>
VStem: 70 154<263.15 888.463> 746 154<263.129 888.519>
LayerCount: 2
Fore
SplineSet
485 -19 m 0,0,1
 378 -19 378 -19 300 24 c 128,-1,2
 222 67 222 67 171 145 c 128,-1,3
 120 223 120 223 95 333 c 128,-1,4
 70 443 70 443 70 577 c 0,5,6
 70 710 70 710 95 819.5 c 128,-1,7
 120 929 120 929 171 1007 c 128,-1,8
 222 1085 222 1085 300 1128 c 128,-1,9
 378 1171 378 1171 485 1171 c 0,10,11
 591 1171 591 1171 669.5 1128 c 128,-1,12
 748 1085 748 1085 799 1007 c 128,-1,13
 850 929 850 929 875 819.5 c 128,-1,14
 900 710 900 710 900 577 c 0,15,16
 900 443 900 443 875 333 c 128,-1,17
 850 223 850 223 799 145 c 128,-1,18
 748 67 748 67 669.5 24 c 128,-1,19
 591 -19 591 -19 485 -19 c 0,0,1
484 101 m 0,20,21
 551 101 551 101 600.5 128.5 c 128,-1,22
 650 156 650 156 682.5 214 c 128,-1,23
 715 272 715 272 730.5 362 c 128,-1,24
 746 452 746 452 746 577 c 0,25,26
 746 700 746 700 730.5 789.5 c 128,-1,27
 715 879 715 879 683 937 c 128,-1,28
 651 995 651 995 601.5 1023 c 128,-1,29
 552 1051 552 1051 484 1051 c 0,30,31
 410 1051 410 1051 360 1018 c 128,-1,32
 310 985 310 985 280 923.5 c 128,-1,33
 250 862 250 862 237 774 c 128,-1,34
 224 686 224 686 224 577 c 0,35,36
 224 465 224 465 237 377 c 128,-1,37
 250 289 250 289 280 227.5 c 128,-1,38
 310 166 310 166 360 133.5 c 128,-1,39
 410 101 410 101 484 101 c 0,20,21
EndSplineSet
EndChar

StartChar: one
Encoding: 49 49 52
Width: 889
Flags: W
HStem: 0 123<231 394 541 696> 1018 123<223 392.966>
VStem: 391.5 148.5<123 1025>
LayerCount: 2
Fore
SplineSet
231 120 m 1,0,-1
 394 123 l 1,1,2
 393 242 393 242 392 339 c 0,3,4
 392 380 392 380 391.5 420.5 c 128,-1,5
 391 461 391 461 391 494 c 128,-1,6
 391 527 391 527 391 549 c 128,-1,7
 391 571 391 571 391 577 c 0,8,9
 391 582 391 582 391 616.5 c 128,-1,10
 391 651 391 651 391 699 c 128,-1,11
 391 747 391 747 391.5 802 c 128,-1,12
 392 857 392 857 392 905 c 128,-1,13
 392 953 392 953 392.5 986.5 c 128,-1,14
 393 1020 393 1020 393 1025 c 1,15,16
 392 1024 392 1024 380 1023.5 c 128,-1,17
 368 1023 368 1023 350.5 1022.5 c 128,-1,18
 333 1022 333 1022 312.5 1021 c 128,-1,19
 292 1020 292 1020 273.5 1019.5 c 128,-1,20
 255 1019 255 1019 241 1018.5 c 128,-1,21
 227 1018 227 1018 223 1018 c 1,22,-1
 223 1141 l 1,23,24
 230 1141 230 1141 257.5 1143 c 128,-1,25
 285 1145 285 1145 316 1147 c 0,26,27
 352 1150 352 1150 395 1153 c 1,28,-1
 542 1153 l 1,29,30
 541 1018 541 1018 541 908 c 0,31,32
 541 861 541 861 540.5 815 c 128,-1,33
 540 769 540 769 540 731.5 c 128,-1,34
 540 694 540 694 540 668.5 c 128,-1,35
 540 643 540 643 540 636 c 2,36,-1
 540 369 l 2,37,38
 540 259 540 259 541 123 c 1,39,-1
 696 122 l 1,40,-1
 696 0 l 1,41,-1
 231 0 l 1,42,-1
 231 120 l 1,0,-1
EndSplineSet
EndChar

StartChar: two
Encoding: 50 50 53
Width: 957
Flags: W
HStem: -3 132<231 717> 1051 120<316.604 619.312>
VStem: 103 140<751 972.914> 683 159<728.663 988.105> 717 120<130 374>
LayerCount: 2
Fore
SplineSet
837 0 m 1,0,1
 738 -1 738 -1 657 -2 c 0,2,3
 622 -2 622 -2 588.5 -2.5 c 128,-1,4
 555 -3 555 -3 527 -3 c 128,-1,5
 499 -3 499 -3 479.5 -3 c 128,-1,6
 460 -3 460 -3 454 -3 c 0,7,8
 449 -3 449 -3 430.5 -3 c 128,-1,9
 412 -3 412 -3 384.5 -3 c 128,-1,10
 357 -3 357 -3 323.5 -2.5 c 128,-1,11
 290 -2 290 -2 256 -2 c 0,12,13
 176 -1 176 -1 77 0 c 1,14,15
 77 106 77 106 116 210 c 128,-1,16
 155 314 155 314 243 420 c 0,17,18
 305 495 305 495 373.5 546.5 c 128,-1,19
 442 598 442 598 525 642 c 0,20,21
 605 684 605 684 644 735.5 c 128,-1,22
 683 787 683 787 683 859 c 0,23,24
 683 902 683 902 669.5 937.5 c 128,-1,25
 656 973 656 973 629 998 c 128,-1,26
 602 1023 602 1023 560.5 1037 c 128,-1,27
 519 1051 519 1051 464 1051 c 0,28,29
 402 1051 402 1051 360 1033.5 c 128,-1,30
 318 1016 318 1016 292 979 c 128,-1,31
 266 942 266 942 254.5 885.5 c 128,-1,32
 243 829 243 829 243 751 c 1,33,-1
 106 751 l 1,34,35
 106 758 106 758 105.5 769 c 128,-1,36
 105 780 105 780 104.5 792 c 128,-1,37
 104 804 104 804 103.5 814.5 c 128,-1,38
 103 825 103 825 103 831 c 0,39,40
 103 917 103 917 130.5 981 c 128,-1,41
 158 1045 158 1045 206.5 1087 c 128,-1,42
 255 1129 255 1129 320.5 1150 c 128,-1,43
 386 1171 386 1171 462 1171 c 0,44,45
 570 1171 570 1171 643 1142.5 c 128,-1,46
 716 1114 716 1114 760.5 1069 c 128,-1,47
 805 1024 805 1024 823.5 969.5 c 128,-1,48
 842 915 842 915 842 863 c 0,49,50
 842 801 842 801 820.5 749 c 128,-1,51
 799 697 799 697 761 653.5 c 128,-1,52
 723 610 723 610 670.5 573 c 128,-1,53
 618 536 618 536 556 503 c 1,54,55
 487 468 487 468 438 429.5 c 128,-1,56
 389 391 389 391 347 343 c 0,57,58
 328 322 328 322 309.5 296 c 128,-1,59
 291 270 291 270 275 242 c 128,-1,60
 259 214 259 214 247.5 185 c 128,-1,61
 236 156 236 156 231 129 c 1,62,-1
 470 129 l 2,63,64
 475 129 475 129 495 129 c 128,-1,65
 515 129 515 129 541.5 129 c 128,-1,66
 568 129 568 129 598 129.5 c 128,-1,67
 628 130 628 130 653.5 130 c 128,-1,68
 679 130 679 130 697 130 c 128,-1,69
 715 130 715 130 717 130 c 1,70,71
 717 131 717 131 717 142.5 c 128,-1,72
 717 154 717 154 717 171.5 c 128,-1,73
 717 189 717 189 717.5 210.5 c 128,-1,74
 718 232 718 232 718 255 c 0,75,76
 719 308 719 308 720 374 c 1,77,-1
 837 374 l 1,78,-1
 837 0 l 1,0,1
EndSplineSet
EndChar

StartChar: three
Encoding: 51 51 54
Width: 959
Flags: W
HStem: -19 120<306.769 638.142> 537 126<353 618.065> 1051 120<328.031 617.58>
VStem: 60 140<208.639 341> 118 142<871 981.023> 684 147<723.882 985.761> 723 155<182.711 444.017>
LayerCount: 2
Fore
SplineSet
60 341 m 1,0,-1
 200 345 l 1,1,2
 211 230 211 230 281 165.5 c 128,-1,3
 351 101 351 101 472 101 c 0,4,5
 534 101 534 101 581 117.5 c 128,-1,6
 628 134 628 134 659.5 162.5 c 128,-1,7
 691 191 691 191 707 230.5 c 128,-1,8
 723 270 723 270 723 316 c 0,9,10
 723 368 723 368 702 408.5 c 128,-1,11
 681 449 681 449 643.5 476.5 c 128,-1,12
 606 504 606 504 553.5 518.5 c 128,-1,13
 501 533 501 533 439 535 c 2,14,-1
 353 537 l 1,15,-1
 353 663 l 1,16,-1
 437 663 l 2,17,18
 560 663 560 663 622 708.5 c 128,-1,19
 684 754 684 754 684 852 c 0,20,21
 684 895 684 895 671 931.5 c 128,-1,22
 658 968 658 968 631.5 994.5 c 128,-1,23
 605 1021 605 1021 565 1036 c 128,-1,24
 525 1051 525 1051 471 1051 c 0,25,26
 368 1051 368 1051 316.5 995.5 c 128,-1,27
 265 940 265 940 260 846 c 1,28,-1
 118 871 l 1,29,30
 121 940 121 940 146 995.5 c 128,-1,31
 171 1051 171 1051 215 1090 c 128,-1,32
 259 1129 259 1129 320 1150 c 128,-1,33
 381 1171 381 1171 456 1171 c 0,34,35
 543 1171 543 1171 612.5 1151 c 128,-1,36
 682 1131 682 1131 730.5 1092.5 c 128,-1,37
 779 1054 779 1054 805 998 c 128,-1,38
 831 942 831 942 831 869 c 0,39,40
 831 825 831 825 819 784.5 c 128,-1,41
 807 744 807 744 784.5 709.5 c 128,-1,42
 762 675 762 675 730 648 c 128,-1,43
 698 621 698 621 657 604 c 1,44,45
 771 567 771 567 824.5 498.5 c 128,-1,46
 878 430 878 430 878 324 c 0,47,48
 878 248 878 248 850 185 c 128,-1,49
 822 122 822 122 768.5 76.5 c 128,-1,50
 715 31 715 31 638 6 c 128,-1,51
 561 -19 561 -19 462 -19 c 0,52,53
 374 -19 374 -19 300 3 c 128,-1,54
 226 25 226 25 173 70 c 128,-1,55
 120 115 120 115 90 182.5 c 128,-1,56
 60 250 60 250 60 341 c 1,0,-1
EndSplineSet
EndChar

StartChar: five
Encoding: 53 53 55
Width: 959
Flags: W
HStem: -19 120<314.745 626.796> 611 122<310.403 638.048> 922 231<677 808> 1023 130<286 677>
VStem: 71 137<210.859 322> 677 131<922 1023> 728 154<201.776 519.576>
LayerCount: 2
Fore
SplineSet
208 325 m 1,0,1
 228 219 228 219 295.5 160 c 128,-1,2
 363 101 363 101 469 101 c 0,3,4
 533 101 533 101 581.5 121 c 128,-1,5
 630 141 630 141 662.5 175.5 c 128,-1,6
 695 210 695 210 711.5 257.5 c 128,-1,7
 728 305 728 305 728 360 c 0,8,9
 728 423 728 423 709.5 470 c 128,-1,10
 691 517 691 517 659 548.5 c 128,-1,11
 627 580 627 580 584.5 595.5 c 128,-1,12
 542 611 542 611 494 611 c 0,13,14
 429 611 429 611 362 588 c 128,-1,15
 295 565 295 565 234 517 c 1,16,-1
 119 562 l 1,17,-1
 165 1153 l 1,18,-1
 487 1153 l 1,19,-1
 808 1153 l 1,20,-1
 808 922 l 1,21,-1
 677 922 l 1,22,-1
 677 1023 l 1,23,-1
 286 1023 l 1,24,-1
 245 642 l 1,25,26
 290 688 290 688 358 710.5 c 128,-1,27
 426 733 426 733 507 733 c 0,28,29
 593 733 593 733 662.5 706 c 128,-1,30
 732 679 732 679 780.5 629.5 c 128,-1,31
 829 580 829 580 855.5 511.5 c 128,-1,32
 882 443 882 443 882 361 c 0,33,34
 882 284 882 284 857.5 215.5 c 128,-1,35
 833 147 833 147 782.5 94.5 c 128,-1,36
 732 42 732 42 654 11.5 c 128,-1,37
 576 -19 576 -19 469 -19 c 0,38,39
 379 -19 379 -19 307.5 4.5 c 128,-1,40
 236 28 236 28 185.5 72 c 128,-1,41
 135 116 135 116 106 179 c 128,-1,42
 77 242 77 242 71 322 c 1,43,-1
 208 325 l 1,0,1
EndSplineSet
EndChar

StartChar: six
Encoding: 54 54 56
Width: 966
Flags: W
HStem: -19 125<356.979 642.121> 584 136<346.185 654.991> 1051 120<362.273 634.283>
VStem: 89 146<609 885.152> 721 130<183.565 353.346 356.561 362.471 367.372 519.494 858 961.942> 732 139<198.15 506.311>
LayerCount: 2
Fore
SplineSet
851 858 m 1,0,-1
 721 857 l 1,1,2
 703 946 703 946 643.5 998.5 c 128,-1,3
 584 1051 584 1051 497 1051 c 0,4,5
 422 1051 422 1051 371.5 1014 c 128,-1,6
 321 977 321 977 290.5 915.5 c 128,-1,7
 260 854 260 854 247.5 774.5 c 128,-1,8
 235 695 235 695 235 609 c 1,9,10
 259 635 259 635 292 655.5 c 128,-1,11
 325 676 325 676 363.5 690.5 c 128,-1,12
 402 705 402 705 444 712.5 c 128,-1,13
 486 720 486 720 529 720 c 0,14,15
 608 720 608 720 671.5 693 c 128,-1,16
 735 666 735 666 779.5 618.5 c 128,-1,17
 824 571 824 571 847.5 506 c 128,-1,18
 871 441 871 441 871 365 c 0,19,20
 871 284 871 284 846 213.5 c 128,-1,21
 821 143 821 143 774 91.5 c 128,-1,22
 727 40 727 40 659.5 10.5 c 128,-1,23
 592 -19 592 -19 507 -19 c 0,24,25
 400 -19 400 -19 321 24 c 128,-1,26
 242 67 242 67 190.5 145 c 128,-1,27
 139 223 139 223 114 331.5 c 128,-1,28
 89 440 89 440 89 571 c 0,29,30
 89 708 89 708 115 819 c 128,-1,31
 141 930 141 930 193.5 1008 c 128,-1,32
 246 1086 246 1086 326 1128.5 c 128,-1,33
 406 1171 406 1171 514 1171 c 0,34,35
 589 1171 589 1171 650 1148.5 c 128,-1,36
 711 1126 711 1126 755 1085 c 128,-1,37
 799 1044 799 1044 824 986 c 128,-1,38
 849 928 849 928 851 858 c 1,0,-1
240 457 m 1,39,40
 249 373 249 373 266.5 307.5 c 128,-1,41
 284 242 284 242 314.5 197 c 128,-1,42
 345 152 345 152 390 129 c 128,-1,43
 435 106 435 106 499 106 c 0,44,45
 555 106 555 106 598.5 125 c 128,-1,46
 642 144 642 144 671.5 178 c 128,-1,47
 701 212 701 212 716.5 257 c 128,-1,48
 732 302 732 302 732 355 c 0,49,50
 732 405 732 405 718 447 c 128,-1,51
 704 489 704 489 676.5 519.5 c 128,-1,52
 649 550 649 550 608 567 c 128,-1,53
 567 584 567 584 513 584 c 0,54,55
 484 584 484 584 448.5 576.5 c 128,-1,56
 413 569 413 569 376 553.5 c 128,-1,57
 339 538 339 538 303.5 514 c 128,-1,58
 268 490 268 490 240 457 c 1,39,40
EndSplineSet
EndChar

StartChar: seven
Encoding: 55 55 57
Width: 943
Flags: W
HStem: 0 129<187 328.688 480.004 595.094> 1023 131.5<228 684>
VStem: 96 129<869 1023> 324 157.5<130 354.43>
LayerCount: 2
Fore
SplineSet
182 0 m 1,0,1
 183 1 183 1 183.5 21 c 128,-1,2
 184 41 184 41 185 64 c 128,-1,3
 186 87 186 87 186.5 107 c 128,-1,4
 187 127 187 127 187 128 c 2,5,6
 187 128 187 128 197 128.5 c 128,-1,7
 207 129 207 129 222 129 c 128,-1,8
 237 129 237 129 255 129 c 128,-1,9
 273 129 273 129 288 129 c 128,-1,10
 303 129 303 129 313.5 129.5 c 128,-1,11
 324 130 324 130 324 130 c 1,12,13
 326 149 326 149 328 167.5 c 128,-1,14
 330 186 330 186 332 206 c 1,15,16
 353 311 353 311 389 419.5 c 128,-1,17
 425 528 425 528 471.5 633.5 c 128,-1,18
 518 739 518 739 572 838 c 128,-1,19
 626 937 626 937 684 1023 c 1,20,-1
 454 1023 l 1,21,-1
 228 1023 l 1,22,23
 228 1019 228 1019 227.5 994.5 c 128,-1,24
 227 970 227 970 226 942 c 0,25,26
 225 909 225 909 225 869 c 1,27,-1
 96 869 l 1,28,-1
 96 1153 l 1,29,30
 194 1153 194 1153 273 1154 c 0,31,32
 307 1154 307 1154 340 1154.5 c 128,-1,33
 373 1155 373 1155 400 1155.5 c 128,-1,34
 427 1156 427 1156 446 1156 c 128,-1,35
 465 1156 465 1156 471 1156 c 0,36,37
 476 1156 476 1156 495.5 1156 c 128,-1,38
 515 1156 515 1156 543.5 1155.5 c 128,-1,39
 572 1155 572 1155 606 1154.5 c 128,-1,40
 640 1154 640 1154 675 1154 c 0,41,42
 757 1153 757 1153 857 1153 c 1,43,44
 857 1153 857 1153 856.5 1137 c 128,-1,45
 856 1121 856 1121 855 1102.5 c 128,-1,46
 854 1084 854 1084 853.5 1068 c 128,-1,47
 853 1052 853 1052 853 1052 c 1,48,49
 812 996 812 996 772 930 c 128,-1,50
 732 864 732 864 695 792 c 128,-1,51
 658 720 658 720 624.5 643.5 c 128,-1,52
 591 567 591 567 563.5 490 c 128,-1,53
 536 413 536 413 515.5 338 c 128,-1,54
 495 263 495 263 484 193 c 0,55,56
 482 176 482 176 481.5 160.5 c 128,-1,57
 481 145 481 145 480 128 c 0,58,59
 480 127 480 127 498 127 c 128,-1,60
 516 127 516 127 539 127 c 0,61,62
 565 127 565 127 598 126 c 1,63,64
 597 125 597 125 596.5 105.5 c 128,-1,65
 596 86 596 86 595.5 63 c 128,-1,66
 595 40 595 40 594.5 20.5 c 128,-1,67
 594 1 594 1 593 0 c 1,68,-1
 182 0 l 1,0,1
EndSplineSet
EndChar

StartChar: eight
Encoding: 56 56 58
Width: 975
Flags: W
HStem: -19 120<315.172 657.658> 538 120<320.625 650.796> 1048 123<316.366 658.862>
VStem: 65 159<186.44 453.132> 100 147<728.562 981.737> 727 147<164.262 311.66 731.568 981.875> 749 159<187.244 453.324>
LayerCount: 2
Fore
SplineSet
494 -19 m 0,0,1
 378 -19 378 -19 297 8 c 128,-1,2
 216 35 216 35 164 80.5 c 128,-1,3
 112 126 112 126 88.5 186.5 c 128,-1,4
 65 247 65 247 65 314 c 0,5,6
 65 416 65 416 119.5 488 c 128,-1,7
 174 560 174 560 283 599 c 1,8,9
 187 650 187 650 143.5 716 c 128,-1,10
 100 782 100 782 100 872 c 0,11,12
 100 938 100 938 126 992.5 c 128,-1,13
 152 1047 152 1047 201 1087 c 128,-1,14
 250 1127 250 1127 321 1149 c 128,-1,15
 392 1171 392 1171 483 1171 c 0,16,17
 577 1171 577 1171 649.5 1149.5 c 128,-1,18
 722 1128 722 1128 772 1088.5 c 128,-1,19
 822 1049 822 1049 848 994 c 128,-1,20
 874 939 874 939 874 872 c 0,21,22
 874 782 874 782 830.5 717 c 128,-1,23
 787 652 787 652 692 601 c 1,24,25
 800 563 800 563 854 489.5 c 128,-1,26
 908 416 908 416 908 314 c 0,27,28
 908 239 908 239 880.5 177.5 c 128,-1,29
 853 116 853 116 800 72.5 c 128,-1,30
 747 29 747 29 670 5 c 128,-1,31
 593 -19 593 -19 494 -19 c 0,0,1
464 538 m 1,32,33
 407 535 407 535 362 518 c 128,-1,34
 317 501 317 501 286.5 472.5 c 128,-1,35
 256 444 256 444 240 405 c 128,-1,36
 224 366 224 366 224 320 c 0,37,38
 224 273 224 273 241 232.5 c 128,-1,39
 258 192 258 192 291.5 163 c 128,-1,40
 325 134 325 134 374.5 117.5 c 128,-1,41
 424 101 424 101 488 101 c 256,42,43
 552 101 552 101 600.5 118 c 128,-1,44
 649 135 649 135 682 164 c 128,-1,45
 715 193 715 193 732 233 c 128,-1,46
 749 273 749 273 749 320 c 0,47,48
 749 423 749 423 676.5 480.5 c 128,-1,49
 604 538 604 538 464 538 c 1,32,33
499 658 m 1,50,51
 613 663 613 663 670 717.5 c 128,-1,52
 727 772 727 772 727 858 c 0,53,54
 727 946 727 946 667 997 c 128,-1,55
 607 1048 607 1048 483 1048 c 0,56,57
 366 1048 366 1048 306.5 996.5 c 128,-1,58
 247 945 247 945 247 857 c 0,59,60
 247 764 247 764 310 711 c 128,-1,61
 373 658 373 658 499 658 c 1,50,51
EndSplineSet
EndChar

StartChar: nine
Encoding: 57 57 59
Width: 966
Flags: W
HStem: -19 120<319.807 588.881> 434 135<297.984 603.677> 1047 124<310.558 596.587>
VStem: 80 139<647.848 954.381> 101 130<191.207 298 634.145 782.659 787.56 793.471 796.655 969.531> 718 144<269.035 545>
LayerCount: 2
Fore
SplineSet
101 298 m 1,0,-1
 231 300 l 1,1,2
 237 255 237 255 257.5 218.5 c 128,-1,3
 278 182 278 182 308 155.5 c 128,-1,4
 338 129 338 129 376 115 c 128,-1,5
 414 101 414 101 457 101 c 0,6,7
 577 101 577 101 647.5 211 c 128,-1,8
 718 321 718 321 718 545 c 1,9,10
 694 519 694 519 661 498 c 128,-1,11
 628 477 628 477 589.5 463 c 128,-1,12
 551 449 551 449 508.5 441.5 c 128,-1,13
 466 434 466 434 423 434 c 0,14,15
 345 434 345 434 282 460.5 c 128,-1,16
 219 487 219 487 174 534.5 c 128,-1,17
 129 582 129 582 104.5 646 c 128,-1,18
 80 710 80 710 80 785 c 0,19,20
 80 867 80 867 105 937.5 c 128,-1,21
 130 1008 130 1008 177.5 1060 c 128,-1,22
 225 1112 225 1112 293.5 1141.5 c 128,-1,23
 362 1171 362 1171 449 1171 c 0,24,25
 551 1171 551 1171 628.5 1132 c 128,-1,26
 706 1093 706 1093 757.5 1018 c 128,-1,27
 809 943 809 943 835.5 834 c 128,-1,28
 862 725 862 725 862 584 c 0,29,30
 862 447 862 447 836 335.5 c 128,-1,31
 810 224 810 224 757.5 145.5 c 128,-1,32
 705 67 705 67 626 24 c 128,-1,33
 547 -19 547 -19 440 -19 c 0,34,35
 364 -19 364 -19 302.5 4 c 128,-1,36
 241 27 241 27 197 69 c 128,-1,37
 153 111 153 111 128 169 c 128,-1,38
 103 227 103 227 101 298 c 1,0,-1
712 696 m 1,39,40
 704 782 704 782 686.5 847.5 c 128,-1,41
 669 913 669 913 638.5 957.5 c 128,-1,42
 608 1002 608 1002 563 1024.5 c 128,-1,43
 518 1047 518 1047 455 1047 c 0,44,45
 397 1047 397 1047 353 1027.5 c 128,-1,46
 309 1008 309 1008 279 974 c 128,-1,47
 249 940 249 940 234 894 c 128,-1,48
 219 848 219 848 219 795 c 0,49,50
 219 746 219 746 233.5 704.5 c 128,-1,51
 248 663 248 663 276.5 633 c 128,-1,52
 305 603 305 603 346 586 c 128,-1,53
 387 569 387 569 440 569 c 0,54,55
 468 569 468 569 503 576.5 c 128,-1,56
 538 584 538 584 575 600 c 128,-1,57
 612 616 612 616 647.5 639.5 c 128,-1,58
 683 663 683 663 712 696 c 1,39,40
EndSplineSet
EndChar

StartChar: parenleft
Encoding: 40 40 60
Width: 632
Flags: W
VStem: 138 158<104.092 726.882>
LayerCount: 2
Fore
SplineSet
296 416 m 0,0,1
 296 270 296 270 316.5 163.5 c 128,-1,2
 337 57 337 57 374 -20 c 128,-1,3
 411 -97 411 -97 463 -150 c 128,-1,4
 515 -203 515 -203 578 -242 c 1,5,-1
 571 -351 l 1,6,7
 481 -310 481 -310 402.5 -242.5 c 128,-1,8
 324 -175 324 -175 265 -79.5 c 128,-1,9
 206 16 206 16 172 139.5 c 128,-1,10
 138 263 138 263 138 416 c 256,11,12
 138 569 138 569 172 692.5 c 128,-1,13
 206 816 206 816 265 912 c 128,-1,14
 324 1008 324 1008 402.5 1076 c 128,-1,15
 481 1144 481 1144 571 1185 c 1,16,-1
 578 1075 l 1,17,18
 515 1036 515 1036 463 983 c 128,-1,19
 411 930 411 930 374 853 c 128,-1,20
 337 776 337 776 316.5 669.5 c 128,-1,21
 296 563 296 563 296 416 c 0,0,1
EndSplineSet
EndChar

StartChar: parenright
Encoding: 41 41 61
Width: 632
Flags: W
VStem: 336 158<104.092 726.882>
LayerCount: 2
Fore
SplineSet
336 416 m 0,0,1
 336 563 336 563 315.5 669.5 c 128,-1,2
 295 776 295 776 258 853 c 128,-1,3
 221 930 221 930 169 983 c 128,-1,4
 117 1036 117 1036 54 1075 c 1,5,-1
 60 1185 l 1,6,7
 150 1144 150 1144 229 1076 c 128,-1,8
 308 1008 308 1008 367 912 c 128,-1,9
 426 816 426 816 460 692.5 c 128,-1,10
 494 569 494 569 494 416 c 256,11,12
 494 263 494 263 460 139.5 c 128,-1,13
 426 16 426 16 367 -79.5 c 128,-1,14
 308 -175 308 -175 229 -242.5 c 128,-1,15
 150 -310 150 -310 60 -351 c 1,16,-1
 54 -242 l 1,17,18
 117 -203 117 -203 169 -150 c 128,-1,19
 221 -97 221 -97 258 -20 c 128,-1,20
 295 57 295 57 315.5 163.5 c 128,-1,21
 336 270 336 270 336 416 c 0,0,1
EndSplineSet
EndChar

StartChar: bracketleft
Encoding: 91 91 62
Width: 634
Flags: W
HStem: -329 107<333 584> 1058 109<333 584>
VStem: 185 399<-329 -222 1058 1167> 185 148<-222 1058>
LayerCount: 2
Fore
SplineSet
584 1167 m 1,0,-1
 584 1058 l 1,1,-1
 333 1058 l 1,2,-1
 333 -222 l 1,3,-1
 584 -222 l 1,4,-1
 584 -329 l 1,5,-1
 185 -329 l 1,6,-1
 185 418 l 1,7,-1
 185 1167 l 1,8,-1
 584 1167 l 1,0,-1
EndSplineSet
EndChar

StartChar: bracketright
Encoding: 93 93 63
Width: 634
Flags: W
HStem: -332 110<50 301> 1058 107<50 301>
VStem: 50 399<-332 -222 1058 1165> 301 148<-222 1058>
LayerCount: 2
Fore
SplineSet
50 1058 m 1,0,-1
 50 1165 l 1,1,-1
 449 1165 l 1,2,-1
 449 418 l 1,3,-1
 449 -332 l 1,4,-1
 50 -332 l 1,5,-1
 50 -222 l 1,6,-1
 301 -222 l 1,7,-1
 301 1058 l 1,8,-1
 50 1058 l 1,0,-1
EndSplineSet
EndChar

StartChar: braceleft
Encoding: 123 123 64
Width: 574
Flags: W
HStem: -342 106<380.885 528> 353 117<52 174.609> 1059 107<381.25 528>
VStem: 224 130<-188.056 304.734 520.188 1034.38>
LayerCount: 2
Fore
SplineSet
52 470 m 1,0,1
 107 470 107 470 140.5 488 c 128,-1,2
 174 506 174 506 192.5 539.5 c 128,-1,3
 211 573 211 573 217.5 622 c 128,-1,4
 224 671 224 671 224 733 c 0,5,6
 224 828 224 828 227.5 907 c 128,-1,7
 231 986 231 986 253 1043.5 c 128,-1,8
 275 1101 275 1101 323 1133 c 128,-1,9
 371 1165 371 1165 460 1166 c 1,10,-1
 528 1166 l 1,11,-1
 528 1059 l 1,12,13
 476 1059 476 1059 443.5 1053 c 128,-1,14
 411 1047 411 1047 392 1029 c 128,-1,15
 373 1011 373 1011 366 977.5 c 128,-1,16
 359 944 359 944 359 890 c 0,17,18
 359 771 359 771 354 691 c 128,-1,19
 349 611 349 611 331 557.5 c 128,-1,20
 313 504 313 504 279 470.5 c 128,-1,21
 245 437 245 437 187 412 c 1,22,23
 235 391 235 391 267.5 363 c 128,-1,24
 300 335 300 335 320.5 293.5 c 128,-1,25
 341 252 341 252 349.5 193.5 c 128,-1,26
 358 135 358 135 358 53 c 0,27,28
 358 -44 358 -44 360.5 -101.5 c 128,-1,29
 363 -159 363 -159 379 -189 c 128,-1,30
 395 -219 395 -219 429.5 -227.5 c 128,-1,31
 464 -236 464 -236 528 -236 c 1,32,-1
 528 -342 l 1,33,-1
 461 -342 l 2,34,35
 373 -342 373 -342 325 -311.5 c 128,-1,36
 277 -281 277 -281 254.5 -225.5 c 128,-1,37
 232 -170 232 -170 228 -92 c 128,-1,38
 224 -14 224 -14 224 81 c 0,39,40
 224 144 224 144 218.5 194.5 c 128,-1,41
 213 245 213 245 195 280.5 c 128,-1,42
 177 316 177 316 143 334.5 c 128,-1,43
 109 353 109 353 52 353 c 1,44,-1
 52 470 l 1,0,1
EndSplineSet
EndChar

StartChar: slash
Encoding: 47 47 65
Width: 743
Flags: W
HStem: 1146 20G<589.315 728>
LayerCount: 2
Fore
SplineSet
728 1166 m 1,0,-1
 144 -40 l 1,1,-1
 15 -40 l 1,2,-1
 599 1166 l 1,3,-1
 728 1166 l 1,0,-1
EndSplineSet
EndChar

StartChar: backslash
Encoding: 92 92 66
Width: 743
Flags: W
HStem: 1146 20G<15 153.685>
LayerCount: 2
Fore
SplineSet
728 -40 m 1,0,-1
 599 -40 l 1,1,-1
 15 1166 l 1,2,-1
 144 1166 l 1,3,-1
 728 -40 l 1,0,-1
EndSplineSet
EndChar

StartChar: bar
Encoding: 124 124 67
Width: 848
Flags: W
HStem: -368 21G<363 485> 1146 20G<363 485>
VStem: 363 122<-368 1166>
LayerCount: 2
Fore
SplineSet
485 1166 m 1,0,-1
 485 -368 l 1,1,-1
 363 -368 l 1,2,-1
 363 1166 l 1,3,-1
 485 1166 l 1,0,-1
EndSplineSet
EndChar

StartChar: period
Encoding: 46 46 68
Width: 480
Flags: W
HStem: 0 212<151 363>
VStem: 151 212<0 212>
LayerCount: 2
Fore
SplineSet
151 212 m 1,0,-1
 363 212 l 1,1,-1
 363 0 l 1,2,-1
 151 0 l 1,3,-1
 151 212 l 1,0,-1
EndSplineSet
EndChar

StartChar: colon
Encoding: 58 58 69
Width: 514
Flags: W
HStem: 0 212<151 363> 620 212<151 363>
VStem: 151 212<0 212 620 832>
LayerCount: 2
Fore
SplineSet
151 832 m 1,0,-1
 363 832 l 1,1,-1
 363 620 l 1,2,-1
 151 620 l 1,3,-1
 151 832 l 1,0,-1
151 212 m 1,4,-1
 363 212 l 1,5,-1
 363 0 l 1,6,-1
 151 0 l 1,7,-1
 151 212 l 1,4,-1
EndSplineSet
EndChar

StartChar: ellipsis
Encoding: 8230 8230 70
Width: 1440
Flags: W
HStem: 0 212<151 363 631 843 1111 1323>
VStem: 151 212<0 212> 631 212<0 212> 1111 212<0 212>
CounterMasks: 1 70
LayerCount: 2
Fore
SplineSet
151 212 m 1,0,-1
 363 212 l 1,1,-1
 363 0 l 1,2,-1
 151 0 l 1,3,-1
 151 212 l 1,0,-1
631 212 m 1,4,-1
 843 212 l 1,5,-1
 843 0 l 1,6,-1
 631 0 l 1,7,-1
 631 212 l 1,4,-1
1111 212 m 1,8,-1
 1323 212 l 1,9,-1
 1323 0 l 1,10,-1
 1111 0 l 1,11,-1
 1111 212 l 1,8,-1
EndSplineSet
EndChar

StartChar: endash
Encoding: 8211 8211 71
Width: 891
Flags: W
HStem: 367 129<9 881>
LayerCount: 2
Fore
SplineSet
881 496 m 1,0,-1
 881 367 l 1,1,-1
 9 367 l 1,2,-1
 9 496 l 1,3,-1
 881 496 l 1,0,-1
EndSplineSet
EndChar

StartChar: emdash
Encoding: 8212 8212 72
Width: 1746
Flags: W
HStem: 367 129<9 1736>
LayerCount: 2
Fore
SplineSet
1736 496 m 1,0,-1
 1736 367 l 1,1,-1
 9 367 l 1,2,-1
 9 496 l 1,3,-1
 1736 496 l 1,0,-1
EndSplineSet
EndChar

StartChar: bullet
Encoding: 8226 8226 73
Width: 595
Flags: W
HStem: 368 386<170.094 425.906>
VStem: 98 401<440.376 683.365>
LayerCount: 2
Fore
SplineSet
298 754 m 256,0,1
 340 754 340 754 376.5 739 c 128,-1,2
 413 724 413 724 440 698.5 c 128,-1,3
 467 673 467 673 483 637.5 c 128,-1,4
 499 602 499 602 499 562 c 256,5,6
 499 522 499 522 483 486.5 c 128,-1,7
 467 451 467 451 440 425 c 128,-1,8
 413 399 413 399 376.5 383.5 c 128,-1,9
 340 368 340 368 298 368 c 256,10,11
 256 368 256 368 219.5 383.5 c 128,-1,12
 183 399 183 399 156 425 c 128,-1,13
 129 451 129 451 113.5 486.5 c 128,-1,14
 98 522 98 522 98 562 c 256,15,16
 98 602 98 602 113.5 637.5 c 128,-1,17
 129 673 129 673 156 698.5 c 128,-1,18
 183 724 183 724 219.5 739 c 128,-1,19
 256 754 256 754 298 754 c 256,0,1
EndSplineSet
EndChar

StartChar: exclam
Encoding: 33 33 74
Width: 514
Flags: W
HStem: 0 212<151 363>
VStem: 151 212<0 212> 171 172<658.603 1196>
LayerCount: 2
Fore
SplineSet
171 832 m 1,0,-1
 171 1196 l 1,1,-1
 343 1196 l 1,2,-1
 343 832 l 1,3,-1
 301 324 l 1,4,-1
 213 324 l 1,5,-1
 171 832 l 1,0,-1
151 212 m 1,6,-1
 363 212 l 1,7,-1
 363 0 l 1,8,-1
 151 0 l 1,9,-1
 151 212 l 1,6,-1
EndSplineSet
EndChar

StartChar: underscore
Encoding: 95 95 77
Width: 892
Flags: W
HStem: -204 78<-3 895>
LayerCount: 2
Fore
SplineSet
895 -126 m 1,0,-1
 895 -204 l 1,1,-1
 -3 -204 l 1,2,-1
 -3 -126 l 1,3,-1
 895 -126 l 1,0,-1
EndSplineSet
EndChar

StartChar: asciitilde
Encoding: 126 126 78
Width: 1015
Flags: W
HStem: 446 139<573.662 848.301> 574 138<163.722 448.522>
LayerCount: 2
Fore
SplineSet
704 446 m 0,0,1
 639 446 639 446 587 466 c 128,-1,2
 535 486 535 486 488 510 c 128,-1,3
 441 534 441 534 395 554 c 128,-1,4
 349 574 349 574 295 574 c 0,5,6
 262 574 262 574 235 566 c 128,-1,7
 208 558 208 558 183 542.5 c 128,-1,8
 158 527 158 527 133.5 505 c 128,-1,9
 109 483 109 483 80 455 c 1,10,-1
 75 599 l 1,11,12
 94 620 94 620 117.5 640 c 128,-1,13
 141 660 141 660 170 676 c 128,-1,14
 199 692 199 692 233 702 c 128,-1,15
 267 712 267 712 307 712 c 0,16,17
 375 712 375 712 430.5 692 c 128,-1,18
 486 672 486 672 534.5 648.5 c 128,-1,19
 583 625 583 625 627.5 605 c 128,-1,20
 672 585 672 585 718 585 c 0,21,22
 749 585 749 585 778.5 595 c 128,-1,23
 808 605 808 605 835.5 621.5 c 128,-1,24
 863 638 863 638 887.5 659.5 c 128,-1,25
 912 681 912 681 935 704 c 1,26,-1
 940 556 l 1,27,28
 915 535 915 535 890.5 515 c 128,-1,29
 866 495 866 495 838 479.5 c 128,-1,30
 810 464 810 464 777 455 c 128,-1,31
 744 446 744 446 704 446 c 0,0,1
EndSplineSet
EndChar

StartChar: ordmasculine
Encoding: 186 186 79
Width: 660
Flags: W
HStem: 687 95<211.387 449.099> 1118 97<211.011 449.468>
VStem: 46 112<835.587 1065.48> 502 113<835.221 1065.84>
LayerCount: 2
Fore
SplineSet
158 951 m 256,0,1
 158 915 158 915 171 884 c 128,-1,2
 184 853 184 853 207.5 830.5 c 128,-1,3
 231 808 231 808 262.5 795 c 128,-1,4
 294 782 294 782 331 782 c 0,5,6
 367 782 367 782 398.5 795 c 128,-1,7
 430 808 430 808 453 830.5 c 128,-1,8
 476 853 476 853 489 884 c 128,-1,9
 502 915 502 915 502 951 c 256,10,11
 502 987 502 987 489 1017.5 c 128,-1,12
 476 1048 476 1048 453 1070.5 c 128,-1,13
 430 1093 430 1093 398.5 1105.5 c 128,-1,14
 367 1118 367 1118 331 1118 c 0,15,16
 294 1118 294 1118 262.5 1105.5 c 128,-1,17
 231 1093 231 1093 207.5 1070.5 c 128,-1,18
 184 1048 184 1048 171 1017.5 c 128,-1,19
 158 987 158 987 158 951 c 256,0,1
46 951 m 256,20,21
 46 1008 46 1008 67.5 1056.5 c 128,-1,22
 89 1105 89 1105 127.5 1140 c 128,-1,23
 166 1175 166 1175 218 1195 c 128,-1,24
 270 1215 270 1215 331 1215 c 256,25,26
 392 1215 392 1215 444 1195 c 128,-1,27
 496 1175 496 1175 534 1140 c 128,-1,28
 572 1105 572 1105 593.5 1056.5 c 128,-1,29
 615 1008 615 1008 615 951 c 256,30,31
 615 894 615 894 593.5 846 c 128,-1,32
 572 798 572 798 534 762.5 c 128,-1,33
 496 727 496 727 444 707 c 128,-1,34
 392 687 392 687 331 687 c 256,35,36
 270 687 270 687 218 707 c 128,-1,37
 166 727 166 727 127.5 762.5 c 128,-1,38
 89 798 89 798 67.5 846 c 128,-1,39
 46 894 46 894 46 951 c 256,20,21
EndSplineSet
EndChar

StartChar: numbersign
Encoding: 35 35 80
Width: 1182
Flags: W
HStem: -11 21G<199 316.571 655 773.571> 325 102<75 255 395 712 852 1107> 729 104<75 331 470 788 927 1107> 1149 20G<412.25 532 869.25 989>
LayerCount: 2
Fore
SplineSet
199 -11 m 1,0,-1
 255 325 l 1,1,-1
 75 325 l 1,2,-1
 75 427 l 1,3,-1
 279 427 l 1,4,-1
 331 729 l 1,5,-1
 75 729 l 1,6,-1
 75 833 l 1,7,-1
 353 833 l 1,8,-1
 416 1169 l 1,9,-1
 532 1169 l 1,10,-1
 470 833 l 1,11,-1
 810 833 l 1,12,-1
 873 1169 l 1,13,-1
 989 1169 l 1,14,-1
 927 833 l 1,15,-1
 1107 833 l 1,16,-1
 1107 729 l 1,17,-1
 904 729 l 1,18,-1
 852 427 l 1,19,-1
 1107 427 l 1,20,-1
 1107 325 l 1,21,-1
 830 325 l 1,22,-1
 770 -11 l 1,23,-1
 655 -11 l 1,24,-1
 712 325 l 1,25,-1
 373 325 l 1,26,-1
 313 -11 l 1,27,-1
 199 -11 l 1,0,-1
395 427 m 1,28,-1
 735 427 l 1,29,-1
 788 729 l 1,30,-1
 446 729 l 1,31,-1
 395 427 l 1,28,-1
EndSplineSet
EndChar

StartChar: currency
Encoding: 164 164 81
Width: 660
Flags: W
HStem: 486 114<196.731 462.079> 1006 118<195.245 463.892> 1137 20G<27 67 596 636>
VStem: -15 137<674.823 932.648> 537 137<674.727 932.582>
LayerCount: 2
Fore
SplineSet
-15 806 m 0,0,1
 -15 864 -15 864 4 915 c 128,-1,2
 23 966 23 966 58 1007 c 1,3,-1
 -22 1088 l 1,4,-1
 47 1157 l 1,5,-1
 133 1071 l 1,6,7
 175 1096 175 1096 224 1110 c 128,-1,8
 273 1124 273 1124 330 1124 c 256,9,10
 387 1124 387 1124 436.5 1109.5 c 128,-1,11
 486 1095 486 1095 528 1069 c 1,12,-1
 616 1157 l 1,13,-1
 685 1088 l 1,14,-1
 602 1005 l 1,15,16
 637 964 637 964 655.5 913.5 c 128,-1,17
 674 863 674 863 674 806 c 0,18,19
 674 746 674 746 654.5 695 c 128,-1,20
 635 644 635 644 600 603 c 1,21,-1
 685 519 l 1,22,-1
 616 451 l 1,23,-1
 526 539 l 1,24,25
 484 513 484 513 435 499.5 c 128,-1,26
 386 486 386 486 330 486 c 256,27,28
 274 486 274 486 225 499.5 c 128,-1,29
 176 513 176 513 135 538 c 1,30,-1
 47 451 l 1,31,-1
 -22 519 l 1,32,-1
 60 601 l 1,33,34
 25 642 25 642 5 694 c 128,-1,35
 -15 746 -15 746 -15 806 c 0,0,1
122 806 m 0,36,37
 122 761 122 761 138 723.5 c 128,-1,38
 154 686 154 686 181.5 658.5 c 128,-1,39
 209 631 209 631 247 615.5 c 128,-1,40
 285 600 285 600 330 600 c 0,41,42
 374 600 374 600 412 615.5 c 128,-1,43
 450 631 450 631 477.5 658.5 c 128,-1,44
 505 686 505 686 521 723.5 c 128,-1,45
 537 761 537 761 537 806 c 0,46,47
 537 849 537 849 521 885.5 c 128,-1,48
 505 922 505 922 477.5 949 c 128,-1,49
 450 976 450 976 412 991 c 128,-1,50
 374 1006 374 1006 330 1006 c 0,51,52
 285 1006 285 1006 247 991 c 128,-1,53
 209 976 209 976 181.5 949 c 128,-1,54
 154 922 154 922 138 885.5 c 128,-1,55
 122 849 122 849 122 806 c 0,36,37
EndSplineSet
EndChar

StartChar: plus
Encoding: 43 43 82
Width: 1145
Flags: W
HStem: 485 117<106 510 634 1039>
VStem: 510 124<93 485 602 994>
LayerCount: 2
Fore
SplineSet
1039 602 m 1,0,-1
 1039 485 l 1,1,-1
 634 485 l 1,2,-1
 634 93 l 1,3,-1
 510 93 l 1,4,-1
 510 485 l 1,5,-1
 106 485 l 1,6,-1
 106 602 l 1,7,-1
 510 602 l 1,8,-1
 510 994 l 1,9,-1
 634 994 l 1,10,-1
 634 602 l 1,11,-1
 1039 602 l 1,0,-1
EndSplineSet
EndChar

StartChar: equal
Encoding: 61 61 83
Width: 1164
Flags: W
HStem: 297 117<119 1047> 673 118<119 1047>
LayerCount: 2
Fore
SplineSet
1047 791 m 1,0,-1
 1047 673 l 1,1,-1
 119 673 l 1,2,-1
 119 791 l 1,3,-1
 1047 791 l 1,0,-1
1047 414 m 1,4,-1
 1047 297 l 1,5,-1
 119 297 l 1,6,-1
 119 414 l 1,7,-1
 1047 414 l 1,4,-1
EndSplineSet
EndChar

StartChar: acute
Encoding: 180 180 84
Width: 562
Flags: W
HStem: 914 257
VStem: 125 346
LayerCount: 2
Fore
SplineSet
125 914 m 1,0,-1
 264 1171 l 1,1,-1
 471 1171 l 1,2,-1
 224 914 l 1,3,-1
 125 914 l 1,0,-1
EndSplineSet
EndChar

StartChar: grave
Encoding: 96 96 85
Width: 562
Flags: W
HStem: 914 257
VStem: 92 347
LayerCount: 2
Fore
SplineSet
340 914 m 1,0,-1
 92 1171 l 1,1,-1
 299 1171 l 1,2,-1
 439 914 l 1,3,-1
 340 914 l 1,0,-1
EndSplineSet
EndChar

StartChar: circumflex
Encoding: 710 710 86
Width: 593
Flags: W
HStem: 912 255
VStem: 38 517
LayerCount: 2
Fore
SplineSet
38 912 m 1,0,-1
 196 1167 l 1,1,-1
 391 1167 l 1,2,-1
 555 912 l 1,3,-1
 447 912 l 1,4,-1
 294 1062 l 1,5,-1
 141 912 l 1,6,-1
 38 912 l 1,0,-1
EndSplineSet
EndChar

StartChar: caron
Encoding: 711 711 87
Width: 593
Flags: W
HStem: 912 259
VStem: 38 517
LayerCount: 2
Fore
SplineSet
145 1171 m 1,0,-1
 299 1017 l 1,1,-1
 451 1171 l 1,2,-1
 555 1171 l 1,3,-1
 396 912 l 1,4,-1
 200 912 l 1,5,-1
 38 1171 l 1,6,-1
 145 1171 l 1,0,-1
EndSplineSet
EndChar

StartChar: breve
Encoding: 728 728 88
Width: 584
Flags: W
HStem: 925 105<186.995 396.169> 1138 20G<34 149 435 550>
VStem: 34 110<1067.24 1158> 439 111<1067.24 1158>
LayerCount: 2
Fore
SplineSet
144 1158 m 1,0,1
 154 1098 154 1098 191.5 1064 c 128,-1,2
 229 1030 229 1030 292 1030 c 0,3,4
 352 1030 352 1030 391.5 1064 c 128,-1,5
 431 1098 431 1098 439 1158 c 1,6,-1
 550 1158 l 1,7,8
 545 1106 545 1106 524.5 1063 c 128,-1,9
 504 1020 504 1020 470 989.5 c 128,-1,10
 436 959 436 959 391 942 c 128,-1,11
 346 925 346 925 292 925 c 256,12,13
 238 925 238 925 192.5 941.5 c 128,-1,14
 147 958 147 958 113.5 989 c 128,-1,15
 80 1020 80 1020 59 1062.5 c 128,-1,16
 38 1105 38 1105 34 1158 c 1,17,-1
 144 1158 l 1,0,1
EndSplineSet
EndChar

StartChar: dotaccent
Encoding: 729 729 89
Width: 535
Flags: W
HStem: 950 175<204.331 347.359>
VStem: 177 182<962.403 1099.22>
LayerCount: 2
Fore
SplineSet
268 1125 m 0,0,1
 287 1125 287 1125 303.5 1118.5 c 128,-1,2
 320 1112 320 1112 332.5 1100 c 128,-1,3
 345 1088 345 1088 352 1072 c 128,-1,4
 359 1056 359 1056 359 1038 c 256,5,6
 359 1020 359 1020 352 1004 c 128,-1,7
 345 988 345 988 332.5 976 c 128,-1,8
 320 964 320 964 303.5 957 c 128,-1,9
 287 950 287 950 268 950 c 256,10,11
 249 950 249 950 232.5 957 c 128,-1,12
 216 964 216 964 203.5 976 c 128,-1,13
 191 988 191 988 184 1004 c 128,-1,14
 177 1020 177 1020 177 1038 c 0,15,16
 177 1075 177 1075 203.5 1100 c 128,-1,17
 230 1125 230 1125 268 1125 c 0,0,1
EndSplineSet
EndChar

StartChar: dieresis
Encoding: 168 168 90
Width: 572
Flags: W
HStem: 953 174<70.3312 198.185 373.815 517.893>
VStem: 43 182<978.784 1100.7> 347 182<978.784 1114.66>
LayerCount: 2
Fore
SplineSet
437 1127 m 256,0,1
 456 1127 456 1127 473 1120 c 128,-1,2
 490 1113 490 1113 502.5 1101.5 c 128,-1,3
 515 1090 515 1090 522 1074 c 128,-1,4
 529 1058 529 1058 529 1040 c 256,5,6
 529 1022 529 1022 522 1006 c 128,-1,7
 515 990 515 990 502.5 978 c 128,-1,8
 490 966 490 966 473 959.5 c 128,-1,9
 456 953 456 953 437 953 c 0,10,11
 399 953 399 953 373 978 c 128,-1,12
 347 1003 347 1003 347 1040 c 0,13,14
 347 1058 347 1058 354 1074 c 128,-1,15
 361 1090 361 1090 373 1101.5 c 128,-1,16
 385 1113 385 1113 401.5 1120 c 128,-1,17
 418 1127 418 1127 437 1127 c 256,0,1
135 1127 m 0,18,19
 154 1127 154 1127 170.5 1120 c 128,-1,20
 187 1113 187 1113 199 1101.5 c 128,-1,21
 211 1090 211 1090 218 1074 c 128,-1,22
 225 1058 225 1058 225 1040 c 0,23,24
 225 1003 225 1003 199 978 c 128,-1,25
 173 953 173 953 135 953 c 0,26,27
 96 953 96 953 69.5 978 c 128,-1,28
 43 1003 43 1003 43 1040 c 0,29,30
 43 1076 43 1076 69.5 1101.5 c 128,-1,31
 96 1127 96 1127 135 1127 c 0,18,19
EndSplineSet
EndChar

StartChar: ring
Encoding: 730 730 91
Width: 565
Flags: W
HStem: 881 62<205.595 358.151> 1140 61<205.595 358.42>
VStem: 114 63<970.956 1112.47> 386 65<969.452 1113.94>
LayerCount: 2
Fore
SplineSet
282 1201 m 256,0,1
 317 1201 317 1201 348 1189 c 128,-1,2
 379 1177 379 1177 402 1155.5 c 128,-1,3
 425 1134 425 1134 438 1105 c 128,-1,4
 451 1076 451 1076 451 1042 c 256,5,6
 451 1008 451 1008 438 978.5 c 128,-1,7
 425 949 425 949 402 927.5 c 128,-1,8
 379 906 379 906 348 893.5 c 128,-1,9
 317 881 317 881 282 881 c 256,10,11
 247 881 247 881 216 893.5 c 128,-1,12
 185 906 185 906 162.5 927.5 c 128,-1,13
 140 949 140 949 127 978.5 c 128,-1,14
 114 1008 114 1008 114 1042 c 256,15,16
 114 1076 114 1076 127 1105 c 128,-1,17
 140 1134 140 1134 162.5 1155.5 c 128,-1,18
 185 1177 185 1177 216 1189 c 128,-1,19
 247 1201 247 1201 282 1201 c 256,0,1
282 1140 m 256,20,21
 260 1140 260 1140 241 1132.5 c 128,-1,22
 222 1125 222 1125 207.5 1112 c 128,-1,23
 193 1099 193 1099 185 1081 c 128,-1,24
 177 1063 177 1063 177 1042 c 256,25,26
 177 1021 177 1021 185 1003 c 128,-1,27
 193 985 193 985 207.5 971.5 c 128,-1,28
 222 958 222 958 241 950.5 c 128,-1,29
 260 943 260 943 282 943 c 256,30,31
 304 943 304 943 323 950.5 c 128,-1,32
 342 958 342 958 356 971.5 c 128,-1,33
 370 985 370 985 378 1003 c 128,-1,34
 386 1021 386 1021 386 1042 c 256,35,36
 386 1063 386 1063 378 1081 c 128,-1,37
 370 1099 370 1099 356 1112 c 128,-1,38
 342 1125 342 1125 323 1132.5 c 128,-1,39
 304 1140 304 1140 282 1140 c 256,20,21
EndSplineSet
EndChar

StartChar: Lslash
Encoding: 321 321 92
Width: 923
Flags: W
HStem: 0 127<32 190 351 761> 785 20G<550.373 599> 1029 124<32 190 351 506>
VStem: 190 161<127 513 703 1026> 761 145<127 482>
LayerCount: 2
Fore
SplineSet
32 127 m 1,0,-1
 190 127 l 1,1,-1
 190 513 l 1,2,-1
 32 450 l 1,3,-1
 32 579 l 1,4,-1
 190 640 l 1,5,-1
 190 1029 l 1,6,-1
 32 1029 l 1,7,-1
 32 1153 l 1,8,-1
 506 1153 l 1,9,-1
 506 1026 l 1,10,-1
 351 1026 l 1,11,-1
 351 703 l 1,12,-1
 599 805 l 1,13,-1
 599 676 l 1,14,-1
 351 574 l 1,15,-1
 351 127 l 1,16,-1
 761 127 l 1,17,-1
 761 482 l 1,18,-1
 906 482 l 1,19,-1
 906 0 l 1,20,-1
 32 0 l 1,21,-1
 32 127 l 1,0,-1
EndSplineSet
EndChar

StartChar: Oslash
Encoding: 216 216 93
Width: 1371
Flags: W
HStem: -19 137<536.264 873.982> 1036 135<497.083 851.311>
VStem: 91 177<358.626 792.872> 1103 178<359.398 793.265>
LayerCount: 2
Fore
SplineSet
91 575 m 0,0,1
 91 700 91 700 132 809 c 128,-1,2
 173 918 173 918 249.5 998.5 c 128,-1,3
 326 1079 326 1079 436.5 1125 c 128,-1,4
 547 1171 547 1171 685 1171 c 0,5,6
 814 1171 814 1171 919 1130 c 1,7,-1
 973 1235 l 1,8,-1
 1067 1192 l 1,9,-1
 1013 1084 l 1,10,11
 1077 1045 1077 1045 1126.5 991 c 128,-1,12
 1176 937 1176 937 1210.5 872 c 128,-1,13
 1245 807 1245 807 1263 732 c 128,-1,14
 1281 657 1281 657 1281 575 c 0,15,16
 1281 451 1281 451 1240 342.5 c 128,-1,17
 1199 234 1199 234 1122 154 c 128,-1,18
 1045 74 1045 74 934.5 27.5 c 128,-1,19
 824 -19 824 -19 685 -19 c 0,20,21
 625 -19 625 -19 571.5 -10.5 c 128,-1,22
 518 -2 518 -2 470 15 c 1,23,-1
 415 -92 l 1,24,-1
 321 -49 l 1,25,-1
 374 57 l 1,26,27
 306 94 306 94 253.5 148 c 128,-1,28
 201 202 201 202 165 269 c 128,-1,29
 129 336 129 336 110 413.5 c 128,-1,30
 91 491 91 491 91 575 c 0,0,1
268 575 m 0,31,32
 268 454 268 454 314 355 c 128,-1,33
 360 256 360 256 444 194 c 1,34,-1
 854 1002 l 1,35,36
 777 1036 777 1036 685 1036 c 0,37,38
 590 1036 590 1036 513.5 1000 c 128,-1,39
 437 964 437 964 382 902 c 128,-1,40
 327 840 327 840 297.5 755.5 c 128,-1,41
 268 671 268 671 268 575 c 0,31,32
1103 575 m 0,42,43
 1103 690 1103 690 1061 787 c 128,-1,44
 1019 884 1019 884 943 947 c 1,45,-1
 535 144 l 1,46,47
 604 118 604 118 685 118 c 0,48,49
 780 118 780 118 857.5 154 c 128,-1,50
 935 190 935 190 989.5 252 c 128,-1,51
 1044 314 1044 314 1073.5 397 c 128,-1,52
 1103 480 1103 480 1103 575 c 0,42,43
EndSplineSet
EndChar

StartChar: lslash
Encoding: 322 322 94
Width: 505
Flags: W
HStem: 0 123<43 195 344 477> 1032 121<46 195>
VStem: 42 302<122 123 507 562 1032 1153> 195 149<123 507 696 1032>
LayerCount: 2
Fore
SplineSet
43 123 m 1,0,-1
 195 123 l 1,1,-1
 195 507 l 1,2,-1
 42 450 l 1,3,-1
 42 579 l 1,4,-1
 195 638 l 1,5,-1
 195 1032 l 1,6,-1
 46 1032 l 1,7,-1
 46 1153 l 1,8,-1
 344 1153 l 1,9,-1
 344 696 l 1,10,-1
 478 748 l 1,11,-1
 478 612 l 1,12,-1
 344 562 l 1,13,-1
 344 122 l 1,14,-1
 477 122 l 1,15,-1
 477 0 l 1,16,-1
 43 0 l 1,17,-1
 43 123 l 1,0,-1
EndSplineSet
EndChar

StartChar: oslash
Encoding: 248 248 95
Width: 994
Flags: W
HStem: -23 137<421.907 647.849> 691 136<345.605 585.754>
VStem: 71 159<233.722 570.995> 764 160<233.458 569.935>
LayerCount: 2
Fore
SplineSet
496 -23 m 0,0,1
 458 -23 458 -23 423 -17.5 c 128,-1,2
 388 -12 388 -12 356 -2 c 1,3,-1
 292 -126 l 1,4,-1
 198 -83 l 1,5,-1
 261 40 l 1,6,7
 216 68 216 68 180.5 107.5 c 128,-1,8
 145 147 145 147 120.5 193.5 c 128,-1,9
 96 240 96 240 83.5 293 c 128,-1,10
 71 346 71 346 71 402 c 0,11,12
 71 489 71 489 101 566 c 128,-1,13
 131 643 131 643 186.5 701 c 128,-1,14
 242 759 242 759 321 793 c 128,-1,15
 400 827 400 827 498 827 c 0,16,17
 583 827 583 827 651 802 c 1,18,-1
 715 926 l 1,19,-1
 809 883 l 1,20,-1
 744 756 l 1,21,22
 829 698 829 698 876.5 605 c 128,-1,23
 924 512 924 512 924 402 c 0,24,25
 924 315 924 315 894 238 c 128,-1,26
 864 161 864 161 808 103 c 128,-1,27
 752 45 752 45 673 11 c 128,-1,28
 594 -23 594 -23 496 -23 c 0,0,1
230 402 m 0,29,30
 230 330 230 330 255.5 270.5 c 128,-1,31
 281 211 281 211 328 171 c 1,32,-1
 587 677 l 1,33,34
 543 691 543 691 496 691 c 0,35,36
 435 691 435 691 385.5 669 c 128,-1,37
 336 647 336 647 301.5 608 c 128,-1,38
 267 569 267 569 248.5 516 c 128,-1,39
 230 463 230 463 230 402 c 0,29,30
496 114 m 0,40,41
 558 114 558 114 607.5 136 c 128,-1,42
 657 158 657 158 692 197 c 128,-1,43
 727 236 727 236 745.5 288.5 c 128,-1,44
 764 341 764 341 764 402 c 0,45,46
 764 470 764 470 741 527 c 128,-1,47
 718 584 718 584 676 623 c 1,48,-1
 421 123 l 1,49,50
 455 114 455 114 496 114 c 0,40,41
EndSplineSet
EndChar

StartChar: fi
Encoding: 64257 64257 96
Width: 1038
Flags: W
HStem: 0 122<64 184 335 497 575 710 860 996> 683 122<55 184 335 710> 980 175<719.331 863.359> 1071 115<359.085 476.858>
VStem: 184 151<123 683 805 1054.5> 481 128<1026.2 1068.5> 692 183<992.344 1128.7> 710 150<124 685>
LayerCount: 2
Fore
SplineSet
575 124 m 1,0,-1
 710 124 l 1,1,-1
 710 685 l 1,2,-1
 630 683 l 1,3,-1
 335 683 l 1,4,-1
 335 122 l 1,5,-1
 497 122 l 1,6,-1
 497 0 l 1,7,-1
 64 0 l 1,8,-1
 64 123 l 1,9,-1
 184 123 l 1,10,-1
 184 683 l 1,11,-1
 55 683 l 1,12,-1
 55 805 l 1,13,-1
 184 805 l 1,14,-1
 184 871 l 2,15,16
 184 896 184 896 184 916.5 c 128,-1,17
 184 937 184 937 185 938 c 1,18,19
 185 1000 185 1000 202 1046.5 c 128,-1,20
 219 1093 219 1093 249.5 1124 c 128,-1,21
 280 1155 280 1155 322.5 1170.5 c 128,-1,22
 365 1186 365 1186 417 1186 c 0,23,24
 493 1186 493 1186 545 1145 c 128,-1,25
 597 1104 597 1104 609 1029 c 1,26,-1
 481 1004 l 1,27,28
 474 1071 474 1071 424 1071 c 0,29,30
 388 1071 388 1071 369 1055 c 128,-1,31
 350 1039 350 1039 342 1006 c 128,-1,32
 334 973 334 973 333.5 923 c 128,-1,33
 333 873 333 873 335 805 c 1,34,-1
 860 805 l 1,35,-1
 860 122 l 1,36,-1
 996 122 l 1,37,-1
 996 0 l 1,38,-1
 575 0 l 1,39,-1
 575 124 l 1,0,-1
692 1067 m 0,40,41
 692 1104 692 1104 718.5 1129.5 c 128,-1,42
 745 1155 745 1155 783 1155 c 0,43,44
 802 1155 802 1155 819 1148 c 128,-1,45
 836 1141 836 1141 848.5 1129 c 128,-1,46
 861 1117 861 1117 868 1101 c 128,-1,47
 875 1085 875 1085 875 1067 c 256,48,49
 875 1049 875 1049 868 1033 c 128,-1,50
 861 1017 861 1017 848.5 1005.5 c 128,-1,51
 836 994 836 994 819 987 c 128,-1,52
 802 980 802 980 783 980 c 256,53,54
 764 980 764 980 747.5 987 c 128,-1,55
 731 994 731 994 718.5 1005.5 c 128,-1,56
 706 1017 706 1017 699 1033 c 128,-1,57
 692 1049 692 1049 692 1067 c 0,40,41
EndSplineSet
EndChar

StartChar: fl
Encoding: 64258 64258 97
Width: 1035
Flags: W
HStem: 0 122<64 184 335 497 574 726 875 1008> 683 122<55 184 335 488> 1052 134<361.391 691.658>
VStem: 64 433<0 122 683 805> 184 151<123 683 805 1031.46> 726 149<123 1035.4>
LayerCount: 2
Fore
SplineSet
64 123 m 1,0,-1
 184 123 l 1,1,-1
 184 683 l 1,2,-1
 55 683 l 1,3,-1
 55 805 l 1,4,-1
 184 805 l 1,5,-1
 185 869 l 1,6,7
 185 958 185 958 202.5 1018.5 c 128,-1,8
 220 1079 220 1079 250.5 1116.5 c 128,-1,9
 281 1154 281 1154 323 1170 c 128,-1,10
 365 1186 365 1186 415 1186 c 0,11,12
 466 1186 466 1186 523 1177.5 c 128,-1,13
 580 1169 580 1169 639.5 1154.5 c 128,-1,14
 699 1140 699 1140 759 1121.5 c 128,-1,15
 819 1103 819 1103 875 1084 c 1,16,-1
 875 122 l 1,17,-1
 1008 122 l 1,18,-1
 1008 0 l 1,19,-1
 574 0 l 1,20,-1
 574 123 l 1,21,-1
 726 123 l 1,22,-1
 726 1032 l 1,23,24
 624 1040 624 1040 556 1046 c 128,-1,25
 488 1052 488 1052 444 1052 c 0,26,27
 411 1052 411 1052 390 1039.5 c 128,-1,28
 369 1027 369 1027 357 998 c 128,-1,29
 345 969 345 969 340 921.5 c 128,-1,30
 335 874 335 874 335 805 c 1,31,-1
 488 805 l 1,32,-1
 488 683 l 1,33,-1
 335 683 l 1,34,-1
 335 122 l 1,35,-1
 497 122 l 1,36,-1
 497 0 l 1,37,-1
 64 0 l 1,38,-1
 64 123 l 1,0,-1
EndSplineSet
EndChar

StartChar: K
Encoding: 75 75 99
Width: 1102
Flags: W
HStem: 0 127<38 188 349 488 629 757 964 1095> 1026 127<38 188 349 504 633 769 955 1084>
VStem: 188 161<127 587 618 1026>
LayerCount: 2
Fore
SplineSet
629 126 m 1,0,-1
 757 127 l 1,1,-1
 545 366 l 1,2,-1
 348 587 l 1,3,-1
 349 127 l 1,4,-1
 488 126 l 1,5,-1
 488 0 l 1,6,-1
 38 0 l 1,7,-1
 38 125 l 1,8,-1
 188 127 l 1,9,-1
 186 577 l 1,10,-1
 188 1026 l 1,11,-1
 38 1029 l 1,12,-1
 38 1153 l 1,13,-1
 504 1153 l 1,14,-1
 504 1027 l 1,15,-1
 349 1026 l 1,16,-1
 348 618 l 1,17,-1
 557 820 l 1,18,-1
 769 1026 l 1,19,-1
 633 1027 l 1,20,-1
 633 1153 l 1,21,-1
 1084 1153 l 1,22,-1
 1084 1029 l 1,23,-1
 955 1026 l 1,24,-1
 733 803 l 1,25,-1
 534 605 l 1,26,-1
 964 127 l 1,27,-1
 1095 125 l 1,28,-1
 1095 0 l 1,29,-1
 629 0 l 1,30,-1
 629 126 l 1,0,-1
EndSplineSet
EndChar

StartChar: Q
Encoding: 81 81 100
Width: 1371
Flags: W
HStem: -233 145<852.633 1046> -100 109<408.843 537> 1036 135<497.083 873.982>
VStem: 91 177<355.895 792.872> 1103 178<355.449 794.095>
LayerCount: 2
Fore
SplineSet
91 575 m 0,0,1
 91 700 91 700 132 809 c 128,-1,2
 173 918 173 918 249.5 998.5 c 128,-1,3
 326 1079 326 1079 436.5 1125 c 128,-1,4
 547 1171 547 1171 685 1171 c 0,5,6
 824 1171 824 1171 934.5 1124.5 c 128,-1,7
 1045 1078 1045 1078 1122 997.5 c 128,-1,8
 1199 917 1199 917 1240 808 c 128,-1,9
 1281 699 1281 699 1281 575 c 0,10,11
 1281 462 1281 462 1244.5 362 c 128,-1,12
 1208 262 1208 262 1139.5 184.5 c 128,-1,13
 1071 107 1071 107 972.5 57.5 c 128,-1,14
 874 8 874 8 750 -5 c 1,15,16
 787 -17 787 -17 823 -31.5 c 128,-1,17
 859 -46 859 -46 895 -58.5 c 128,-1,18
 931 -71 931 -71 968.5 -79.5 c 128,-1,19
 1006 -88 1006 -88 1045 -88 c 0,20,21
 1075 -88 1075 -88 1104 -80 c 1,22,-1
 1046 -228 l 1,23,24
 1033 -231 1033 -231 1020 -232 c 128,-1,25
 1007 -233 1007 -233 994 -233 c 0,26,27
 958 -233 958 -233 925 -223 c 128,-1,28
 892 -213 892 -213 860.5 -198.5 c 128,-1,29
 829 -184 829 -184 798 -166.5 c 128,-1,30
 767 -149 767 -149 736 -134.5 c 128,-1,31
 705 -120 705 -120 672.5 -110 c 128,-1,32
 640 -100 640 -100 605 -100 c 0,33,34
 544 -100 544 -100 491 -114 c 128,-1,35
 438 -128 438 -128 393 -153 c 1,36,-1
 342 -46 l 1,37,38
 402 -15 402 -15 449.5 -3 c 128,-1,39
 497 9 497 9 537 9 c 1,40,41
 432 33 432 33 349 86 c 128,-1,42
 266 139 266 139 208.5 213 c 128,-1,43
 151 287 151 287 121 379.5 c 128,-1,44
 91 472 91 472 91 575 c 0,0,1
268 575 m 0,45,46
 268 478 268 478 297.5 393.5 c 128,-1,47
 327 309 327 309 382 247 c 128,-1,48
 437 185 437 185 513.5 149 c 128,-1,49
 590 113 590 113 685 113 c 256,50,51
 780 113 780 113 857.5 149 c 128,-1,52
 935 185 935 185 989.5 247 c 128,-1,53
 1044 309 1044 309 1073.5 393.5 c 128,-1,54
 1103 478 1103 478 1103 575 c 0,55,56
 1103 671 1103 671 1073.5 755.5 c 128,-1,57
 1044 840 1044 840 989.5 902 c 128,-1,58
 935 964 935 964 857.5 1000 c 128,-1,59
 780 1036 780 1036 685 1036 c 256,60,61
 590 1036 590 1036 513.5 1000 c 128,-1,62
 437 964 437 964 382 902 c 128,-1,63
 327 840 327 840 297.5 755.5 c 128,-1,64
 268 671 268 671 268 575 c 0,45,46
EndSplineSet
EndChar

StartChar: at
Encoding: 64 64 101
Width: 1650
Flags: W
HStem: -348 109<589.278 1180.05> -1 113<589.574 826.924 1064.5 1234.01> 808 111<682.664 940.358> 1149 112<613.162 1126.65>
VStem: 62 107<160.242 693.029> 364 143<201.365 579.236> 1471 108<382.433 818.697>
LayerCount: 2
Fore
SplineSet
888 -348 m 0,0,1
 685 -348 685 -348 530.5 -290.5 c 128,-1,2
 376 -233 376 -233 272 -131 c 128,-1,3
 168 -29 168 -29 115 111 c 128,-1,4
 62 251 62 251 62 415 c 0,5,6
 62 507 62 507 81.5 605 c 128,-1,7
 101 703 101 703 142.5 797 c 128,-1,8
 184 891 184 891 249 975.5 c 128,-1,9
 314 1060 314 1060 404.5 1123.5 c 128,-1,10
 495 1187 495 1187 612.5 1224 c 128,-1,11
 730 1261 730 1261 876 1261 c 0,12,13
 1047 1261 1047 1261 1178.5 1206 c 128,-1,14
 1310 1151 1310 1151 1399 1059 c 128,-1,15
 1488 967 1488 967 1533.5 848 c 128,-1,16
 1579 729 1579 729 1579 601 c 0,17,18
 1579 521 1579 521 1559.5 445 c 128,-1,19
 1540 369 1540 369 1506 302 c 128,-1,20
 1472 235 1472 235 1425 179 c 128,-1,21
 1378 123 1378 123 1323 82.5 c 128,-1,22
 1268 42 1268 42 1207.5 19.5 c 128,-1,23
 1147 -3 1147 -3 1085 -3 c 0,24,25
 1044 -3 1044 -3 1014.5 9 c 128,-1,26
 985 21 985 21 971 50 c 1,27,28
 959 65 959 65 952 85.5 c 128,-1,29
 945 106 945 106 945 135 c 2,30,-1
 945 145 l 1,31,32
 943 143 943 143 941 141 c 128,-1,33
 939 139 939 139 937 137 c 0,34,35
 878 69 878 69 810 34 c 128,-1,36
 742 -1 742 -1 672 -1 c 0,37,38
 606 -1 606 -1 549.5 27.5 c 128,-1,39
 493 56 493 56 452 106.5 c 128,-1,40
 411 157 411 157 387.5 226.5 c 128,-1,41
 364 296 364 296 364 378 c 0,42,43
 364 442 364 442 379.5 507.5 c 128,-1,44
 395 573 395 573 423.5 633 c 128,-1,45
 452 693 452 693 492 745 c 128,-1,46
 532 797 532 797 581.5 836 c 128,-1,47
 631 875 631 875 688 897 c 128,-1,48
 745 919 745 919 808 919 c 0,49,50
 974 919 974 919 1068 759 c 1,51,-1
 1098 897 l 1,52,-1
 1237 897 l 1,53,-1
 1088 205 l 1,54,55
 1084 193 1084 193 1084 181 c 0,56,57
 1084 154 1084 154 1098.5 138 c 128,-1,58
 1113 122 1113 122 1137 122 c 0,59,60
 1160 122 1160 122 1194 136 c 128,-1,61
 1228 150 1228 150 1265 177 c 128,-1,62
 1302 204 1302 204 1339 245 c 128,-1,63
 1376 286 1376 286 1405 339 c 128,-1,64
 1434 392 1434 392 1452.5 458 c 128,-1,65
 1471 524 1471 524 1471 602 c 0,66,67
 1471 708 1471 708 1432 807 c 128,-1,68
 1393 906 1393 906 1317 982 c 128,-1,69
 1241 1058 1241 1058 1129 1103.5 c 128,-1,70
 1017 1149 1017 1149 870 1149 c 0,71,72
 718 1149 718 1149 589.5 1095 c 128,-1,73
 461 1041 461 1041 367.5 944 c 128,-1,74
 274 847 274 847 221.5 714 c 128,-1,75
 169 581 169 581 169 423 c 0,76,77
 169 275 169 275 216 153 c 128,-1,78
 263 31 263 31 354.5 -56 c 128,-1,79
 446 -143 446 -143 580 -191 c 128,-1,80
 714 -239 714 -239 888 -239 c 0,81,82
 1081 -239 1081 -239 1233 -175 c 128,-1,83
 1385 -111 1385 -111 1484 23 c 1,84,-1
 1619 23 l 1,85,86
 1565 -62 1565 -62 1494.5 -130.5 c 128,-1,87
 1424 -199 1424 -199 1334 -247.5 c 128,-1,88
 1244 -296 1244 -296 1133 -322 c 128,-1,89
 1022 -348 1022 -348 888 -348 c 0,0,1
1022 563 m 0,90,91
 1022 618 1022 618 1007 663 c 128,-1,92
 992 708 992 708 965 740 c 128,-1,93
 938 772 938 772 900 790 c 128,-1,94
 862 808 862 808 816 808 c 0,95,96
 762 808 762 808 718 785 c 128,-1,97
 674 762 674 762 640 725 c 128,-1,98
 606 688 606 688 580.5 640.5 c 128,-1,99
 555 593 555 593 539 544 c 128,-1,100
 523 495 523 495 515 448 c 128,-1,101
 507 401 507 401 507 366 c 0,102,103
 507 312 507 312 522 265.5 c 128,-1,104
 537 219 537 219 563 185 c 128,-1,105
 589 151 589 151 625.5 131.5 c 128,-1,106
 662 112 662 112 704 112 c 0,107,108
 769 112 769 112 827 153 c 128,-1,109
 885 194 885 194 928.5 259 c 128,-1,110
 972 324 972 324 997 404 c 128,-1,111
 1022 484 1022 484 1022 563 c 0,90,91
EndSplineSet
EndChar

StartChar: comma
Encoding: 44 44 102
Width: 554
Flags: W
HStem: -237 87<151 230.499> 0 212<151 257>
VStem: 151 212<0 212> 257 106<-124.118 0>
LayerCount: 2
Fore
SplineSet
151 212 m 1,0,-1
 363 212 l 1,1,-1
 363 0 l 2,2,3
 363 -57 363 -57 352 -101.5 c 128,-1,4
 341 -146 341 -146 316 -176 c 128,-1,5
 291 -206 291 -206 250.5 -221.5 c 128,-1,6
 210 -237 210 -237 151 -237 c 1,7,-1
 151 -150 l 1,8,9
 179 -143 179 -143 199.5 -132.5 c 128,-1,10
 220 -122 220 -122 232.5 -104.5 c 128,-1,11
 245 -87 245 -87 251 -61.5 c 128,-1,12
 257 -36 257 -36 257 0 c 1,13,-1
 151 0 l 1,14,-1
 151 212 l 1,0,-1
EndSplineSet
EndChar

StartChar: hyphen
Encoding: 45 45 103
Width: 623
Flags: W
HStem: 340 144<54 571>
VStem: 54 517<340 484>
LayerCount: 2
Fore
SplineSet
54 484 m 1,0,-1
 571 484 l 1,1,-1
 571 340 l 1,2,-1
 54 340 l 1,3,-1
 54 484 l 1,0,-1
EndSplineSet
EndChar

StartChar: asterisk
Encoding: 42 42 104
Width: 918
Flags: W
VStem: 380 156<1013.74 1215>
LayerCount: 2
Fore
SplineSet
291 458 m 1,0,-1
 162 550 l 1,1,-1
 250 671 l 1,2,-1
 410 807 l 1,3,-1
 199 820 l 1,4,-1
 60 869 l 1,5,-1
 106 1020 l 1,6,-1
 250 974 l 1,7,-1
 435 857 l 1,8,-1
 380 1069 l 1,9,-1
 380 1215 l 1,10,-1
 536 1215 l 1,11,-1
 536 1069 l 1,12,-1
 481 857 l 1,13,-1
 666 974 l 1,14,-1
 810 1020 l 1,15,-1
 856 869 l 1,16,-1
 717 820 l 1,17,-1
 506 807 l 1,18,-1
 666 671 l 1,19,-1
 754 550 l 1,20,-1
 625 458 l 1,21,-1
 536 580 l 1,22,-1
 458 778 l 1,23,-1
 380 580 l 1,24,-1
 291 458 l 1,0,-1
EndSplineSet
EndChar

StartChar: dollar
Encoding: 36 36 105
Width: 955
Flags: W
HStem: -9 130<285.368 403 534 657.517> 1043 127<294.15 403>
VStem: 52 149<206.9 354> 84 140<739.776 977.266> 403 131<-151 -4.86938 123 507 676 1035 1164.67 1293> 690 134<798 960.753> 736 136<190.77 435.821>
LayerCount: 2
Fore
SplineSet
403 -9 m 1,0,1
 331 -5 331 -5 267 19 c 128,-1,2
 203 43 203 43 155 87.5 c 128,-1,3
 107 132 107 132 79.5 198.5 c 128,-1,4
 52 265 52 265 52 354 c 1,5,-1
 201 354 l 1,6,7
 209 247 209 247 256.5 192 c 128,-1,8
 304 137 304 137 403 121 c 1,9,-1
 403 538 l 1,10,11
 333 556 333 556 274.5 583 c 128,-1,12
 216 610 216 610 173.5 647.5 c 128,-1,13
 131 685 131 685 107.5 735 c 128,-1,14
 84 785 84 785 84 849 c 0,15,16
 84 987 84 987 167 1071.5 c 128,-1,17
 250 1156 250 1156 403 1170 c 1,18,-1
 403 1293 l 1,19,-1
 534 1293 l 1,20,-1
 534 1170 l 1,21,22
 599 1163 599 1163 652.5 1139.5 c 128,-1,23
 706 1116 706 1116 744 1075 c 128,-1,24
 782 1034 782 1034 803 975.5 c 128,-1,25
 824 917 824 917 824 840 c 0,26,27
 824 829 824 829 824 819.5 c 128,-1,28
 824 810 824 810 822 798 c 1,29,-1
 690 798 l 1,30,31
 690 907 690 907 655 962.5 c 128,-1,32
 620 1018 620 1018 534 1035 c 1,33,-1
 534 642 l 1,34,35
 607 624 607 624 669 600.5 c 128,-1,36
 731 577 731 577 776 540.5 c 128,-1,37
 821 504 821 504 846.5 451 c 128,-1,38
 872 398 872 398 872 321 c 0,39,40
 872 178 872 178 784 92 c 128,-1,41
 696 6 696 6 534 -9 c 1,42,-1
 534 -151 l 1,43,-1
 403 -151 l 1,44,-1
 403 -9 l 1,0,1
403 1043 m 1,45,46
 318 1029 318 1029 271 980.5 c 128,-1,47
 224 932 224 932 224 857 c 0,48,49
 224 820 224 820 234 792 c 128,-1,50
 244 764 244 764 266 742.5 c 128,-1,51
 288 721 288 721 321.5 705 c 128,-1,52
 355 689 355 689 403 676 c 1,53,-1
 403 1043 l 1,45,46
534 123 m 1,54,55
 637 140 637 140 686.5 185 c 128,-1,56
 736 230 736 230 736 307 c 0,57,58
 736 350 736 350 725 382 c 128,-1,59
 714 414 714 414 690 437.5 c 128,-1,60
 666 461 666 461 627.5 478 c 128,-1,61
 589 495 589 495 534 507 c 1,62,-1
 534 123 l 1,54,55
EndSplineSet
EndChar

StartChar: percent
Encoding: 37 37 106
Width: 1707
Flags: W
HStem: -27 108<1254.74 1416.23> 0 21G<317 460.769> 486 109<1254.74 1416.23> 592 107<289.183 449.493> 1104 109<288.735 450.846>
VStem: 120 139<738.154 1065.25> 481 139<727.415 1065.25> 1087 138<119.471 447.249> 1447 140<119.471 447.249>
LayerCount: 2
Fore
SplineSet
1587 284 m 256,0,1
 1587 213 1587 213 1569.5 155.5 c 128,-1,2
 1552 98 1552 98 1519 57.5 c 128,-1,3
 1486 17 1486 17 1439.5 -5 c 128,-1,4
 1393 -27 1393 -27 1336 -27 c 256,5,6
 1279 -27 1279 -27 1232.5 -5 c 128,-1,7
 1186 17 1186 17 1154 57.5 c 128,-1,8
 1122 98 1122 98 1104.5 155.5 c 128,-1,9
 1087 213 1087 213 1087 284 c 256,10,11
 1087 355 1087 355 1104.5 412.5 c 128,-1,12
 1122 470 1122 470 1154 510.5 c 128,-1,13
 1186 551 1186 551 1232.5 573 c 128,-1,14
 1279 595 1279 595 1336 595 c 256,15,16
 1393 595 1393 595 1439.5 573 c 128,-1,17
 1486 551 1486 551 1519 510.5 c 128,-1,18
 1552 470 1552 470 1569.5 412.5 c 128,-1,19
 1587 355 1587 355 1587 284 c 256,0,1
1447 284 m 0,20,21
 1447 387 1447 387 1419.5 436.5 c 128,-1,22
 1392 486 1392 486 1336 486 c 0,23,24
 1279 486 1279 486 1252 436.5 c 128,-1,25
 1225 387 1225 387 1225 284 c 0,26,27
 1225 180 1225 180 1252 130.5 c 128,-1,28
 1279 81 1279 81 1336 81 c 0,29,30
 1392 81 1392 81 1419.5 130.5 c 128,-1,31
 1447 180 1447 180 1447 284 c 0,20,21
620 902 m 256,32,33
 620 831 620 831 602 774 c 128,-1,34
 584 717 584 717 551.5 676.5 c 128,-1,35
 519 636 519 636 473 614 c 128,-1,36
 427 592 427 592 370 592 c 256,37,38
 313 592 313 592 266.5 614 c 128,-1,39
 220 636 220 636 187.5 676.5 c 128,-1,40
 155 717 155 717 137.5 774 c 128,-1,41
 120 831 120 831 120 902 c 256,42,43
 120 973 120 973 137.5 1030.5 c 128,-1,44
 155 1088 155 1088 187.5 1128.5 c 128,-1,45
 220 1169 220 1169 266.5 1191 c 128,-1,46
 313 1213 313 1213 370 1213 c 256,47,48
 427 1213 427 1213 473 1191 c 128,-1,49
 519 1169 519 1169 551.5 1128.5 c 128,-1,50
 584 1088 584 1088 602 1030.5 c 128,-1,51
 620 973 620 973 620 902 c 256,32,33
481 902 m 0,52,53
 481 1005 481 1005 453.5 1054.5 c 128,-1,54
 426 1104 426 1104 370 1104 c 0,55,56
 313 1104 313 1104 286 1054.5 c 128,-1,57
 259 1005 259 1005 259 902 c 256,58,59
 259 799 259 799 286 749 c 128,-1,60
 313 699 313 699 370 699 c 0,61,62
 481 699 481 699 481 902 c 0,52,53
1267 1196 m 1,63,-1
 1388 1196 l 1,64,-1
 445 0 l 1,65,-1
 317 0 l 1,66,-1
 1267 1196 l 1,63,-1
EndSplineSet
EndChar

StartChar: ampersand
Encoding: 38 38 107
Width: 1192
Flags: W
HStem: -19 131<346.456 652.755> 0 128<970 1154> 496 127<1011.75 1154> 1090 125<432.705 654.544>
VStem: 67 154<238.372 521.72> 256 140<850.137 1057.21> 690 134<873.437 1057.85> 924 230<498.215 623>
LayerCount: 2
Fore
SplineSet
808 115 m 1,0,1
 727 46 727 46 648.5 13.5 c 128,-1,2
 570 -19 570 -19 482 -19 c 0,3,4
 393 -19 393 -19 317 11 c 128,-1,5
 241 41 241 41 185.5 93.5 c 128,-1,6
 130 146 130 146 98.5 218.5 c 128,-1,7
 67 291 67 291 67 375 c 0,8,9
 67 501 67 501 140.5 589 c 128,-1,10
 214 677 214 677 353 735 c 1,11,12
 307 796 307 796 281.5 848.5 c 128,-1,13
 256 901 256 901 256 956 c 0,14,15
 256 1010 256 1010 278.5 1057.5 c 128,-1,16
 301 1105 301 1105 340 1140 c 128,-1,17
 379 1175 379 1175 431.5 1195 c 128,-1,18
 484 1215 484 1215 544 1215 c 0,19,20
 603 1215 603 1215 654 1196 c 128,-1,21
 705 1177 705 1177 743 1143 c 128,-1,22
 781 1109 781 1109 802.5 1063.5 c 128,-1,23
 824 1018 824 1018 824 965 c 0,24,25
 824 920 824 920 809.5 881.5 c 128,-1,26
 795 843 795 843 763 808.5 c 128,-1,27
 731 774 731 774 680 743.5 c 128,-1,28
 629 713 629 713 557 686 c 1,29,-1
 817 332 l 1,30,31
 855 393 855 393 881.5 464 c 128,-1,32
 908 535 908 535 924 623 c 1,33,-1
 1154 623 l 1,34,-1
 1154 496 l 1,35,-1
 1025 496 l 1,36,37
 999 404 999 404 969 339.5 c 128,-1,38
 939 275 939 275 897 223 c 1,39,-1
 970 128 l 1,40,-1
 1154 128 l 1,41,-1
 1154 0 l 1,42,-1
 894 0 l 1,43,-1
 808 115 l 1,0,1
429 638 m 1,44,45
 326 595 326 595 273.5 532.5 c 128,-1,46
 221 470 221 470 221 385 c 0,47,48
 221 333 221 333 241.5 284 c 128,-1,49
 262 235 262 235 298.5 196.5 c 128,-1,50
 335 158 335 158 386 135 c 128,-1,51
 437 112 437 112 498 112 c 0,52,53
 625 112 625 112 731 219 c 1,54,-1
 429 638 l 1,44,45
485 785 m 1,55,56
 590 827 590 827 640 868.5 c 128,-1,57
 690 910 690 910 690 967 c 0,58,59
 690 1025 690 1025 648.5 1057.5 c 128,-1,60
 607 1090 607 1090 544 1090 c 0,61,62
 479 1090 479 1090 437.5 1056.5 c 128,-1,63
 396 1023 396 1023 396 963 c 0,64,65
 396 946 396 946 401.5 927.5 c 128,-1,66
 407 909 407 909 418.5 888 c 128,-1,67
 430 867 430 867 446.5 841.5 c 128,-1,68
 463 816 463 816 485 785 c 1,55,56
EndSplineSet
EndChar

StartChar: quotesingle
Encoding: 39 39 108
Width: 311
Flags: W
HStem: 746 450<111 203>
VStem: 86 141<850.081 1196>
LayerCount: 2
Fore
SplineSet
86 990 m 1,0,-1
 86 1196 l 1,1,-1
 227 1196 l 1,2,-1
 227 990 l 1,3,-1
 203 746 l 1,4,-1
 111 746 l 1,5,-1
 86 990 l 1,0,-1
EndSplineSet
EndChar

StartChar: quotedbl
Encoding: 34 34 109
Width: 715
Flags: W
HStem: 746 450<134 225 462 554>
VStem: 109 141<850.081 1196> 438 141<850.081 1196>
LayerCount: 2
Fore
SplineSet
109 990 m 1,0,-1
 109 1196 l 1,1,-1
 250 1196 l 1,2,-1
 250 990 l 1,3,-1
 225 746 l 1,4,-1
 134 746 l 1,5,-1
 109 990 l 1,0,-1
438 990 m 1,6,-1
 438 1196 l 1,7,-1
 579 1196 l 1,8,-1
 579 990 l 1,9,-1
 554 746 l 1,10,-1
 462 746 l 1,11,-1
 438 990 l 1,6,-1
EndSplineSet
EndChar

StartChar: four
Encoding: 52 52 110
Width: 955
Flags: W
HStem: 0 119<376 537 687 838> 329 128<217 537 687 879>
VStem: 537 150<127 329 457 963>
LayerCount: 2
Fore
SplineSet
376 119 m 1,0,-1
 537 127 l 1,1,-1
 537 329 l 1,2,-1
 129 329 l 1,3,-1
 59 456 l 1,4,-1
 548 1207 l 1,5,-1
 687 1207 l 1,6,-1
 687 457 l 1,7,-1
 879 457 l 1,8,-1
 879 329 l 1,9,-1
 687 329 l 1,10,-1
 687 127 l 1,11,-1
 838 119 l 1,12,-1
 838 0 l 1,13,-1
 376 0 l 1,14,-1
 376 119 l 1,0,-1
537 963 m 1,15,-1
 533 963 l 1,16,-1
 217 457 l 1,17,-1
 537 457 l 1,18,-1
 537 963 l 1,15,-1
EndSplineSet
EndChar

StartChar: semicolon
Encoding: 59 59 111
Width: 514
Flags: W
HStem: -237 87<151 230.499> 0 212<151 257> 620 212<151 363>
VStem: 151 212<0 212 620 832> 257 106<-124.118 0>
LayerCount: 2
Fore
SplineSet
151 212 m 1,0,-1
 363 212 l 1,1,-1
 363 0 l 2,2,3
 363 -57 363 -57 352 -101.5 c 128,-1,4
 341 -146 341 -146 316 -176 c 128,-1,5
 291 -206 291 -206 250.5 -221.5 c 128,-1,6
 210 -237 210 -237 151 -237 c 1,7,-1
 151 -150 l 1,8,9
 179 -143 179 -143 199.5 -132.5 c 128,-1,10
 220 -122 220 -122 232.5 -104.5 c 128,-1,11
 245 -87 245 -87 251 -61.5 c 128,-1,12
 257 -36 257 -36 257 0 c 1,13,-1
 151 0 l 1,14,-1
 151 212 l 1,0,-1
151 832 m 1,15,-1
 363 832 l 1,16,-1
 363 620 l 1,17,-1
 151 620 l 1,18,-1
 151 832 l 1,15,-1
EndSplineSet
EndChar

StartChar: greater
Encoding: 62 62 112
Width: 1175
Flags: W
LayerCount: 2
Fore
SplineSet
120 891 m 1,0,-1
 120 1019 l 1,1,-1
 1056 625 l 1,2,-1
 1056 518 l 1,3,-1
 120 124 l 1,4,-1
 120 252 l 1,5,-1
 899 572 l 1,6,-1
 120 891 l 1,0,-1
EndSplineSet
EndChar

StartChar: question
Encoding: 63 63 113
Width: 814
Flags: W
HStem: 0 197<276 448> 1094 121<257.11 528.789>
VStem: 50 135<849.187 1021.47> 276 172<0 197> 315 85<323 353.75 356.65 505.305> 593 141<783.23 1029.95>
LayerCount: 2
Fore
SplineSet
315 323 m 1,0,1
 315 331 315 331 314.5 338.5 c 128,-1,2
 314 346 314 346 314 354 c 0,3,4
 314 439 314 439 326 498 c 128,-1,5
 338 557 338 557 357.5 598 c 128,-1,6
 377 639 377 639 402 665 c 128,-1,7
 427 691 427 691 453.5 710.5 c 128,-1,8
 480 730 480 730 505 746.5 c 128,-1,9
 530 763 530 763 549.5 784.5 c 128,-1,10
 569 806 569 806 581 836 c 128,-1,11
 593 866 593 866 593 912 c 0,12,13
 593 953 593 953 577.5 986.5 c 128,-1,14
 562 1020 562 1020 535.5 1044 c 128,-1,15
 509 1068 509 1068 473 1081 c 128,-1,16
 437 1094 437 1094 397 1094 c 0,17,18
 297 1094 297 1094 241 1035 c 128,-1,19
 185 976 185 976 185 865 c 2,20,-1
 185 855 l 2,21,22
 185 852 185 852 186 849 c 1,23,-1
 52 849 l 1,24,25
 51 855 51 855 50.5 860.5 c 128,-1,26
 50 866 50 866 50 872 c 0,27,28
 50 965 50 965 80.5 1030.5 c 128,-1,29
 111 1096 111 1096 159.5 1137 c 128,-1,30
 208 1178 208 1178 270 1196.5 c 128,-1,31
 332 1215 332 1215 395 1215 c 0,32,33
 466 1215 466 1215 528 1193.5 c 128,-1,34
 590 1172 590 1172 635.5 1132.5 c 128,-1,35
 681 1093 681 1093 707.5 1037 c 128,-1,36
 734 981 734 981 734 912 c 0,37,38
 734 851 734 851 720.5 810 c 128,-1,39
 707 769 707 769 685 740 c 128,-1,40
 663 711 663 711 634 690 c 128,-1,41
 605 669 605 669 575 647.5 c 128,-1,42
 545 626 545 626 515 601.5 c 128,-1,43
 485 577 485 577 461 540 c 128,-1,44
 437 503 437 503 420.5 451 c 128,-1,45
 404 399 404 399 400 323 c 1,46,-1
 315 323 l 1,0,1
448 0 m 1,47,-1
 276 0 l 1,48,-1
 276 197 l 1,49,-1
 448 197 l 1,50,-1
 448 0 l 1,47,-1
EndSplineSet
EndChar

StartChar: hungarumlaut
Encoding: 733 733 114
Width: 587
Flags: W
HStem: 942 272
VStem: 15 592
LayerCount: 2
Fore
SplineSet
277 942 m 1,0,-1
 417 1214 l 1,1,-1
 607 1214 l 1,2,-1
 372 942 l 1,3,-1
 277 942 l 1,0,-1
15 942 m 1,4,-1
 156 1214 l 1,5,-1
 346 1214 l 1,6,-1
 111 942 l 1,7,-1
 15 942 l 1,4,-1
EndSplineSet
EndChar

StartChar: ogonek
Encoding: 731 731 115
Width: 587
Flags: W
HStem: -353 120<291.787 449.722> -20 20G<188 311>
VStem: 137 129<-205.15 -26.0156>
LayerCount: 2
Fore
SplineSet
311 0 m 1,0,1
 285 -36 285 -36 275.5 -65 c 128,-1,2
 266 -94 266 -94 266 -126 c 0,3,4
 266 -179 266 -179 291 -206 c 128,-1,5
 316 -233 316 -233 364 -233 c 0,6,7
 387 -233 387 -233 407 -228.5 c 128,-1,8
 427 -224 427 -224 451 -213 c 1,9,-1
 451 -316 l 1,10,11
 410 -336 410 -336 381 -344.5 c 128,-1,12
 352 -353 352 -353 317 -353 c 0,13,14
 278 -353 278 -353 245 -340 c 128,-1,15
 212 -327 212 -327 188 -304 c 128,-1,16
 164 -281 164 -281 150.5 -248.5 c 128,-1,17
 137 -216 137 -216 137 -177 c 0,18,19
 137 -157 137 -157 140 -138 c 128,-1,20
 143 -119 143 -119 149.5 -98 c 128,-1,21
 156 -77 156 -77 167.5 -53 c 128,-1,22
 179 -29 179 -29 197 0 c 1,23,-1
 311 0 l 1,0,1
EndSplineSet
EndChar

StartChar: Euro
Encoding: 8364 8364 116
Width: 948
Flags: W
HStem: -19 123<444.313 701.574> 430 114<46 152 310 634> 658 113<46 153 308 634> 1095 119<432.925 692.358>
VStem: 151 148<290.434 430 544 658 771 925.604> 786 129<866 992.391 1111 1203> 808 129<225.897 281.446>
LayerCount: 2
Fore
SplineSet
580 -19 m 0,0,1
 484 -19 484 -19 411.5 13 c 128,-1,2
 339 45 339 45 287.5 103.5 c 128,-1,3
 236 162 236 162 204.5 245 c 128,-1,4
 173 328 173 328 161 430 c 1,5,-1
 46 430 l 1,6,-1
 46 544 l 1,7,-1
 152 544 l 1,8,9
 152 546 152 546 152 554 c 128,-1,10
 152 562 152 562 151.5 570.5 c 128,-1,11
 151 579 151 579 151 586.5 c 128,-1,12
 151 594 151 594 151 596 c 0,13,14
 151 616 151 616 151 631.5 c 128,-1,15
 151 647 151 647 153 658 c 1,16,-1
 46 658 l 1,17,-1
 46 771 l 1,18,-1
 161 771 l 1,19,20
 173 870 173 870 203 951.5 c 128,-1,21
 233 1033 233 1033 283.5 1091.5 c 128,-1,22
 334 1150 334 1150 405.5 1182 c 128,-1,23
 477 1214 477 1214 571 1214 c 0,24,25
 643 1214 643 1214 697 1188 c 128,-1,26
 751 1162 751 1162 786 1111 c 1,27,-1
 786 1203 l 1,28,-1
 915 1203 l 1,29,-1
 915 866 l 1,30,-1
 786 866 l 1,31,32
 778 917 778 917 759 959 c 128,-1,33
 740 1001 740 1001 712 1031.5 c 128,-1,34
 684 1062 684 1062 648.5 1078.5 c 128,-1,35
 613 1095 613 1095 572 1095 c 0,36,37
 510 1095 510 1095 464 1070.5 c 128,-1,38
 418 1046 418 1046 386 1003 c 128,-1,39
 354 960 354 960 335 900.5 c 128,-1,40
 316 841 316 841 308 771 c 1,41,-1
 634 771 l 1,42,-1
 634 658 l 1,43,-1
 299 658 l 1,44,-1
 299 544 l 1,45,-1
 634 544 l 1,46,-1
 634 430 l 1,47,-1
 310 430 l 1,48,49
 319 361 319 361 340 301 c 128,-1,50
 361 241 361 241 394.5 197.5 c 128,-1,51
 428 154 428 154 475 129 c 128,-1,52
 522 104 522 104 585 104 c 0,53,54
 627 104 627 104 662 122 c 128,-1,55
 697 140 697 140 724.5 171 c 128,-1,56
 752 202 752 202 773 243.5 c 128,-1,57
 794 285 794 285 808 333 c 1,58,-1
 937 275 l 1,59,60
 920 210 920 210 889 156 c 128,-1,61
 858 102 858 102 813.5 63 c 128,-1,62
 769 24 769 24 710.5 2.5 c 128,-1,63
 652 -19 652 -19 580 -19 c 0,0,1
EndSplineSet
EndChar

StartChar: quotesinglbase
Encoding: 8218 8218 117
Width: 488
Flags: W
HStem: -233 81<152 220.569> 0 197<158 243>
VStem: 158 172<0 197> 243 87<-133.332 0>
LayerCount: 2
Fore
SplineSet
158 197 m 1,0,-1
 330 197 l 1,1,-1
 330 -9 l 2,2,3
 330 -61 330 -61 320.5 -102 c 128,-1,4
 311 -143 311 -143 290 -172 c 128,-1,5
 269 -201 269 -201 235 -216.5 c 128,-1,6
 201 -232 201 -232 152 -233 c 1,7,-1
 152 -152 l 1,8,9
 177 -148 177 -148 194 -138 c 128,-1,10
 211 -128 211 -128 221.5 -110.5 c 128,-1,11
 232 -93 232 -93 237 -66 c 128,-1,12
 242 -39 242 -39 243 0 c 1,13,-1
 158 0 l 1,14,-1
 158 197 l 1,0,-1
EndSplineSet
EndChar

StartChar: florin
Encoding: 402 402 118
Width: 972
Flags: W
HStem: -373 123<49.629 269.832> 806 107<333 477 638 799> 1152 130<690.308 910.567>
LayerCount: 2
Fore
SplineSet
56 -231 m 1,0,1
 100 -242 100 -242 129 -246 c 128,-1,2
 158 -250 158 -250 184 -250 c 0,3,4
 239 -250 239 -250 264.5 -221 c 128,-1,5
 290 -192 290 -192 301 -132 c 2,6,-1
 477 806 l 1,7,-1
 315 806 l 1,8,-1
 333 913 l 1,9,-1
 496 913 l 1,10,-1
 524 1047 l 1,11,12
 535 1105 535 1105 553 1149.5 c 128,-1,13
 571 1194 571 1194 599.5 1223 c 128,-1,14
 628 1252 628 1252 668 1267 c 128,-1,15
 708 1282 708 1282 763 1282 c 0,16,17
 800 1282 800 1282 843 1274.5 c 128,-1,18
 886 1267 886 1267 937 1250 c 1,19,-1
 912 1133 l 1,20,21
 866 1144 866 1144 836.5 1148 c 128,-1,22
 807 1152 807 1152 779 1152 c 0,23,24
 755 1152 755 1152 736.5 1146.5 c 128,-1,25
 718 1141 718 1141 704.5 1127 c 128,-1,26
 691 1113 691 1113 681.5 1089.5 c 128,-1,27
 672 1066 672 1066 665 1029 c 1,28,-1
 638 913 l 1,29,-1
 818 913 l 1,30,-1
 799 806 l 1,31,-1
 617 806 l 1,32,-1
 436 -149 l 2,33,34
 425 -209 425 -209 406.5 -251.5 c 128,-1,35
 388 -294 388 -294 360.5 -321 c 128,-1,36
 333 -348 333 -348 295.5 -360.5 c 128,-1,37
 258 -373 258 -373 208 -373 c 0,38,39
 133 -373 133 -373 29 -351 c 1,40,-1
 56 -231 l 1,0,1
EndSplineSet
EndChar

StartChar: quotedblbase
Encoding: 8222 8222 119
Width: 892
Flags: W
HStem: -233 81<144 213.723 541 609.569> 0 197<150 235 546 630>
VStem: 150 172<0 197> 235 87<-134.458 0> 546 172<0 197> 630 88<-135.578 0>
LayerCount: 2
Fore
SplineSet
546 197 m 1,0,-1
 718 197 l 1,1,-1
 718 -9 l 2,2,3
 718 -61 718 -61 709 -102 c 128,-1,4
 700 -143 700 -143 679 -172 c 128,-1,5
 658 -201 658 -201 624 -216.5 c 128,-1,6
 590 -232 590 -232 541 -233 c 1,7,-1
 541 -152 l 1,8,9
 566 -148 566 -148 583 -138 c 128,-1,10
 600 -128 600 -128 610.5 -110.5 c 128,-1,11
 621 -93 621 -93 625.5 -66 c 128,-1,12
 630 -39 630 -39 630 0 c 1,13,-1
 546 0 l 1,14,-1
 546 197 l 1,0,-1
150 197 m 1,15,-1
 322 197 l 1,16,-1
 322 -9 l 2,17,18
 322 -61 322 -61 312.5 -102 c 128,-1,19
 303 -143 303 -143 282 -172 c 128,-1,20
 261 -201 261 -201 227 -216.5 c 128,-1,21
 193 -232 193 -232 144 -233 c 1,22,-1
 144 -152 l 1,23,24
 169 -148 169 -148 186.5 -138 c 128,-1,25
 204 -128 204 -128 214.5 -110.5 c 128,-1,26
 225 -93 225 -93 229.5 -66 c 128,-1,27
 234 -39 234 -39 235 0 c 1,28,-1
 150 0 l 1,29,-1
 150 197 l 1,15,-1
EndSplineSet
EndChar

StartChar: quoteleft
Encoding: 8216 8216 120
Width: 488
Flags: W
HStem: 765 198<246 330> 1115 81<267.431 336>
VStem: 158 172<765 963> 158 88<963 1097.29>
LayerCount: 2
Fore
SplineSet
330 765 m 1,0,-1
 158 765 l 1,1,-1
 158 971 l 2,2,3
 158 1023 158 1023 167.5 1064.5 c 128,-1,4
 177 1106 177 1106 198 1135 c 128,-1,5
 219 1164 219 1164 253 1179.5 c 128,-1,6
 287 1195 287 1195 336 1196 c 1,7,-1
 336 1115 l 1,8,9
 311 1110 311 1110 294 1100.5 c 128,-1,10
 277 1091 277 1091 266.5 1073.5 c 128,-1,11
 256 1056 256 1056 251 1029 c 128,-1,12
 246 1002 246 1002 246 963 c 1,13,-1
 330 963 l 1,14,-1
 330 765 l 1,0,-1
EndSplineSet
EndChar

StartChar: quoteright
Encoding: 8217 8217 121
Width: 488
Flags: W
HStem: 765 82<152 219.712> 999 197<158 243>
VStem: 158 172<821.048 867.218 999 1196> 243 87<865.838 999>
LayerCount: 2
Fore
SplineSet
158 1196 m 1,0,-1
 330 1196 l 1,1,-1
 330 991 l 2,2,3
 330 886 330 886 290 826.5 c 128,-1,4
 250 767 250 767 152 765 c 1,5,-1
 152 847 l 1,6,7
 177 851 177 851 194 861 c 128,-1,8
 211 871 211 871 221.5 888.5 c 128,-1,9
 232 906 232 906 237 933 c 128,-1,10
 242 960 242 960 243 999 c 1,11,-1
 158 999 l 1,12,-1
 158 1196 l 1,0,-1
EndSplineSet
EndChar

StartChar: quotedblleft
Encoding: 8220 8220 122
Width: 892
Flags: W
HStem: 765 198<235 319 574 658> 1115 81<256.593 324 594.431 663>
VStem: 147 172<765 963> 147 88<963 1097.29> 486 172<765 963> 486 88<963 1098.42>
LayerCount: 2
Fore
SplineSet
658 963 m 1,0,-1
 658 765 l 1,1,-1
 486 765 l 1,2,-1
 486 971 l 2,3,4
 486 1023 486 1023 495 1064.5 c 128,-1,5
 504 1106 504 1106 525 1135 c 128,-1,6
 546 1164 546 1164 580 1179.5 c 128,-1,7
 614 1195 614 1195 663 1196 c 1,8,-1
 663 1115 l 1,9,10
 638 1110 638 1110 621 1100.5 c 128,-1,11
 604 1091 604 1091 593.5 1073.5 c 128,-1,12
 583 1056 583 1056 578.5 1029 c 128,-1,13
 574 1002 574 1002 574 963 c 1,14,-1
 658 963 l 1,0,-1
319 963 m 1,15,-1
 319 765 l 1,16,-1
 147 765 l 1,17,-1
 147 971 l 2,18,19
 147 1023 147 1023 156 1064.5 c 128,-1,20
 165 1106 165 1106 186 1135 c 128,-1,21
 207 1164 207 1164 241 1179.5 c 128,-1,22
 275 1195 275 1195 324 1196 c 1,23,-1
 324 1115 l 1,24,25
 299 1110 299 1110 282.5 1100.5 c 128,-1,26
 266 1091 266 1091 255.5 1073.5 c 128,-1,27
 245 1056 245 1056 240 1029 c 128,-1,28
 235 1002 235 1002 235 963 c 1,29,-1
 319 963 l 1,15,-1
EndSplineSet
EndChar

StartChar: quotedblright
Encoding: 8221 8221 123
Width: 892
Flags: W
HStem: 765 82<146 214.569 484 552.569> 999 197<151 236 490 574>
VStem: 151 172<999 1196> 236 87<864.542 999> 490 172<999 1196> 574 88<864.542 999>
LayerCount: 2
Fore
SplineSet
490 999 m 1,0,-1
 490 1196 l 1,1,-1
 662 1196 l 1,2,-1
 662 991 l 2,3,4
 662 938 662 938 652.5 897 c 128,-1,5
 643 856 643 856 622 827 c 128,-1,6
 601 798 601 798 567 782 c 128,-1,7
 533 766 533 766 484 765 c 1,8,-1
 484 847 l 1,9,10
 509 851 509 851 526 861 c 128,-1,11
 543 871 543 871 553.5 888.5 c 128,-1,12
 564 906 564 906 569 933 c 128,-1,13
 574 960 574 960 574 999 c 1,14,-1
 490 999 l 1,0,-1
151 999 m 1,15,-1
 151 1196 l 1,16,-1
 323 1196 l 1,17,-1
 323 991 l 2,18,19
 323 938 323 938 314 897 c 128,-1,20
 305 856 305 856 284 827 c 128,-1,21
 263 798 263 798 229 782 c 128,-1,22
 195 766 195 766 146 765 c 1,23,-1
 146 847 l 1,24,25
 171 851 171 851 188 861 c 128,-1,26
 205 871 205 871 215.5 888.5 c 128,-1,27
 226 906 226 906 231 933 c 128,-1,28
 236 960 236 960 236 999 c 1,29,-1
 151 999 l 1,15,-1
EndSplineSet
EndChar

StartChar: guilsinglleft
Encoding: 8249 8249 124
Width: 476
Flags: W
HStem: 0 21G<291.368 447>
VStem: 40 407
LayerCount: 2
Fore
SplineSet
447 0 m 1,0,-1
 304 0 l 1,1,-1
 40 418 l 1,2,-1
 304 837 l 1,3,-1
 447 837 l 1,4,-1
 189 418 l 1,5,-1
 447 0 l 1,0,-1
EndSplineSet
EndChar

StartChar: tilde
Encoding: 732 732 125
Width: 587
Flags: W
HStem: 971 118<312 485.613> 1072 117<105.114 265.508>
VStem: 9 80<980 1047.76> 500 78<1101.27 1184>
LayerCount: 2
Fore
SplineSet
9 980 m 1,0,1
 13 1035 13 1035 27 1074.5 c 128,-1,2
 41 1114 41 1114 62 1139.5 c 128,-1,3
 83 1165 83 1165 109.5 1177 c 128,-1,4
 136 1189 136 1189 165 1189 c 0,5,6
 200 1189 200 1189 235 1173.5 c 128,-1,7
 270 1158 270 1158 303 1139 c 128,-1,8
 336 1120 336 1120 366.5 1104.5 c 128,-1,9
 397 1089 397 1089 423 1089 c 0,10,11
 485 1089 485 1089 500 1184 c 1,12,-1
 578 1184 l 1,13,14
 571 1086 571 1086 530 1028.5 c 128,-1,15
 489 971 489 971 419 971 c 0,16,17
 380 971 380 971 344.5 987 c 128,-1,18
 309 1003 309 1003 276 1021.5 c 128,-1,19
 243 1040 243 1040 213.5 1056 c 128,-1,20
 184 1072 184 1072 157 1072 c 0,21,22
 125 1072 125 1072 110 1048.5 c 128,-1,23
 95 1025 95 1025 89 980 c 1,24,-1
 9 980 l 1,0,1
EndSplineSet
EndChar

StartChar: trademark
Encoding: 8482 8482 126
Width: 1723
Flags: W
HStem: 1101 95<196 425 532 759 938 942 1408 1411>
VStem: 425 107<494 1101> 840 98<494 1095> 1411 97<494 1095>
LayerCount: 2
Fore
SplineSet
759 1196 m 1,0,-1
 759 1101 l 1,1,-1
 532 1101 l 1,2,-1
 532 494 l 1,3,-1
 425 494 l 1,4,-1
 425 1101 l 1,5,-1
 196 1101 l 1,6,-1
 196 1196 l 1,7,-1
 759 1196 l 1,0,-1
999 1196 m 1,8,-1
 1174 635 l 1,9,-1
 1177 635 l 1,10,-1
 1349 1196 l 1,11,-1
 1508 1196 l 1,12,-1
 1508 494 l 1,13,-1
 1411 494 l 1,14,-1
 1411 1095 l 1,15,-1
 1408 1095 l 1,16,-1
 1219 494 l 1,17,-1
 1129 494 l 1,18,-1
 942 1095 l 1,19,-1
 938 1095 l 1,20,-1
 938 494 l 1,21,-1
 840 494 l 1,22,-1
 840 1196 l 1,23,-1
 999 1196 l 1,8,-1
EndSplineSet
EndChar

StartChar: guilsinglright
Encoding: 8250 8250 127
Width: 476
Flags: W
HStem: 0 21G<28 183.632>
VStem: 28 407
LayerCount: 2
Fore
SplineSet
28 837 m 1,0,-1
 171 837 l 1,1,-1
 435 418 l 1,2,-1
 171 0 l 1,3,-1
 28 0 l 1,4,-1
 286 418 l 1,5,-1
 28 837 l 1,0,-1
EndSplineSet
EndChar

StartChar: cent
Encoding: 162 162 128
Width: 911
Flags: W
HStem: -25 130<411.677 649.46> -9 126<411 493.032> 722 130<337.094 525>
VStem: 71 147<247.748 596.508> 722 123<517 639.019 759 832>
LayerCount: 2
Fore
SplineSet
302 19 m 1,0,1
 250 46 250 46 207.5 86 c 128,-1,2
 165 126 165 126 134.5 177 c 128,-1,3
 104 228 104 228 87.5 289 c 128,-1,4
 71 350 71 350 71 418 c 0,5,6
 71 512 71 512 104 591.5 c 128,-1,7
 137 671 137 671 192 729 c 128,-1,8
 247 787 247 787 319 819.5 c 128,-1,9
 391 852 391 852 469 852 c 0,10,11
 516 852 516 852 564 839 c 1,12,-1
 681 1209 l 1,13,-1
 764 1209 l 1,14,-1
 636 815 l 1,15,16
 662 806 662 806 682 792.5 c 128,-1,17
 702 779 702 779 722 759 c 1,18,-1
 722 832 l 1,19,-1
 845 832 l 1,20,-1
 845 517 l 1,21,-1
 722 517 l 1,22,23
 714 583 714 583 686 627 c 128,-1,24
 658 671 658 671 599 697 c 1,25,-1
 411 117 l 1,26,27
 432 110 432 110 454 107.5 c 128,-1,28
 476 105 476 105 496 105 c 0,29,30
 578 105 578 105 647 148 c 128,-1,31
 716 191 716 191 758 279 c 1,32,-1
 872 225 l 1,33,34
 846 163 846 163 807 116.5 c 128,-1,35
 768 70 768 70 719 38.5 c 128,-1,36
 670 7 670 7 613.5 -9 c 128,-1,37
 557 -25 557 -25 495 -25 c 0,38,39
 432 -25 432 -25 372 -9 c 1,40,-1
 254 -378 l 1,41,-1
 172 -378 l 1,42,-1
 302 19 l 1,0,1
525 719 m 1,43,44
 513 721 513 721 502 721.5 c 128,-1,45
 491 722 491 722 480 722 c 0,46,47
 421 722 421 722 373 699 c 128,-1,48
 325 676 325 676 290.5 636 c 128,-1,49
 256 596 256 596 237 540.5 c 128,-1,50
 218 485 218 485 218 421 c 0,51,52
 218 374 218 374 226.5 336 c 128,-1,53
 235 298 235 298 251.5 266.5 c 128,-1,54
 268 235 268 235 292.5 208 c 128,-1,55
 317 181 317 181 349 157 c 1,56,-1
 525 719 l 1,43,44
EndSplineSet
EndChar

StartChar: sterling
Encoding: 163 163 129
Width: 942
Flags: W
HStem: -19 143<541.094 774.445> -19 84<150.961 305.875> 247 91<146.327 298.896> 559 87<71 282 467 651> 1095 119<392.517 646.554>
VStem: 33 102<82.5086 239.994> 203 143<749.089 1051.49> 370 118<291.58 557.126> 695 135<893 1045.65> 814 93<167.838 290>
LayerCount: 2
Fore
SplineSet
71 646 m 1,0,-1
 282 646 l 1,1,2
 265 679 265 679 250.5 717.5 c 128,-1,3
 236 756 236 756 225.5 794 c 128,-1,4
 215 832 215 832 209 868 c 128,-1,5
 203 904 203 904 203 932 c 0,6,7
 203 999 203 999 226 1051.5 c 128,-1,8
 249 1104 249 1104 290.5 1140 c 128,-1,9
 332 1176 332 1176 389 1195 c 128,-1,10
 446 1214 446 1214 515 1214 c 0,11,12
 591 1214 591 1214 650 1192 c 128,-1,13
 709 1170 709 1170 749 1128.5 c 128,-1,14
 789 1087 789 1087 809.5 1027.5 c 128,-1,15
 830 968 830 968 830 893 c 1,16,-1
 691 893 l 1,17,18
 695 908 695 908 695 934 c 1,19,20
 693 964 693 964 682.5 993 c 128,-1,21
 672 1022 672 1022 652 1044.5 c 128,-1,22
 632 1067 632 1067 600 1081 c 128,-1,23
 568 1095 568 1095 522 1095 c 0,24,25
 443 1095 443 1095 394.5 1056 c 128,-1,26
 346 1017 346 1017 346 941 c 0,27,28
 346 912 346 912 353.5 876 c 128,-1,29
 361 840 361 840 373 801.5 c 128,-1,30
 385 763 385 763 400.5 723 c 128,-1,31
 416 683 416 683 432 646 c 1,32,-1
 651 646 l 1,33,-1
 651 559 l 1,34,-1
 467 559 l 1,35,36
 478 516 478 516 483 473 c 128,-1,37
 488 430 488 430 488 388 c 0,38,39
 488 343 488 343 482 298.5 c 128,-1,40
 476 254 476 254 465 215 c 1,41,42
 493 198 493 198 519.5 181.5 c 128,-1,43
 546 165 546 165 571.5 152 c 128,-1,44
 597 139 597 139 622.5 131.5 c 128,-1,45
 648 124 648 124 674 124 c 0,46,47
 742 124 742 124 775.5 166.5 c 128,-1,48
 809 209 809 209 814 290 c 1,49,-1
 907 290 l 1,50,51
 907 215 907 215 890 157.5 c 128,-1,52
 873 100 873 100 842 61 c 128,-1,53
 811 22 811 22 768.5 1.5 c 128,-1,54
 726 -19 726 -19 674 -19 c 0,55,56
 638 -19 638 -19 606.5 -10.5 c 128,-1,57
 575 -2 575 -2 544 13 c 128,-1,58
 513 28 513 28 482 49.5 c 128,-1,59
 451 71 451 71 417 98 c 1,60,61
 381 45 381 45 334.5 13 c 128,-1,62
 288 -19 288 -19 228 -19 c 0,63,64
 177 -19 177 -19 140.5 -4.5 c 128,-1,65
 104 10 104 10 80 33.5 c 128,-1,66
 56 57 56 57 44.5 87.5 c 128,-1,67
 33 118 33 118 33 150 c 0,68,69
 33 185 33 185 45.5 218.5 c 128,-1,70
 58 252 58 252 82 278.5 c 128,-1,71
 106 305 106 305 141 321.5 c 128,-1,72
 176 338 176 338 221 338 c 0,73,74
 261 338 261 338 296.5 326 c 128,-1,75
 332 314 332 314 369 291 c 1,76,77
 370 300 370 300 370 309 c 128,-1,78
 370 318 370 318 370 327 c 0,79,80
 370 388 370 388 359 443.5 c 128,-1,81
 348 499 348 499 325 559 c 1,82,-1
 71 559 l 1,83,-1
 71 646 l 1,0,-1
343 157 m 1,84,85
 301 205 301 205 269.5 226 c 128,-1,86
 238 247 238 247 207 247 c 0,87,88
 190 247 190 247 177 238.5 c 128,-1,89
 164 230 164 230 154.5 216.5 c 128,-1,90
 145 203 145 203 140 186 c 128,-1,91
 135 169 135 169 135 151 c 0,92,93
 135 118 135 118 155 91.5 c 128,-1,94
 175 65 175 65 220 65 c 0,95,96
 257 65 257 65 285.5 87 c 128,-1,97
 314 109 314 109 343 157 c 1,84,85
EndSplineSet
EndChar

StartChar: fraction
Encoding: 8260 8260 130
Width: 557
Flags: W
HStem: 0 21G<-221 -115.766>
LayerCount: 2
Fore
SplineSet
691 1196 m 1,0,-1
 780 1196 l 1,1,-1
 -131 0 l 1,2,-1
 -221 0 l 1,3,-1
 691 1196 l 1,0,-1
EndSplineSet
EndChar

StartChar: section
Encoding: 167 167 131
Width: 819
Flags: W
HStem: -326 127<292.631 569.514> -32 20G<97 234> 1093 123<250.225 527.979>
VStem: 39 129<388.196 593.412> 70 135<850.381 1047.34> 97 136<-139.293 -12> 592 135<909 1029.31> 617 135<-151.78 44.6334> 653 128<299.774 505.724>
LayerCount: 2
Fore
SplineSet
233 -12 m 1,0,1
 235 -100 235 -100 287 -149.5 c 128,-1,2
 339 -199 339 -199 430 -199 c 0,3,4
 473 -199 473 -199 507.5 -188 c 128,-1,5
 542 -177 542 -177 566.5 -157 c 128,-1,6
 591 -137 591 -137 604 -109.5 c 128,-1,7
 617 -82 617 -82 617 -50 c 0,8,9
 617 -7 617 -7 592 24 c 128,-1,10
 567 55 567 55 526.5 79 c 128,-1,11
 486 103 486 103 434 122.5 c 128,-1,12
 382 142 382 142 328 163 c 128,-1,13
 274 184 274 184 222 208.5 c 128,-1,14
 170 233 170 233 129.5 266.5 c 128,-1,15
 89 300 89 300 64 345.5 c 128,-1,16
 39 391 39 391 39 453 c 0,17,18
 39 526 39 526 78.5 586 c 128,-1,19
 118 646 118 646 204 703 c 1,20,21
 139 742 139 742 104.5 802 c 128,-1,22
 70 862 70 862 70 935 c 0,23,24
 70 993 70 993 94 1044 c 128,-1,25
 118 1095 118 1095 161 1133.5 c 128,-1,26
 204 1172 204 1172 263 1194 c 128,-1,27
 322 1216 322 1216 391 1216 c 0,28,29
 457 1216 457 1216 517.5 1198.5 c 128,-1,30
 578 1181 578 1181 624 1143.5 c 128,-1,31
 670 1106 670 1106 697.5 1048 c 128,-1,32
 725 990 725 990 727 909 c 1,33,-1
 592 909 l 1,34,35
 585 1003 585 1003 529 1048 c 128,-1,36
 473 1093 473 1093 385 1093 c 0,37,38
 346 1093 346 1093 313 1082.5 c 128,-1,39
 280 1072 280 1072 256 1053 c 128,-1,40
 232 1034 232 1034 218.5 1007.5 c 128,-1,41
 205 981 205 981 205 949 c 0,42,43
 205 904 205 904 229.5 872 c 128,-1,44
 254 840 254 840 294.5 815 c 128,-1,45
 335 790 335 790 387 770 c 128,-1,46
 439 750 439 750 493 729 c 128,-1,47
 547 708 547 708 598.5 684 c 128,-1,48
 650 660 650 660 690.5 626.5 c 128,-1,49
 731 593 731 593 756 548 c 128,-1,50
 781 503 781 503 781 441 c 0,51,52
 781 365 781 365 739.5 302 c 128,-1,53
 698 239 698 239 617 188 c 1,54,55
 682 150 682 150 717 91.5 c 128,-1,56
 752 33 752 33 752 -38 c 0,57,58
 752 -102 752 -102 728 -155 c 128,-1,59
 704 -208 704 -208 661 -246 c 128,-1,60
 618 -284 618 -284 558.5 -305 c 128,-1,61
 499 -326 499 -326 427 -326 c 0,62,63
 349 -326 349 -326 287.5 -302.5 c 128,-1,64
 226 -279 226 -279 183.5 -237 c 128,-1,65
 141 -195 141 -195 119 -137.5 c 128,-1,66
 97 -80 97 -80 97 -12 c 1,67,-1
 233 -12 l 1,0,1
525 236 m 1,68,69
 588 270 588 270 620.5 314.5 c 128,-1,70
 653 359 653 359 653 409 c 0,71,72
 653 461 653 461 621 494 c 128,-1,73
 589 527 589 527 537.5 551.5 c 128,-1,74
 486 576 486 576 420.5 599 c 128,-1,75
 355 622 355 622 289 654 c 1,76,77
 224 614 224 614 196 575 c 128,-1,78
 168 536 168 536 168 487 c 0,79,80
 168 435 168 435 198.5 402 c 128,-1,81
 229 369 229 369 279.5 343.5 c 128,-1,82
 330 318 330 318 394 294 c 128,-1,83
 458 270 458 270 525 236 c 1,68,69
EndSplineSet
EndChar

StartChar: guillemotleft
Encoding: 171 171 132
Width: 838
Flags: W
HStem: 0 21G<289.416 445 660.321 815>
LayerCount: 2
Fore
SplineSet
815 0 m 1,0,-1
 673 0 l 1,1,-1
 408 418 l 1,2,-1
 673 837 l 1,3,-1
 815 837 l 1,4,-1
 558 418 l 1,5,-1
 815 0 l 1,0,-1
445 0 m 1,6,-1
 302 0 l 1,7,-1
 39 418 l 1,8,-1
 302 837 l 1,9,-1
 445 837 l 1,10,-1
 187 418 l 1,11,-1
 445 0 l 1,6,-1
EndSplineSet
EndChar

StartChar: logicalnot
Encoding: 172 172 133
Width: 1175
Flags: W
HStem: 724 118<119 939>
VStem: 939 117<304 724>
LayerCount: 2
Fore
SplineSet
1056 842 m 1,0,-1
 1056 304 l 1,1,-1
 939 304 l 1,2,-1
 939 724 l 1,3,-1
 119 724 l 1,4,-1
 119 842 l 1,5,-1
 1056 842 l 1,0,-1
EndSplineSet
EndChar

StartChar: plusminus
Encoding: 177 177 134
Width: 1175
Flags: W
HStem: -39 119<119 1056> 656 119<119 530 645 1056>
VStem: 530 115<247 656 775 1183>
LayerCount: 2
Fore
SplineSet
1056 80 m 1,0,-1
 1056 -39 l 1,1,-1
 119 -39 l 1,2,-1
 119 80 l 1,3,-1
 1056 80 l 1,0,-1
1056 775 m 1,4,-1
 1056 656 l 1,5,-1
 645 656 l 1,6,-1
 645 247 l 1,7,-1
 530 247 l 1,8,-1
 530 656 l 1,9,-1
 119 656 l 1,10,-1
 119 775 l 1,11,-1
 530 775 l 1,12,-1
 530 1183 l 1,13,-1
 645 1183 l 1,14,-1
 645 775 l 1,15,-1
 1056 775 l 1,4,-1
EndSplineSet
EndChar

StartChar: registered
Encoding: 174 174 135
Width: 1342
Flags: W
HStem: -21 100<452.141 887.099> 572 88<497 686.264> 587 73<725 781.078> 881 88<497 776.347> 1182 100<450.575 887.099>
VStem: 18 99<413.659 848.028> 392 105<273 572 660 881> 814 113<688.007 855.417> 1222 100<413.659 848.359>
LayerCount: 2
Fore
SplineSet
691 969 m 2,0,1
 751 969 751 969 795.5 953.5 c 128,-1,2
 840 938 840 938 869.5 912 c 128,-1,3
 899 886 899 886 913 852.5 c 128,-1,4
 927 819 927 819 927 782 c 0,5,6
 927 742 927 742 912.5 707.5 c 128,-1,7
 898 673 898 673 871 647 c 128,-1,8
 844 621 844 621 807 605 c 128,-1,9
 770 589 770 589 725 587 c 1,10,-1
 725 584 l 1,11,12
 767 569 767 569 799 538.5 c 128,-1,13
 831 508 831 508 863 457 c 0,14,15
 866 452 866 452 880.5 426.5 c 128,-1,16
 895 401 895 401 913 370 c 128,-1,17
 931 339 931 339 946.5 310.5 c 128,-1,18
 962 282 962 282 967 273 c 1,19,-1
 840 273 l 1,20,21
 794 369 794 369 760.5 428 c 128,-1,22
 727 487 727 487 696 519 c 128,-1,23
 665 551 665 551 632 561.5 c 128,-1,24
 599 572 599 572 555 572 c 2,25,-1
 497 572 l 1,26,-1
 497 273 l 1,27,-1
 392 273 l 1,28,-1
 392 969 l 1,29,-1
 691 969 l 2,0,1
642 660 m 2,30,31
 814 660 814 660 814 773 c 0,32,33
 814 825 814 825 777.5 853 c 128,-1,34
 741 881 741 881 654 881 c 2,35,-1
 497 881 l 1,36,-1
 497 660 l 1,37,-1
 642 660 l 2,30,31
670 1282 m 0,38,39
 760 1282 760 1282 843.5 1259 c 128,-1,40
 927 1236 927 1236 999 1193.5 c 128,-1,41
 1071 1151 1071 1151 1131 1092 c 128,-1,42
 1191 1033 1191 1033 1233 960.5 c 128,-1,43
 1275 888 1275 888 1298.5 804.5 c 128,-1,44
 1322 721 1322 721 1322 631 c 256,45,46
 1322 541 1322 541 1298.5 457.5 c 128,-1,47
 1275 374 1275 374 1233 302 c 128,-1,48
 1191 230 1191 230 1131 170 c 128,-1,49
 1071 110 1071 110 999 68 c 128,-1,50
 927 26 927 26 843.5 2.5 c 128,-1,51
 760 -21 760 -21 670 -21 c 256,52,53
 580 -21 580 -21 496.5 2.5 c 128,-1,54
 413 26 413 26 340.5 68 c 128,-1,55
 268 110 268 110 208.5 170 c 128,-1,56
 149 230 149 230 106.5 302 c 128,-1,57
 64 374 64 374 41 457.5 c 128,-1,58
 18 541 18 541 18 631 c 0,59,60
 18 766 18 766 69 885 c 128,-1,61
 120 1004 120 1004 208.5 1092 c 128,-1,62
 297 1180 297 1180 416 1231 c 128,-1,63
 535 1282 535 1282 670 1282 c 0,38,39
669 79 m 256,64,65
 783 79 783 79 884 122.5 c 128,-1,66
 985 166 985 166 1060 241 c 128,-1,67
 1135 316 1135 316 1178.5 416.5 c 128,-1,68
 1222 517 1222 517 1222 631 c 256,69,70
 1222 745 1222 745 1178.5 845.5 c 128,-1,71
 1135 946 1135 946 1060 1021 c 128,-1,72
 985 1096 985 1096 884 1139 c 128,-1,73
 783 1182 783 1182 669 1182 c 256,74,75
 555 1182 555 1182 454.5 1139 c 128,-1,76
 354 1096 354 1096 279 1021 c 128,-1,77
 204 946 204 946 160.5 845.5 c 128,-1,78
 117 745 117 745 117 631 c 256,79,80
 117 517 117 517 160.5 416.5 c 128,-1,81
 204 316 204 316 279 241 c 128,-1,82
 354 166 354 166 454.5 122.5 c 128,-1,83
 555 79 555 79 669 79 c 256,64,65
EndSplineSet
EndChar

StartChar: macron
Encoding: 175 175 136
Width: 587
Flags: W
HStem: 1035 80<31 556>
VStem: 31 525<1035 1115>
LayerCount: 2
Fore
SplineSet
31 1115 m 1,0,-1
 556 1115 l 1,1,-1
 556 1035 l 1,2,-1
 31 1035 l 1,3,-1
 31 1115 l 1,0,-1
EndSplineSet
EndChar

StartChar: degree
Encoding: 176 176 137
Width: 697
Flags: W
HStem: 698 89<231.732 464.711> 1130 86<233.553 463.178>
VStem: 90 87<842.951 1073.66> 520 87<842.885 1073.78>
LayerCount: 2
Fore
SplineSet
349 1130 m 0,0,1
 311 1130 311 1130 279.5 1116.5 c 128,-1,2
 248 1103 248 1103 225.5 1079.5 c 128,-1,3
 203 1056 203 1056 190 1025 c 128,-1,4
 177 994 177 994 177 958 c 0,5,6
 177 923 177 923 190 891.5 c 128,-1,7
 203 860 203 860 225.5 837 c 128,-1,8
 248 814 248 814 279.5 800.5 c 128,-1,9
 311 787 311 787 349 787 c 0,10,11
 384 787 384 787 415 800 c 128,-1,12
 446 813 446 813 469.5 835.5 c 128,-1,13
 493 858 493 858 506.5 889.5 c 128,-1,14
 520 921 520 921 520 958 c 0,15,16
 520 990 520 990 508.5 1021 c 128,-1,17
 497 1052 497 1052 475 1076 c 128,-1,18
 453 1100 453 1100 421 1115 c 128,-1,19
 389 1130 389 1130 349 1130 c 0,0,1
349 1216 m 256,20,21
 403 1216 403 1216 450 1196 c 128,-1,22
 497 1176 497 1176 532 1140.5 c 128,-1,23
 567 1105 567 1105 587 1058 c 128,-1,24
 607 1011 607 1011 607 957 c 256,25,26
 607 903 607 903 587 856 c 128,-1,27
 567 809 567 809 532 774 c 128,-1,28
 497 739 497 739 450 718.5 c 128,-1,29
 403 698 403 698 349 698 c 256,30,31
 295 698 295 698 248 718.5 c 128,-1,32
 201 739 201 739 166 774 c 128,-1,33
 131 809 131 809 110.5 856 c 128,-1,34
 90 903 90 903 90 957 c 256,35,36
 90 1011 90 1011 110.5 1058 c 128,-1,37
 131 1105 131 1105 166 1140.5 c 128,-1,38
 201 1176 201 1176 248 1196 c 128,-1,39
 295 1216 295 1216 349 1216 c 256,20,21
EndSplineSet
EndChar

StartChar: mu
Encoding: 181 181 138
AltUni2: 0003bc.ffffffff.0
Width: 972
Flags: W
HStem: -21 124<356.731 614.475> 0 21G<716 836>
VStem: 139 130<-373 95 201.778 832> 706 130<0 106 203.286 832>
LayerCount: 2
Fore
SplineSet
269 832 m 1,0,-1
 269 415 l 2,1,2
 269 335 269 335 284.5 276 c 128,-1,3
 300 217 300 217 328.5 178.5 c 128,-1,4
 357 140 357 140 396.5 121.5 c 128,-1,5
 436 103 436 103 484 103 c 0,6,7
 529 103 529 103 569.5 120 c 128,-1,8
 610 137 610 137 640 172.5 c 128,-1,9
 670 208 670 208 688 263.5 c 128,-1,10
 706 319 706 319 706 396 c 2,11,-1
 706 832 l 1,12,-1
 836 832 l 1,13,-1
 836 0 l 1,14,-1
 716 0 l 1,15,-1
 716 106 l 1,16,-1
 712 106 l 1,17,18
 666 38 666 38 614 8.5 c 128,-1,19
 562 -21 562 -21 488 -21 c 0,20,21
 453 -21 453 -21 424 -15 c 128,-1,22
 395 -9 395 -9 369.5 5 c 128,-1,23
 344 19 344 19 320.5 41 c 128,-1,24
 297 63 297 63 273 95 c 1,25,-1
 269 95 l 1,26,-1
 269 -373 l 1,27,-1
 139 -373 l 1,28,-1
 139 832 l 1,29,-1
 269 832 l 1,0,-1
EndSplineSet
EndChar

StartChar: paragraph
Encoding: 182 182 139
Width: 1019
Flags: W
HStem: 1056 140<525 726 861 999>
VStem: 29 496<653.131 1016.71> 390 135<-373 478> 726 135<-373 1056>
LayerCount: 2
Fore
SplineSet
999 1056 m 1,0,-1
 861 1056 l 1,1,-1
 861 -373 l 1,2,-1
 726 -373 l 1,3,-1
 726 1056 l 1,4,-1
 525 1056 l 1,5,-1
 525 -373 l 1,6,-1
 390 -373 l 1,7,-1
 390 478 l 1,8,9
 304 481 304 481 237 509.5 c 128,-1,10
 170 538 170 538 123.5 585.5 c 128,-1,11
 77 633 77 633 53 697 c 128,-1,12
 29 761 29 761 29 836 c 0,13,14
 29 910 29 910 54 975.5 c 128,-1,15
 79 1041 79 1041 129 1090 c 128,-1,16
 179 1139 179 1139 254 1167.5 c 128,-1,17
 329 1196 329 1196 430 1196 c 2,18,-1
 999 1196 l 1,19,-1
 999 1056 l 1,0,-1
EndSplineSet
EndChar

StartChar: periodcentered
Encoding: 183 183 140
Width: 514
Flags: W
HStem: 482 197<171 343>
VStem: 171 172<482 679>
LayerCount: 2
Fore
SplineSet
171 679 m 1,0,-1
 343 679 l 1,1,-1
 343 482 l 1,2,-1
 171 482 l 1,3,-1
 171 679 l 1,0,-1
EndSplineSet
EndChar

StartChar: cedilla
Encoding: 184 184 141
Width: 587
Flags: W
HStem: -361 78<168 312.625> -154 159<266 320.359>
VStem: 266 61<-77.7402 5> 322 115<-268.527 -161.117>
LayerCount: 2
Fore
SplineSet
168 -282 m 1,0,1
 173 -283 173 -283 178 -283 c 128,-1,2
 183 -283 183 -283 188 -283 c 0,3,4
 217 -283 217 -283 241.5 -279.5 c 128,-1,5
 266 -276 266 -276 284 -268 c 128,-1,6
 302 -260 302 -260 312 -246.5 c 128,-1,7
 322 -233 322 -233 322 -213 c 0,8,9
 322 -160 322 -160 239 -154 c 1,10,-1
 266 5 l 1,11,-1
 338 5 l 1,12,-1
 327 -69 l 1,13,14
 379 -79 379 -79 408 -114.5 c 128,-1,15
 437 -150 437 -150 437 -204 c 0,16,17
 437 -275 437 -275 381.5 -318 c 128,-1,18
 326 -361 326 -361 217 -361 c 2,19,-1
 168 -361 l 1,20,-1
 168 -282 l 1,0,1
EndSplineSet
EndChar

StartChar: guillemotright
Encoding: 187 187 142
Width: 838
Flags: W
HStem: 0 21G<22 177.632 393 548.584>
LayerCount: 2
Fore
SplineSet
393 837 m 1,0,-1
 536 837 l 1,1,-1
 799 418 l 1,2,-1
 536 0 l 1,3,-1
 393 0 l 1,4,-1
 650 418 l 1,5,-1
 393 837 l 1,0,-1
22 837 m 1,6,-1
 165 837 l 1,7,-1
 429 418 l 1,8,-1
 165 0 l 1,9,-1
 22 0 l 1,10,-1
 279 418 l 1,11,-1
 22 837 l 1,6,-1
EndSplineSet
EndChar

StartChar: germandbls
Encoding: 223 223 143
Width: 1119
Flags: W
HStem: -13 123<581.845 816.583> 0 125<40 190 330 461 581.938 686.187> 617 116<581 727.603> 1096 123<418.109 724.919>
VStem: 190 140<125 1003.39> 790 143<793.697 1033.14> 897 146<192.752 506.891>
LayerCount: 2
Fore
SplineSet
461 125 m 1,0,-1
 461 0 l 1,1,-1
 40 0 l 1,2,-1
 40 125 l 1,3,-1
 190 125 l 1,4,-1
 190 814 l 2,5,6
 190 910 190 910 213 985 c 128,-1,7
 236 1060 236 1060 283.5 1112 c 128,-1,8
 331 1164 331 1164 403 1191.5 c 128,-1,9
 475 1219 475 1219 574 1219 c 0,10,11
 655 1219 655 1219 721 1198 c 128,-1,12
 787 1177 787 1177 834 1138.5 c 128,-1,13
 881 1100 881 1100 907 1046.5 c 128,-1,14
 933 993 933 993 933 927 c 0,15,16
 933 844 933 844 893 784.5 c 128,-1,17
 853 725 853 725 776 692 c 1,18,-1
 776 689 l 1,19,20
 839 676 839 676 888.5 646 c 128,-1,21
 938 616 938 616 972.5 572 c 128,-1,22
 1007 528 1007 528 1025 470.5 c 128,-1,23
 1043 413 1043 413 1043 346 c 0,24,25
 1043 266 1043 266 1019 199.5 c 128,-1,26
 995 133 995 133 951.5 86 c 128,-1,27
 908 39 908 39 847.5 13 c 128,-1,28
 787 -13 787 -13 714 -13 c 0,29,30
 676 -13 676 -13 643.5 -6.5 c 128,-1,31
 611 0 611 0 581 14 c 1,32,-1
 581 133 l 1,33,34
 605 119 605 119 633 114.5 c 128,-1,35
 661 110 661 110 687 110 c 0,36,37
 729 110 729 110 767.5 125.5 c 128,-1,38
 806 141 806 141 834.5 171 c 128,-1,39
 863 201 863 201 880 245 c 128,-1,40
 897 289 897 289 897 346 c 0,41,42
 897 402 897 402 880.5 451.5 c 128,-1,43
 864 501 864 501 827 537.5 c 128,-1,44
 790 574 790 574 729.5 595.5 c 128,-1,45
 669 617 669 617 581 617 c 1,46,-1
 581 733 l 1,47,48
 638 733 638 733 678 749 c 128,-1,49
 718 765 718 765 743 791 c 128,-1,50
 768 817 768 817 779 850 c 128,-1,51
 790 883 790 883 790 917 c 0,52,53
 790 957 790 957 774.5 990 c 128,-1,54
 759 1023 759 1023 731 1046.5 c 128,-1,55
 703 1070 703 1070 663 1083 c 128,-1,56
 623 1096 623 1096 574 1096 c 0,57,58
 519 1096 519 1096 474 1081 c 128,-1,59
 429 1066 429 1066 397 1033 c 128,-1,60
 365 1000 365 1000 347.5 947 c 128,-1,61
 330 894 330 894 330 818 c 2,62,-1
 330 125 l 1,63,-1
 461 125 l 1,0,-1
EndSplineSet
EndChar

StartChar: partialdiff
Encoding: 8706 8706 144
Width: 930
Flags: W
HStem: -11 107<288.759 533.782> 713 103<326.49 591.097> 1228 108<227.156 536.52>
VStem: 72 125<197.248 565.31> 721 122<654.439 990.296>
LayerCount: 2
Fore
SplineSet
130 1241 m 1,0,1
 151 1257 151 1257 178 1274 c 128,-1,2
 205 1291 205 1291 240 1305 c 128,-1,3
 275 1319 275 1319 318 1327.5 c 128,-1,4
 361 1336 361 1336 413 1336 c 0,5,6
 496 1336 496 1336 573.5 1297 c 128,-1,7
 651 1258 651 1258 711 1178 c 128,-1,8
 771 1098 771 1098 807 976.5 c 128,-1,9
 843 855 843 855 843 691 c 0,10,11
 843 542 843 542 814.5 413.5 c 128,-1,12
 786 285 786 285 730.5 190.5 c 128,-1,13
 675 96 675 96 592 42.5 c 128,-1,14
 509 -11 509 -11 400 -11 c 0,15,16
 316 -11 316 -11 254.5 23.5 c 128,-1,17
 193 58 193 58 152.5 113.5 c 128,-1,18
 112 169 112 169 92 239.5 c 128,-1,19
 72 310 72 310 72 382 c 0,20,21
 72 482 72 482 102 562 c 128,-1,22
 132 642 132 642 182 698.5 c 128,-1,23
 232 755 232 755 297.5 785.5 c 128,-1,24
 363 816 363 816 434 816 c 0,25,26
 494 816 494 816 542 797.5 c 128,-1,27
 590 779 590 779 625.5 753.5 c 128,-1,28
 661 728 661 728 684 700.5 c 128,-1,29
 707 673 707 673 716 654 c 1,30,-1
 718 654 l 1,31,32
 720 668 720 668 720.5 690 c 128,-1,33
 721 712 721 712 721 728 c 0,34,35
 721 840 721 840 695.5 932.5 c 128,-1,36
 670 1025 670 1025 626 1090.5 c 128,-1,37
 582 1156 582 1156 524 1192 c 128,-1,38
 466 1228 466 1228 400 1228 c 0,39,40
 361 1228 361 1228 327 1220.5 c 128,-1,41
 293 1213 293 1213 265 1201.5 c 128,-1,42
 237 1190 237 1190 214.5 1175.5 c 128,-1,43
 192 1161 192 1161 174 1147 c 1,44,-1
 130 1241 l 1,0,1
412 96 m 2,45,46
 473 96 473 96 523 132 c 128,-1,47
 573 168 573 168 610 227.5 c 128,-1,48
 647 287 647 287 670.5 364.5 c 128,-1,49
 694 442 694 442 703 525 c 1,50,51
 694 553 694 553 672.5 586 c 128,-1,52
 651 619 651 619 619 647 c 128,-1,53
 587 675 587 675 545.5 694 c 128,-1,54
 504 713 504 713 454 713 c 0,55,56
 401 713 401 713 354.5 686.5 c 128,-1,57
 308 660 308 660 273 615 c 128,-1,58
 238 570 238 570 217.5 509.5 c 128,-1,59
 197 449 197 449 197 382 c 0,60,61
 197 320 197 320 212 268 c 128,-1,62
 227 216 227 216 254.5 177.5 c 128,-1,63
 282 139 282 139 321.5 117.5 c 128,-1,64
 361 96 361 96 409 96 c 2,65,-1
 412 96 l 2,45,46
EndSplineSet
EndChar

StartChar: summation
Encoding: 8721 8721 145
Width: 942
Flags: W
HStem: -163 121<200 904> 1077 111<233 877>
LayerCount: 2
Fore
SplineSet
39 -163 m 1,0,-1
 39 -78 l 1,1,-1
 498 510 l 1,2,-1
 59 1098 l 1,3,-1
 59 1188 l 1,4,-1
 877 1188 l 1,5,-1
 877 1077 l 1,6,-1
 233 1077 l 1,7,-1
 233 1071 l 1,8,-1
 642 529 l 1,9,-1
 200 -36 l 1,10,-1
 200 -42 l 1,11,-1
 904 -42 l 1,12,-1
 904 -163 l 1,13,-1
 39 -163 l 1,0,-1
EndSplineSet
EndChar

StartChar: product
Encoding: 8719 8719 146
Width: 1190
Flags: W
HStem: 1072 116<44 230 353 835 958 1145>
VStem: 230 123<-163 1072> 835 123<-163 1072>
LayerCount: 2
Fore
SplineSet
958 1072 m 1,0,-1
 958 -163 l 1,1,-1
 835 -163 l 1,2,-1
 835 1072 l 1,3,-1
 353 1072 l 1,4,-1
 353 -163 l 1,5,-1
 230 -163 l 1,6,-1
 230 1072 l 1,7,-1
 44 1072 l 1,8,-1
 44 1188 l 1,9,-1
 1145 1188 l 1,10,-1
 1145 1072 l 1,11,-1
 958 1072 l 1,0,-1
EndSplineSet
EndChar

StartChar: pi
Encoding: 960 960 147
Width: 970
Flags: W
HStem: 0 21G<102 234.5 683.5 813> 774 110<36.4071 226 349.198 662 787 925>
VStem: 218.5 124.5<302.24 774> 662 125<0.665039 774>
LayerCount: 2
Fore
SplineSet
787 774 m 1,0,-1
 787 251 l 2,1,2
 787 198 787 198 789 158.5 c 128,-1,3
 791 119 791 119 795 89.5 c 128,-1,4
 799 60 799 60 803.5 38.5 c 128,-1,5
 808 17 808 17 813 0 c 1,6,-1
 690 0 l 1,7,8
 677 21 677 21 669.5 78 c 128,-1,9
 662 135 662 135 662 240 c 2,10,-1
 662 774 l 1,11,-1
 352 774 l 1,12,13
 349 719 349 719 343 652 c 128,-1,14
 337 585 337 585 328.5 512 c 128,-1,15
 320 439 320 439 308.5 365.5 c 128,-1,16
 297 292 297 292 284.5 224 c 128,-1,17
 272 156 272 156 257 98 c 128,-1,18
 242 40 242 40 227 0 c 1,19,-1
 102 0 l 1,20,21
 118 46 118 46 133.5 105 c 128,-1,22
 149 164 149 164 162 231 c 128,-1,23
 175 298 175 298 186 370 c 128,-1,24
 197 442 197 442 205 512.5 c 128,-1,25
 213 583 213 583 218.5 650 c 128,-1,26
 224 717 224 717 226 774 c 1,27,28
 186 774 186 774 156.5 772.5 c 128,-1,29
 127 771 127 771 104.5 768 c 128,-1,30
 82 765 82 765 65.5 761 c 128,-1,31
 49 757 49 757 36 752 c 1,32,-1
 16 838 l 1,33,34
 47 858 47 858 104.5 871 c 128,-1,35
 162 884 162 884 260 884 c 2,36,-1
 937 884 l 1,37,-1
 925 774 l 1,38,-1
 787 774 l 1,0,-1
EndSplineSet
EndChar

StartChar: integral
Encoding: 8747 8747 148
Width: 607
Flags: W
HStem: -273 100<44.3461 206.642> 1358 95<405.874 556.686>
VStem: 236 114<-145.965 152.856 161.283 1295.3> 260 114<-114.866 585.594>
LayerCount: 2
Fore
SplineSet
557 1339 m 1,0,1
 547 1347 547 1347 529.5 1352.5 c 128,-1,2
 512 1358 512 1358 495 1358 c 0,3,4
 458 1358 458 1358 431 1339 c 128,-1,5
 404 1320 404 1320 386 1278.5 c 128,-1,6
 368 1237 368 1237 359 1171.5 c 128,-1,7
 350 1106 350 1106 350 1012 c 0,8,9
 350 912 350 912 353.5 805 c 128,-1,10
 357 698 357 698 361.5 589 c 128,-1,11
 366 480 366 480 370 370.5 c 128,-1,12
 374 261 374 261 374 157 c 0,13,14
 374 24 374 24 354 -59.5 c 128,-1,15
 334 -143 334 -143 301 -190.5 c 128,-1,16
 268 -238 268 -238 224.5 -255.5 c 128,-1,17
 181 -273 181 -273 133 -273 c 0,18,19
 100 -273 100 -273 68 -264.5 c 128,-1,20
 36 -256 36 -256 21 -245 c 1,21,-1
 44 -152 l 1,22,23
 55 -157 55 -157 75.5 -165 c 128,-1,24
 96 -173 96 -173 121 -173 c 0,25,26
 145 -173 145 -173 170 -161.5 c 128,-1,27
 195 -150 195 -150 215 -115 c 128,-1,28
 235 -80 235 -80 247.5 -15 c 128,-1,29
 260 50 260 50 260 158 c 0,30,31
 260 263 260 263 256 374 c 128,-1,32
 252 485 252 485 247.5 596 c 128,-1,33
 243 707 243 707 239.5 815.5 c 128,-1,34
 236 924 236 924 236 1025 c 0,35,36
 236 1142 236 1142 254 1223.5 c 128,-1,37
 272 1305 272 1305 304.5 1356 c 128,-1,38
 337 1407 337 1407 383.5 1430 c 128,-1,39
 430 1453 430 1453 487 1453 c 0,40,41
 513 1453 513 1453 539 1445 c 128,-1,42
 565 1437 565 1437 579 1429 c 1,43,-1
 557 1339 l 1,0,1
EndSplineSet
EndChar

StartChar: uni03A9
Encoding: 937 937 149
Width: 1228
Flags: W
HStem: 0 107<84 340 884 1142> 1099 108<445.987 781.071>
VStem: 107 128<386.965 856.548> 991 127<389.702 849.463>
LayerCount: 2
Fore
SplineSet
340 112 m 1,0,1
 294 152 294 152 252 205.5 c 128,-1,2
 210 259 210 259 177.5 326 c 128,-1,3
 145 393 145 393 126 471.5 c 128,-1,4
 107 550 107 550 107 640 c 0,5,6
 107 765 107 765 146 869 c 128,-1,7
 185 973 185 973 254 1048 c 128,-1,8
 323 1123 323 1123 416.5 1165 c 128,-1,9
 510 1207 510 1207 619 1207 c 0,10,11
 733 1207 733 1207 825.5 1161 c 128,-1,12
 918 1115 918 1115 983 1037.5 c 128,-1,13
 1048 960 1048 960 1083 858.5 c 128,-1,14
 1118 757 1118 757 1118 646 c 0,15,16
 1118 553 1118 553 1098 471.5 c 128,-1,17
 1078 390 1078 390 1045 322.5 c 128,-1,18
 1012 255 1012 255 970 201.5 c 128,-1,19
 928 148 928 148 884 112 c 1,20,-1
 884 107 l 1,21,-1
 1142 107 l 1,22,-1
 1142 0 l 1,23,-1
 733 0 l 1,24,-1
 733 77 l 1,25,26
 782 110 782 110 828.5 161 c 128,-1,27
 875 212 875 212 911 280.5 c 128,-1,28
 947 349 947 349 969 435 c 128,-1,29
 991 521 991 521 991 623 c 0,30,31
 991 706 991 706 967 791 c 128,-1,32
 943 876 943 876 896 944.5 c 128,-1,33
 849 1013 849 1013 779 1056 c 128,-1,34
 709 1099 709 1099 617 1099 c 0,35,36
 530 1099 530 1099 459 1061.5 c 128,-1,37
 388 1024 388 1024 338.5 959.5 c 128,-1,38
 289 895 289 895 262 807 c 128,-1,39
 235 719 235 719 235 619 c 0,40,41
 235 523 235 523 257 438.5 c 128,-1,42
 279 354 279 354 315.5 284 c 128,-1,43
 352 214 352 214 398.5 161.5 c 128,-1,44
 445 109 445 109 494 77 c 1,45,-1
 494 0 l 1,46,-1
 84 0 l 1,47,-1
 84 107 l 1,48,-1
 340 107 l 1,49,-1
 340 112 l 1,0,1
EndSplineSet
EndChar

StartChar: approxequal
Encoding: 8776 8776 150
Width: 960
Flags: W
HStem: 235 81<539.348 763.07> 365 80<202.005 427.4> 525 81<538.588 762.673> 656 79<202.82 426.238>
LayerCount: 2
Fore
SplineSet
880 687 m 1,0,1
 863 653 863 653 841 623.5 c 128,-1,2
 819 594 819 594 792 572 c 128,-1,3
 765 550 765 550 732.5 537.5 c 128,-1,4
 700 525 700 525 661 525 c 0,5,6
 635 525 635 525 612 530 c 128,-1,7
 589 535 589 535 565.5 544.5 c 128,-1,8
 542 554 542 554 517 567.5 c 128,-1,9
 492 581 492 581 461 598 c 0,10,11
 420 621 420 621 382.5 638.5 c 128,-1,12
 345 656 345 656 301 656 c 0,13,14
 271 656 271 656 247 645.5 c 128,-1,15
 223 635 223 635 203 617 c 128,-1,16
 183 599 183 599 165 576 c 128,-1,17
 147 553 147 553 131 528 c 1,18,-1
 77 574 l 1,19,20
 117 649 117 649 177.5 692 c 128,-1,21
 238 735 238 735 312 735 c 0,22,23
 342 735 342 735 369 727.5 c 128,-1,24
 396 720 396 720 420 709.5 c 128,-1,25
 444 699 444 699 464.5 687 c 128,-1,26
 485 675 485 675 503 666 c 0,27,28
 525 654 525 654 544 643 c 128,-1,29
 563 632 563 632 582 624 c 128,-1,30
 601 616 601 616 621 611 c 128,-1,31
 641 606 641 606 665 606 c 0,32,33
 717 606 717 606 754.5 638.5 c 128,-1,34
 792 671 792 671 827 734 c 1,35,-1
 880 687 l 1,0,1
880 396 m 1,36,37
 863 363 863 363 841.5 333.5 c 128,-1,38
 820 304 820 304 793 282.5 c 128,-1,39
 766 261 766 261 733 248 c 128,-1,40
 700 235 700 235 661 235 c 0,41,42
 635 235 635 235 612 240 c 128,-1,43
 589 245 589 245 565.5 254 c 128,-1,44
 542 263 542 263 517 276.5 c 128,-1,45
 492 290 492 290 461 307 c 0,46,47
 420 330 420 330 382.5 347.5 c 128,-1,48
 345 365 345 365 302 365 c 0,49,50
 271 365 271 365 246.5 354.5 c 128,-1,51
 222 344 222 344 202 326 c 128,-1,52
 182 308 182 308 164.5 285 c 128,-1,53
 147 262 147 262 131 237 c 1,54,-1
 77 283 l 1,55,56
 117 359 117 359 177.5 402 c 128,-1,57
 238 445 238 445 312 445 c 0,58,59
 343 445 343 445 370 438 c 128,-1,60
 397 431 397 431 420.5 420.5 c 128,-1,61
 444 410 444 410 464.5 398 c 128,-1,62
 485 386 485 386 503 377 c 1,63,64
 524 365 524 365 543.5 354 c 128,-1,65
 563 343 563 343 582 334.5 c 128,-1,66
 601 326 601 326 621.5 321 c 128,-1,67
 642 316 642 316 666 316 c 0,68,69
 718 316 718 316 755 348.5 c 128,-1,70
 792 381 792 381 827 444 c 1,71,-1
 880 396 l 1,36,37
EndSplineSet
EndChar

StartChar: Delta
Encoding: 8710 8710 151
Width: 1103
Flags: W
HStem: 0 105<181 914>
LayerCount: 2
Fore
SplineSet
52 88 m 1,0,-1
 482 1220 l 1,1,-1
 628 1220 l 1,2,-1
 1050 89 l 1,3,-1
 1050 0 l 1,4,-1
 52 0 l 1,5,-1
 52 88 l 1,0,-1
914 105 m 1,6,-1
 665 755 l 1,7,8
 654 789 654 789 638 831.5 c 128,-1,9
 622 874 622 874 605.5 917.5 c 128,-1,10
 589 961 589 961 574.5 1001.5 c 128,-1,11
 560 1042 560 1042 552 1072 c 1,12,-1
 546 1072 l 1,13,14
 540 1048 540 1048 527.5 1012.5 c 128,-1,15
 515 977 515 977 500 937.5 c 128,-1,16
 485 898 485 898 470 857.5 c 128,-1,17
 455 817 455 817 443 783 c 1,18,-1
 181 105 l 1,19,-1
 914 105 l 1,6,-1
EndSplineSet
EndChar

StartChar: radical
Encoding: 8730 8730 152
Width: 974
Flags: W
VStem: 880 94<1349.34 1412>
LayerCount: 2
Fore
SplineSet
594 -254 m 1,0,-1
 483 -254 l 1,1,-1
 211 535 l 1,2,-1
 83 486 l 1,3,-1
 58 565 l 1,4,-1
 288 656 l 1,5,-1
 508 23 l 1,6,7
 516 -9 516 -9 524 -42 c 128,-1,8
 532 -75 532 -75 537 -101 c 1,9,-1
 538 -101 l 1,10,11
 543 -77 543 -77 549.5 -43.5 c 128,-1,12
 556 -10 556 -10 562 22 c 1,13,-1
 880 1412 l 1,14,-1
 974 1412 l 1,15,-1
 594 -254 l 1,0,-1
EndSplineSet
EndChar

StartChar: divide
Encoding: 247 247 153
Width: 1176
Flags: W
HStem: 140 152<534.659 638.826> 513 119<119 1054> 853 151<534.659 638.826>
VStem: 513 148<162.69 269.31 875.174 981.31>
LayerCount: 2
Fore
SplineSet
119 632 m 1,0,-1
 1054 632 l 1,1,-1
 1054 513 l 1,2,-1
 119 513 l 1,3,-1
 119 632 l 1,0,-1
587 140 m 0,4,5
 555 140 555 140 534 162 c 128,-1,6
 513 184 513 184 513 216 c 256,7,8
 513 248 513 248 534 270 c 128,-1,9
 555 292 555 292 587 292 c 0,10,11
 618 292 618 292 639.5 270 c 128,-1,12
 661 248 661 248 661 216 c 256,13,14
 661 184 661 184 639.5 162 c 128,-1,15
 618 140 618 140 587 140 c 0,4,5
587 853 m 0,16,17
 555 853 555 853 534 874.5 c 128,-1,18
 513 896 513 896 513 928 c 256,19,20
 513 960 513 960 534 982 c 128,-1,21
 555 1004 555 1004 587 1004 c 0,22,23
 618 1004 618 1004 639.5 982 c 128,-1,24
 661 960 661 960 661 928 c 256,25,26
 661 896 661 896 639.5 874.5 c 128,-1,27
 618 853 618 853 587 853 c 0,16,17
EndSplineSet
EndChar

StartChar: lozenge
Encoding: 9674 9674 154
Width: 974
Flags: W
HStem: -77 106<470.57 503.031> 1156 110<469.243 502.033>
LayerCount: 2
Fore
SplineSet
535 -77 m 1,0,-1
 433 -77 l 1,1,-1
 93 593 l 1,2,-1
 437 1266 l 1,3,-1
 539 1266 l 1,4,-1
 880 593 l 1,5,-1
 535 -77 l 1,0,-1
520 1067 m 2,6,7
 510 1087 510 1087 501.5 1113 c 128,-1,8
 493 1139 493 1139 488 1156 c 1,9,-1
 484 1156 l 1,10,11
 478 1136 478 1136 470 1113.5 c 128,-1,12
 462 1091 462 1091 451 1067 c 1,13,-1
 207 596 l 1,14,-1
 454 116 l 1,15,16
 465 91 465 91 472.5 67.5 c 128,-1,17
 480 44 480 44 483 29 c 1,18,-1
 490 29 l 1,19,20
 494 46 494 46 502.5 72 c 128,-1,21
 511 98 511 98 519 114 c 2,22,-1
 765 590 l 1,23,-1
 520 1067 l 2,6,7
EndSplineSet
EndChar

StartChar: daggerdbl
Encoding: 8225 8225 155
Width: 918
Flags: W
HStem: -366 21G<387 531> -10 160<71 300.377 616.623 847> 699 160<71 300.377 616.623 847>
VStem: 392 133<-366 23 121 728 826 1215>
LayerCount: 2
Fore
SplineSet
525 121 m 1,0,-1
 687 150 l 1,1,-1
 847 150 l 1,2,-1
 847 -10 l 1,3,-1
 687 -10 l 1,4,-1
 525 23 l 1,5,-1
 531 -168 l 1,6,-1
 531 -366 l 1,7,-1
 387 -366 l 1,8,-1
 387 -168 l 1,9,-1
 392 23 l 1,10,-1
 230 -10 l 1,11,-1
 71 -10 l 1,12,-1
 71 150 l 1,13,-1
 230 150 l 1,14,-1
 392 121 l 1,15,-1
 392 728 l 1,16,-1
 230 699 l 1,17,-1
 71 699 l 1,18,-1
 71 859 l 1,19,-1
 230 859 l 1,20,-1
 392 826 l 1,21,-1
 387 1017 l 1,22,-1
 387 1215 l 1,23,-1
 531 1215 l 1,24,-1
 531 1017 l 1,25,-1
 525 826 l 1,26,-1
 687 859 l 1,27,-1
 847 859 l 1,28,-1
 847 699 l 1,29,-1
 687 699 l 1,30,-1
 525 728 l 1,31,-1
 525 121 l 1,0,-1
EndSplineSet
EndChar

StartChar: dotlessi
Encoding: 305 305 156
Width: 507
Flags: W
HStem: 0 122<45 180 329 465> 685 120<45 180>
VStem: 180 149<124 685>
LayerCount: 2
Fore
SplineSet
45 124 m 1,0,-1
 180 124 l 1,1,-1
 180 685 l 1,2,-1
 45 685 l 1,3,-1
 45 805 l 1,4,-1
 329 805 l 1,5,-1
 329 122 l 1,6,-1
 465 122 l 1,7,-1
 465 0 l 1,8,-1
 45 0 l 1,9,-1
 45 124 l 1,0,-1
EndSplineSet
EndChar

StartChar: lessequal
Encoding: 8804 8804 157
Width: 958
Flags: W
HStem: 0 97<86 872>
LayerCount: 2
Fore
SplineSet
95 548 m 1,0,-1
 95 648 l 1,1,-1
 867 1032 l 1,2,-1
 867 921 l 1,3,-1
 193 600 l 1,4,-1
 193 597 l 1,5,-1
 869 274 l 1,6,-1
 869 163 l 1,7,-1
 95 548 l 1,0,-1
86 0 m 1,8,-1
 86 97 l 1,9,-1
 872 97 l 1,10,-1
 872 0 l 1,11,-1
 86 0 l 1,8,-1
EndSplineSet
EndChar

StartChar: greaterequal
Encoding: 8805 8805 158
Width: 958
Flags: W
HStem: 0 97<88 870>
LayerCount: 2
Fore
SplineSet
869 647 m 1,0,-1
 869 548 l 1,1,-1
 97 163 l 1,2,-1
 97 274 l 1,3,-1
 770 595 l 1,4,-1
 770 600 l 1,5,-1
 97 921 l 1,6,-1
 97 1032 l 1,7,-1
 869 647 l 1,0,-1
88 0 m 1,8,-1
 88 97 l 1,9,-1
 870 97 l 1,10,-1
 870 0 l 1,11,-1
 88 0 l 1,8,-1
EndSplineSet
EndChar

StartChar: infinity
Encoding: 8734 8734 159
Width: 1328
Flags: W
HStem: 215 89<239.168 478.385 861.903 1091.69> 674 87<236.343 474.591 860.371 1093.27>
VStem: 84 96<362.262 617.959> 1148 94<361.953 620.087>
LayerCount: 2
Fore
SplineSet
1242 491 m 2,0,1
 1242 427 1242 427 1220 376 c 128,-1,2
 1198 325 1198 325 1161.5 289 c 128,-1,3
 1125 253 1125 253 1077 234 c 128,-1,4
 1029 215 1029 215 978 215 c 0,5,6
 938 215 938 215 901 227 c 128,-1,7
 864 239 864 239 826.5 263.5 c 128,-1,8
 789 288 789 288 749.5 325.5 c 128,-1,9
 710 363 710 363 666 415 c 1,10,11
 632 376 632 376 597.5 340 c 128,-1,12
 563 304 563 304 524 276 c 128,-1,13
 485 248 485 248 440.5 231.5 c 128,-1,14
 396 215 396 215 343 215 c 0,15,16
 292 215 292 215 245 235.5 c 128,-1,17
 198 256 198 256 162 292 c 128,-1,18
 126 328 126 328 105 377.5 c 128,-1,19
 84 427 84 427 84 486 c 0,20,21
 84 546 84 546 104.5 596.5 c 128,-1,22
 125 647 125 647 161.5 683.5 c 128,-1,23
 198 720 198 720 248.5 740.5 c 128,-1,24
 299 761 299 761 358 761 c 0,25,26
 406 761 406 761 448.5 745 c 128,-1,27
 491 729 491 729 529 701.5 c 128,-1,28
 567 674 567 674 602.5 638 c 128,-1,29
 638 602 638 602 673 562 c 1,30,31
 703 596 703 596 735.5 631.5 c 128,-1,32
 768 667 768 667 805.5 696 c 128,-1,33
 843 725 843 725 887.5 743 c 128,-1,34
 932 761 932 761 986 761 c 0,35,36
 1042 761 1042 761 1089 742 c 128,-1,37
 1136 723 1136 723 1170 688 c 128,-1,38
 1204 653 1204 653 1223 603.5 c 128,-1,39
 1242 554 1242 554 1242 494 c 2,40,-1
 1242 491 l 2,0,1
359 304 m 2,41,42
 399 304 399 304 434 321.5 c 128,-1,43
 469 339 469 339 501 365 c 128,-1,44
 533 391 533 391 561.5 422.5 c 128,-1,45
 590 454 590 454 617 482 c 1,46,47
 588 517 588 517 559.5 551.5 c 128,-1,48
 531 586 531 586 498.5 613 c 128,-1,49
 466 640 466 640 429 657 c 128,-1,50
 392 674 392 674 347 674 c 0,51,52
 308 674 308 674 277 659 c 128,-1,53
 246 644 246 644 224.5 618 c 128,-1,54
 203 592 203 592 191.5 557.5 c 128,-1,55
 180 523 180 523 180 484 c 0,56,57
 180 447 180 447 193 414.5 c 128,-1,58
 206 382 206 382 229 357.5 c 128,-1,59
 252 333 252 333 284.5 318.5 c 128,-1,60
 317 304 317 304 356 304 c 2,61,-1
 359 304 l 2,41,42
978 674 m 2,62,63
 936 674 936 674 898 654 c 128,-1,64
 860 634 860 634 827.5 605.5 c 128,-1,65
 795 577 795 577 768 545.5 c 128,-1,66
 741 514 741 514 719 491 c 1,67,68
 761 444 761 444 794.5 408.5 c 128,-1,69
 828 373 828 373 859 350 c 128,-1,70
 890 327 890 327 919.5 315.5 c 128,-1,71
 949 304 949 304 983 304 c 0,72,73
 1023 304 1023 304 1053.5 320.5 c 128,-1,74
 1084 337 1084 337 1105 363 c 128,-1,75
 1126 389 1126 389 1137 421.5 c 128,-1,76
 1148 454 1148 454 1148 486 c 0,77,78
 1148 529 1148 529 1135.5 564 c 128,-1,79
 1123 599 1123 599 1100.5 623.5 c 128,-1,80
 1078 648 1078 648 1047.5 661 c 128,-1,81
 1017 674 1017 674 980 674 c 2,82,-1
 978 674 l 2,62,63
EndSplineSet
EndChar

StartChar: notequal
Encoding: 8800 8800 160
Width: 958
Flags: W
HStem: 267 94<86 336 464 872> 606 93<86 486 611 872>
LayerCount: 2
Fore
SplineSet
611 699 m 1,0,-1
 872 699 l 1,1,-1
 872 606 l 1,2,-1
 574 606 l 1,3,-1
 464 361 l 1,4,-1
 872 361 l 1,5,-1
 872 267 l 1,6,-1
 427 267 l 1,7,-1
 335 67 l 1,8,-1
 261 101 l 1,9,-1
 336 267 l 1,10,-1
 86 267 l 1,11,-1
 86 361 l 1,12,-1
 375 361 l 1,13,-1
 486 606 l 1,14,-1
 86 606 l 1,15,-1
 86 699 l 1,16,-1
 523 699 l 1,17,-1
 613 896 l 1,18,-1
 687 863 l 1,19,-1
 611 699 l 1,0,-1
EndSplineSet
EndChar

StartChar: ordfeminine
Encoding: 170 170 161
Width: 606
Flags: W
HStem: 692 78<163.279 354.016> 701 88<243.095 374.337 489 581> 937 76<173.426 368.682> 1133 82<167.094 362.276>
VStem: 40 103<787.476 918.016> 386 103<798.418 914.392 970 1106.7>
LayerCount: 2
Fore
SplineSet
581 701 m 1,0,-1
 396 701 l 1,1,-1
 396 763 l 1,2,3
 361 730 361 730 316 711 c 128,-1,4
 271 692 271 692 224 692 c 0,5,6
 185 692 185 692 151.5 704 c 128,-1,7
 118 716 118 716 93.5 737.5 c 128,-1,8
 69 759 69 759 54.5 788 c 128,-1,9
 40 817 40 817 40 851 c 256,10,11
 40 885 40 885 55 915 c 128,-1,12
 70 945 70 945 97 966.5 c 128,-1,13
 124 988 124 988 160.5 1000.5 c 128,-1,14
 197 1013 197 1013 240 1013 c 0,15,16
 275 1013 275 1013 313 1001.5 c 128,-1,17
 351 990 351 990 386 970 c 1,18,-1
 386 1039 l 2,19,20
 386 1082 386 1082 356 1107.5 c 128,-1,21
 326 1133 326 1133 266 1133 c 0,22,23
 226 1133 226 1133 197.5 1117 c 128,-1,24
 169 1101 169 1101 150 1072 c 1,25,-1
 49 1099 l 1,26,27
 117 1215 117 1215 282 1215 c 0,28,29
 320 1215 320 1215 357 1208.5 c 128,-1,30
 394 1202 394 1202 423.5 1184 c 128,-1,31
 453 1166 453 1166 471 1135 c 128,-1,32
 489 1104 489 1104 489 1055 c 2,33,-1
 489 789 l 1,34,-1
 581 789 l 1,35,-1
 581 701 l 1,0,-1
386 888 m 1,36,37
 354 911 354 911 317.5 924 c 128,-1,38
 281 937 281 937 249 937 c 0,39,40
 202 937 202 937 172.5 913.5 c 128,-1,41
 143 890 143 890 143 852 c 0,42,43
 143 815 143 815 170 792.5 c 128,-1,44
 197 770 197 770 242 770 c 0,45,46
 277 770 277 770 315.5 786 c 128,-1,47
 354 802 354 802 386 830 c 1,48,-1
 386 888 l 1,36,37
EndSplineSet
EndChar

StartChar: copyright
Encoding: 169 169 162
Width: 1304
Flags: W
HStem: -15 106<436.308 864.363> 261 102<514.922 782.457> 902 95<521.335 788.259> 1175 107<435.055 865.203>
VStem: 2 107<418.797 848.945> 311 119<452.577 804.919> 1192 107<419.637 848.945>
LayerCount: 2
Fore
SplineSet
965 497 m 1,0,1
 952 442 952 442 924 398.5 c 128,-1,2
 896 355 896 355 855.5 324.5 c 128,-1,3
 815 294 815 294 763.5 277.5 c 128,-1,4
 712 261 712 261 652 261 c 0,5,6
 574 261 574 261 511 287.5 c 128,-1,7
 448 314 448 314 403.5 362.5 c 128,-1,8
 359 411 359 411 335 479.5 c 128,-1,9
 311 548 311 548 311 632 c 256,10,11
 311 716 311 716 335 784 c 128,-1,12
 359 852 359 852 404 899 c 128,-1,13
 449 946 449 946 513.5 971.5 c 128,-1,14
 578 997 578 997 659 997 c 0,15,16
 771 997 771 997 847.5 944.5 c 128,-1,17
 924 892 924 892 953 795 c 1,18,-1
 851 770 l 1,19,20
 825 833 825 833 775 867.5 c 128,-1,21
 725 902 725 902 655 902 c 0,22,23
 604 902 604 902 562 882.5 c 128,-1,24
 520 863 520 863 491 827.5 c 128,-1,25
 462 792 462 792 446 741.5 c 128,-1,26
 430 691 430 691 430 629 c 256,27,28
 430 567 430 567 445 518 c 128,-1,29
 460 469 460 469 488 434.5 c 128,-1,30
 516 400 516 400 556.5 381.5 c 128,-1,31
 597 363 597 363 647 363 c 0,32,33
 726 363 726 363 782.5 407.5 c 128,-1,34
 839 452 839 452 859 528 c 1,35,-1
 965 497 l 1,0,1
650 1282 m 256,36,37
 740 1282 740 1282 823 1259 c 128,-1,38
 906 1236 906 1236 978 1194 c 128,-1,39
 1050 1152 1050 1152 1109.5 1093 c 128,-1,40
 1169 1034 1169 1034 1211 962 c 128,-1,41
 1253 890 1253 890 1276 807 c 128,-1,42
 1299 724 1299 724 1299 634 c 256,43,44
 1299 544 1299 544 1276 461 c 128,-1,45
 1253 378 1253 378 1211 306 c 128,-1,46
 1169 234 1169 234 1109.5 174.5 c 128,-1,47
 1050 115 1050 115 978 73 c 128,-1,48
 906 31 906 31 823 8 c 128,-1,49
 740 -15 740 -15 650 -15 c 256,50,51
 560 -15 560 -15 477 8 c 128,-1,52
 394 31 394 31 322 73 c 128,-1,53
 250 115 250 115 191 174.5 c 128,-1,54
 132 234 132 234 90 306 c 128,-1,55
 48 378 48 378 25 461 c 128,-1,56
 2 544 2 544 2 634 c 256,57,58
 2 724 2 724 25 807 c 128,-1,59
 48 890 48 890 90 962 c 128,-1,60
 132 1034 132 1034 191 1093 c 128,-1,61
 250 1152 250 1152 322 1194 c 128,-1,62
 394 1236 394 1236 477 1259 c 128,-1,63
 560 1282 560 1282 650 1282 c 256,36,37
650 1175 m 256,64,65
 538 1175 538 1175 439.5 1132.5 c 128,-1,66
 341 1090 341 1090 267.5 1016.5 c 128,-1,67
 194 943 194 943 151.5 844.5 c 128,-1,68
 109 746 109 746 109 634 c 256,69,70
 109 522 109 522 151.5 423 c 128,-1,71
 194 324 194 324 267.5 250.5 c 128,-1,72
 341 177 341 177 439.5 134 c 128,-1,73
 538 91 538 91 650 91 c 0,74,75
 725 91 725 91 794 110.5 c 128,-1,76
 863 130 863 130 923.5 165.5 c 128,-1,77
 984 201 984 201 1033.5 250.5 c 128,-1,78
 1083 300 1083 300 1118 360.5 c 128,-1,79
 1153 421 1153 421 1172.5 490 c 128,-1,80
 1192 559 1192 559 1192 634 c 0,81,82
 1192 746 1192 746 1149.5 844.5 c 128,-1,83
 1107 943 1107 943 1033.5 1016.5 c 128,-1,84
 960 1090 960 1090 861 1132.5 c 128,-1,85
 762 1175 762 1175 650 1175 c 256,64,65
EndSplineSet
EndChar

StartChar: dagger
Encoding: 8224 8224 163
Width: 918
Flags: W
HStem: 666 166<75 314.417 603.134 843>
VStem: 370 178<-382 553.925 919.423 1215>
LayerCount: 2
Fore
SplineSet
517 691 m 1,0,-1
 548 436 l 1,1,-1
 534 -382 l 1,2,-1
 384 -382 l 1,3,-1
 370 438 l 1,4,-1
 401 691 l 1,5,-1
 208 666 l 1,6,-1
 75 666 l 1,7,-1
 75 832 l 1,8,-1
 208 832 l 1,9,-1
 401 806 l 1,10,-1
 370 1017 l 1,11,-1
 370 1215 l 1,12,-1
 548 1215 l 1,13,-1
 548 1017 l 1,14,-1
 517 806 l 1,15,-1
 709 832 l 1,16,-1
 843 832 l 1,17,-1
 843 666 l 1,18,-1
 709 666 l 1,19,-1
 517 691 l 1,0,-1
EndSplineSet
EndChar

StartChar: less
Encoding: 60 60 169
Width: 1175
Flags: W
LayerCount: 2
Fore
SplineSet
277 572 m 1,0,-1
 1056 252 l 1,1,-1
 1056 124 l 1,2,-1
 120 518 l 1,3,-1
 120 625 l 1,4,-1
 1056 1019 l 1,5,-1
 1056 891 l 1,6,-1
 277 572 l 1,0,-1
EndSplineSet
EndChar

StartChar: asciicircum
Encoding: 94 94 170
Width: 826
Flags: W
HStem: 580 616
LayerCount: 2
Fore
SplineSet
838 580 m 1,0,-1
 687 580 l 1,1,-1
 415 1035 l 1,2,-1
 139 580 l 1,3,-1
 -12 580 l 1,4,-1
 359 1196 l 1,5,-1
 472 1196 l 1,6,-1
 838 580 l 1,0,-1
EndSplineSet
EndChar

StartChar: braceright
Encoding: 125 125 171
Width: 574
Flags: W
HStem: -342 106<52 198.982> 353 117<404.598 528> 1059 107<52 198.75>
VStem: 226 129<-188.056 303.664 520.188 1032.53>
LayerCount: 2
Fore
SplineSet
528 353 m 1,0,1
 471 353 471 353 437 334.5 c 128,-1,2
 403 316 403 316 385 280.5 c 128,-1,3
 367 245 367 245 361 194.5 c 128,-1,4
 355 144 355 144 355 81 c 0,5,6
 355 -14 355 -14 351 -92 c 128,-1,7
 347 -170 347 -170 324.5 -225.5 c 128,-1,8
 302 -281 302 -281 254.5 -311.5 c 128,-1,9
 207 -342 207 -342 119 -342 c 2,10,-1
 52 -342 l 1,11,-1
 52 -236 l 1,12,13
 116 -236 116 -236 150.5 -227.5 c 128,-1,14
 185 -219 185 -219 201 -189 c 128,-1,15
 217 -159 217 -159 219.5 -101.5 c 128,-1,16
 222 -44 222 -44 222 53 c 0,17,18
 222 135 222 135 230.5 193.5 c 128,-1,19
 239 252 239 252 259 293.5 c 128,-1,20
 279 335 279 335 311.5 363 c 128,-1,21
 344 391 344 391 392 412 c 1,22,23
 334 437 334 437 300 470.5 c 128,-1,24
 266 504 266 504 248.5 557.5 c 128,-1,25
 231 611 231 611 226 691 c 128,-1,26
 221 771 221 771 221 890 c 1,27,28
 220 944 220 944 213 977.5 c 128,-1,29
 206 1011 206 1011 187 1029 c 128,-1,30
 168 1047 168 1047 135.5 1053 c 128,-1,31
 103 1059 103 1059 52 1059 c 1,32,-1
 52 1166 l 1,33,-1
 120 1166 l 1,34,35
 209 1165 209 1165 257 1133 c 128,-1,36
 305 1101 305 1101 326.5 1043.5 c 128,-1,37
 348 986 348 986 351.5 907 c 128,-1,38
 355 828 355 828 355 733 c 0,39,40
 355 671 355 671 361.5 622 c 128,-1,41
 368 573 368 573 386.5 539.5 c 128,-1,42
 405 506 405 506 439 488 c 128,-1,43
 473 470 473 470 528 470 c 1,44,-1
 528 353 l 1,0,1
EndSplineSet
EndChar

StartChar: AE
Encoding: 198 198 204
Width: 2307
Flags: W
HStem: 0 127<28 182 331 470 795 964 1125 1616> 424 121<482 865> 548 107<1022 1360> 1026 127<653.107 750 910 1426> 1043 110<450 539>
VStem: 1346 87<708.451 769>
LayerCount: 2
Fore
SplineSet
1603 832 m 1,0,-1
 1471 832 l 1,1,-1
 1426 1026 l 1,2,-1
 910 1026 l 1,3,-1
 998 655 l 1,4,-1
 1360 655 l 1,5,-1
 1346 769 l 1,6,-1
 1433 769 l 1,7,-1
 1518 410 l 1,8,-1
 1430 410 l 1,9,-1
 1381 548 l 1,10,-1
 1022 548 l 1,11,-1
 1125 127 l 1,12,-1
 1616 127 l 1,13,-1
 1568 328 l 1,14,-1
 1697 328 l 1,15,-1
 1775 0 l 1,16,-1
 784 0 l 1,17,-1
 795 127 l 1,18,-1
 964 127 l 1,19,-1
 894 424 l 1,20,-1
 433 424 l 1,21,-1
 331 126 l 1,22,-1
 481 126 l 1,23,-1
 470 0 l 1,24,-1
 17 0 l 1,25,-1
 28 125 l 1,26,-1
 165 127 l 1,27,28
 233 305 233 305 301 473 c 0,29,30
 330 545 330 545 361 621.5 c 128,-1,31
 392 698 392 698 423 772.5 c 128,-1,32
 454 847 454 847 483.5 916 c 128,-1,33
 513 985 513 985 539 1041 c 1,34,-1
 439 1043 l 1,35,-1
 450 1153 l 1,36,-1
 1527 1153 l 1,37,-1
 1603 832 l 1,0,-1
865 545 m 1,38,-1
 857 577 l 1,39,-1
 750 1029 l 1,40,-1
 674 1029 l 1,41,42
 667 1014 667 1014 655 985.5 c 128,-1,43
 643 957 643 957 628 920.5 c 128,-1,44
 613 884 613 884 596.5 842 c 128,-1,45
 580 800 580 800 564 758 c 0,46,47
 526 660 526 660 482 545 c 1,48,-1
 865 545 l 1,38,-1
EndSplineSet
EndChar

StartChar: yen
Encoding: 165 165 205
Width: 1131
Flags: W
HStem: 0 126<329 488 648 812> 297 117<184 488 648 947> 503 119<184 422 712 947> 1026 127<-16 130 306 456 687 837 991 1147>
VStem: 488 160<127 297 414 503>
LayerCount: 2
Fore
SplineSet
422 622 m 1,0,-1
 130 1029 l 1,1,-1
 -16 1029 l 1,2,-1
 -16 1153 l 1,3,-1
 456 1153 l 1,4,-1
 456 1026 l 1,5,-1
 306 1026 l 1,6,-1
 580 630 l 1,7,-1
 837 1027 l 1,8,-1
 687 1027 l 1,9,-1
 687 1153 l 1,10,-1
 1147 1153 l 1,11,-1
 1147 1026 l 1,12,-1
 991 1026 l 1,13,-1
 712 622 l 1,14,-1
 947 622 l 1,15,-1
 947 503 l 1,16,-1
 648 503 l 1,17,-1
 648 414 l 1,18,-1
 947 414 l 1,19,-1
 947 297 l 1,20,-1
 648 297 l 1,21,-1
 648 126 l 1,22,-1
 812 126 l 1,23,-1
 812 0 l 1,24,-1
 329 0 l 1,25,-1
 329 127 l 1,26,-1
 488 127 l 1,27,-1
 488 297 l 1,28,-1
 184 297 l 1,29,-1
 184 414 l 1,30,-1
 488 414 l 1,31,-1
 488 503 l 1,32,-1
 184 503 l 1,33,-1
 184 622 l 1,34,-1
 422 622 l 1,0,-1
EndSplineSet
EndChar

StartChar: ae
Encoding: 230 230 206
Width: 1913
Flags: W
HStem: -14 110<253.274 558.639 900.822 1197.34> 360.5 89.5<435.686 617> 368 102<260.641 613.877 785 1273> 709 118<274.875 569.224 887.243 1171.19>
VStem: 77 141<130.178 324.489> 617 164<221.322 352>
LayerCount: 2
Fore
SplineSet
349 -14 m 0,0,1
 286 -14 286 -14 235.5 5.5 c 128,-1,2
 185 25 185 25 149.5 57.5 c 128,-1,3
 114 90 114 90 95.5 132.5 c 128,-1,4
 77 175 77 175 77 221 c 0,5,6
 77 293 77 293 104.5 341 c 128,-1,7
 132 389 132 389 179 417.5 c 128,-1,8
 226 446 226 446 289.5 458 c 128,-1,9
 353 470 353 470 424 470 c 0,10,11
 517 470 517 470 617 450 c 1,12,-1
 617 547 l 2,13,14
 617 591 617 591 601.5 622 c 128,-1,15
 586 653 586 653 559 672.5 c 128,-1,16
 532 692 532 692 496.5 700.5 c 128,-1,17
 461 709 461 709 421 709 c 0,18,19
 359 709 359 709 312 688 c 128,-1,20
 265 667 265 667 236 626 c 1,21,-1
 96 665 l 1,22,23
 142 744 142 744 229 785.5 c 128,-1,24
 316 827 316 827 441 827 c 0,25,26
 499 827 499 827 544.5 816 c 128,-1,27
 590 805 590 805 624.5 785.5 c 128,-1,28
 659 766 659 766 683.5 739 c 128,-1,29
 708 712 708 712 724 680 c 1,30,31
 782 749 782 749 860.5 788 c 128,-1,32
 939 827 939 827 1034 827 c 256,33,34
 1129 827 1129 827 1200.5 791 c 128,-1,35
 1272 755 1272 755 1320 693.5 c 128,-1,36
 1368 632 1368 632 1392 551.5 c 128,-1,37
 1416 471 1416 471 1416 382 c 2,38,-1
 1416 365 l 1,39,-1
 1096 363 l 1,40,-1
 781 365 l 1,41,42
 788 307 788 307 807.5 258.5 c 128,-1,43
 827 210 827 210 859.5 175 c 128,-1,44
 892 140 892 140 937.5 120.5 c 128,-1,45
 983 101 983 101 1041 101 c 0,46,47
 1115 101 1115 101 1180.5 131.5 c 128,-1,48
 1246 162 1246 162 1288 217 c 1,49,-1
 1416 161 l 1,50,51
 1361 75 1361 75 1263.5 26 c 128,-1,52
 1166 -23 1166 -23 1038 -23 c 0,53,54
 933 -23 933 -23 850.5 10.5 c 128,-1,55
 768 44 768 44 709 103 c 1,56,57
 662 74 662 74 619.5 52.5 c 128,-1,58
 577 31 577 31 535 16 c 128,-1,59
 493 1 493 1 447.5 -6.5 c 128,-1,60
 402 -14 402 -14 349 -14 c 0,0,1
1273 467 m 1,61,62
 1265 516 1265 516 1246.5 561 c 128,-1,63
 1228 606 1228 606 1198 639.5 c 128,-1,64
 1168 673 1168 673 1127.5 693 c 128,-1,65
 1087 713 1087 713 1036 713 c 0,66,67
 981 713 981 713 938 694.5 c 128,-1,68
 895 676 895 676 863.5 643 c 128,-1,69
 832 610 832 610 812 565 c 128,-1,70
 792 520 792 520 785 467 c 1,71,-1
 1273 467 l 1,61,62
617 352 m 1,72,73
 585 353 585 353 536.5 360.5 c 128,-1,74
 488 368 488 368 434 368 c 0,75,76
 395 368 395 368 356 362.5 c 128,-1,77
 317 357 317 357 286.5 341 c 128,-1,78
 256 325 256 325 237 296 c 128,-1,79
 218 267 218 267 218 221 c 0,80,81
 218 168 218 168 257 132 c 128,-1,82
 296 96 296 96 370 96 c 0,83,84
 403 96 403 96 437 102 c 128,-1,85
 471 108 471 108 503.5 118.5 c 128,-1,86
 536 129 536 129 565 144 c 128,-1,87
 594 159 594 159 617 178 c 1,88,-1
 617 352 l 1,72,73
EndSplineSet
EndChar

StartChar: OE
Encoding: 338 338 211
Width: 2460
Flags: W
HStem: -19 141<553.662 977.877> 0 127<1262 1787> 526 129<1262 1621> 1026 127<749.719 1007.72 1260 1784> 1040 131<546.265 974.616>
VStem: 151 178<351.878 809.835> 1101 161<205.675 526 655 957.875> 1634 88<410 526 655 769> 1787 129<127 328 832 1026>
LayerCount: 2
Fore
SplineSet
1916 1153 m 1,0,-1
 1916 832 l 1,1,-1
 1784 832 l 1,2,-1
 1784 1026 l 1,3,-1
 1260 1026 l 1,4,-1
 1260 655 l 1,5,-1
 1622 655 l 1,6,-1
 1635 769 l 1,7,-1
 1722 769 l 1,8,-1
 1722 410 l 1,9,-1
 1634 410 l 1,10,-1
 1621 526 l 1,11,-1
 1262 526 l 1,12,-1
 1262 127 l 1,13,-1
 1787 127 l 1,14,-1
 1787 328 l 1,15,-1
 1916 328 l 1,16,-1
 1916 0 l 1,17,-1
 1101 0 l 1,18,-1
 1101 95 l 1,19,20
 1033 41 1033 41 937 11 c 128,-1,21
 841 -19 841 -19 720 -19 c 0,22,23
 587 -19 587 -19 481.5 27 c 128,-1,24
 376 73 376 73 302.5 153.5 c 128,-1,25
 229 234 229 234 190 342 c 128,-1,26
 151 450 151 450 151 575 c 256,27,28
 151 700 151 700 190 809 c 128,-1,29
 229 918 229 918 302.5 998.5 c 128,-1,30
 376 1079 376 1079 481.5 1125 c 128,-1,31
 587 1171 587 1171 720 1171 c 0,32,33
 841 1171 841 1171 937 1141 c 128,-1,34
 1033 1111 1033 1111 1101 1057 c 1,35,-1
 1101 1153 l 1,36,-1
 1916 1153 l 1,0,-1
329 575 m 0,37,38
 329 458 329 458 364.5 372.5 c 128,-1,39
 400 287 400 287 459 231.5 c 128,-1,40
 518 176 518 176 596 149 c 128,-1,41
 674 122 674 122 758 122 c 0,42,43
 846 122 846 122 934.5 150.5 c 128,-1,44
 1023 179 1023 179 1101 235 c 1,45,-1
 1101 933 l 1,46,47
 1014 986 1014 986 924 1013 c 128,-1,48
 834 1040 834 1040 747 1040 c 0,49,50
 661 1040 661 1040 585 1012 c 128,-1,51
 509 984 509 984 452 926.5 c 128,-1,52
 395 869 395 869 362 781.5 c 128,-1,53
 329 694 329 694 329 575 c 0,37,38
EndSplineSet
EndChar

StartChar: oe
Encoding: 339 339 212
Width: 1685
Flags: W
HStem: -23 137<344.783 647.959 1033.27 1411.49> 365 102<932 1463> 691 136<345.605 647.204> 713 114<1051.03 1348.76>
VStem: 71 159<233.458 570.995>
LayerCount: 2
Fore
SplineSet
1269 363 m 1,0,-1
 928 365 l 1,1,2
 936 307 936 307 957.5 258.5 c 128,-1,3
 979 210 979 210 1014.5 175 c 128,-1,4
 1050 140 1050 140 1100 120.5 c 128,-1,5
 1150 101 1150 101 1214 101 c 0,6,7
 1293 101 1293 101 1363 131.5 c 128,-1,8
 1433 162 1433 162 1478 217 c 1,9,-1
 1606 161 l 1,10,11
 1549 75 1549 75 1447 26 c 128,-1,12
 1345 -23 1345 -23 1211 -23 c 0,13,14
 1087 -23 1087 -23 994.5 28 c 128,-1,15
 902 79 902 79 845 164 c 1,16,17
 789 80 789 80 700 28.5 c 128,-1,18
 611 -23 611 -23 496 -23 c 0,19,20
 398 -23 398 -23 319.5 11 c 128,-1,21
 241 45 241 45 186 103 c 128,-1,22
 131 161 131 161 101 238 c 128,-1,23
 71 315 71 315 71 402 c 256,24,25
 71 489 71 489 101 566 c 128,-1,26
 131 643 131 643 186.5 701 c 128,-1,27
 242 759 242 759 321 793 c 128,-1,28
 400 827 400 827 498 827 c 0,29,30
 613 827 613 827 701 775.5 c 128,-1,31
 789 724 789 724 845 639 c 1,32,33
 905 727 905 727 998 777 c 128,-1,34
 1091 827 1091 827 1207 827 c 0,35,36
 1306 827 1306 827 1380.5 791 c 128,-1,37
 1455 755 1455 755 1505.5 693.5 c 128,-1,38
 1556 632 1556 632 1581 551.5 c 128,-1,39
 1606 471 1606 471 1606 382 c 2,40,-1
 1606 365 l 1,41,-1
 1269 363 l 1,0,-1
496 114 m 0,42,43
 558 114 558 114 607.5 136 c 128,-1,44
 657 158 657 158 692 197 c 128,-1,45
 727 236 727 236 745.5 288.5 c 128,-1,46
 764 341 764 341 764 402 c 256,47,48
 764 463 764 463 745.5 516 c 128,-1,49
 727 569 727 569 692 608 c 128,-1,50
 657 647 657 647 607.5 669 c 128,-1,51
 558 691 558 691 496 691 c 0,52,53
 435 691 435 691 385.5 669 c 128,-1,54
 336 647 336 647 301.5 608 c 128,-1,55
 267 569 267 569 248.5 516 c 128,-1,56
 230 463 230 463 230 402 c 256,57,58
 230 341 230 341 248.5 288.5 c 128,-1,59
 267 236 267 236 301.5 197 c 128,-1,60
 336 158 336 158 385.5 136 c 128,-1,61
 435 114 435 114 496 114 c 0,42,43
1463 467 m 1,62,63
 1455 516 1455 516 1434.5 561 c 128,-1,64
 1414 606 1414 606 1382 639.5 c 128,-1,65
 1350 673 1350 673 1306.5 693 c 128,-1,66
 1263 713 1263 713 1209 713 c 0,67,68
 1148 713 1148 713 1100.5 694.5 c 128,-1,69
 1053 676 1053 676 1018.5 643 c 128,-1,70
 984 610 984 610 962.5 565 c 128,-1,71
 941 520 941 520 932 467 c 1,72,-1
 1463 467 l 1,62,63
EndSplineSet
EndChar

StartChar: minus
Encoding: 8722 8722 234
Width: 623
Flags: W
HStem: 340 144<54 571>
VStem: 54 517<340 484>
LayerCount: 2
Fore
SplineSet
54 484 m 1,0,-1
 571 484 l 1,1,-1
 571 340 l 1,2,-1
 54 340 l 1,3,-1
 54 484 l 1,0,-1
EndSplineSet
EndChar

StartChar: brokenbar
Encoding: 166 166 235
Width: 848
Flags: W
HStem: -363 21G<363 485> 1151 20G<363 485>
VStem: 363 122<-363 263 550 1171>
LayerCount: 2
Fore
SplineSet
485 263 m 1,0,-1
 485 -363 l 1,1,-1
 363 -363 l 1,2,-1
 363 263 l 1,3,-1
 485 263 l 1,0,-1
485 1171 m 1,4,-1
 485 550 l 1,5,-1
 363 550 l 1,6,-1
 363 1171 l 1,7,-1
 485 1171 l 1,4,-1
EndSplineSet
EndChar

StartChar: twosuperior
Encoding: 178 178 236
Width: 957
Flags: W
HStem: 318 94<189 544> 1084 87<240.212 479.764>
VStem: 95 103<412.134 528.195 865 1043.8> 518 116<835.24 1046.61> 544 86<412 591>
LayerCount: 2
Fore
SplineSet
630 318 m 1,0,-1
 351 316 l 1,1,-1
 77 318 l 1,2,3
 77 396 77 396 105.5 471.5 c 128,-1,4
 134 547 134 547 197 623 c 0,5,6
 243 679 243 679 292.5 716 c 128,-1,7
 342 753 342 753 403 785 c 0,8,9
 461 816 461 816 489.5 854 c 128,-1,10
 518 892 518 892 518 943 c 0,11,12
 518 1006 518 1006 478.5 1045 c 128,-1,13
 439 1084 439 1084 358 1084 c 0,14,15
 268 1084 268 1084 233 1031.5 c 128,-1,16
 198 979 198 979 198 865 c 1,17,-1
 98 865 l 1,18,19
 98 870 98 870 97.5 878.5 c 128,-1,20
 97 887 97 887 96.5 895.5 c 128,-1,21
 96 904 96 904 95.5 911.5 c 128,-1,22
 95 919 95 919 95 923 c 0,23,24
 95 986 95 986 115 1032.5 c 128,-1,25
 135 1079 135 1079 170.5 1109.5 c 128,-1,26
 206 1140 206 1140 253.5 1155.5 c 128,-1,27
 301 1171 301 1171 357 1171 c 0,28,29
 436 1171 436 1171 489 1150 c 128,-1,30
 542 1129 542 1129 574 1096.5 c 128,-1,31
 606 1064 606 1064 620 1024 c 128,-1,32
 634 984 634 984 634 946 c 0,33,34
 634 901 634 901 618 863.5 c 128,-1,35
 602 826 602 826 574.5 794 c 128,-1,36
 547 762 547 762 508.5 735.5 c 128,-1,37
 470 709 470 709 425 685 c 0,38,39
 375 659 375 659 339.5 631 c 128,-1,40
 304 603 304 603 273 568 c 0,41,42
 245 537 245 537 221 494 c 128,-1,43
 197 451 197 451 189 412 c 1,44,-1
 363 412 l 1,45,-1
 544 412 l 1,46,-1
 544 591 l 1,47,-1
 630 591 l 1,48,-1
 630 318 l 1,0,-1
EndSplineSet
EndChar

StartChar: threesuperior
Encoding: 179 179 237
Width: 959
Flags: W
HStem: 240 94<240.203 526.362> 674 99<290 497.973> 1077 94<261.137 506.555>
VStem: 60 109<405.397 522> 105 111<937 1032.13> 548 115<812.35 1036.3> 579 121<386.375 612.166>
LayerCount: 2
Fore
SplineSet
60 522 m 1,0,-1
 169 525 l 1,1,2
 178 434 178 434 233 384 c 128,-1,3
 288 334 288 334 383 334 c 0,4,5
 431 334 431 334 468 346.5 c 128,-1,6
 505 359 505 359 529.5 381.5 c 128,-1,7
 554 404 554 404 566.5 434.5 c 128,-1,8
 579 465 579 465 579 501 c 0,9,10
 579 542 579 542 562.5 574 c 128,-1,11
 546 606 546 606 516.5 627.5 c 128,-1,12
 487 649 487 649 446.5 660.5 c 128,-1,13
 406 672 406 672 357 673 c 2,14,-1
 290 674 l 1,15,-1
 290 773 l 1,16,-1
 354 773 l 2,17,18
 451 773 451 773 499.5 809 c 128,-1,19
 548 845 548 845 548 921 c 0,20,21
 548 955 548 955 538 983.5 c 128,-1,22
 528 1012 528 1012 507 1033 c 128,-1,23
 486 1054 486 1054 455 1065.5 c 128,-1,24
 424 1077 424 1077 382 1077 c 0,25,26
 301 1077 301 1077 261 1033.5 c 128,-1,27
 221 990 221 990 216 917 c 1,28,-1
 105 937 l 1,29,30
 107 990 107 990 126.5 1033.5 c 128,-1,31
 146 1077 146 1077 180.5 1107.5 c 128,-1,32
 215 1138 215 1138 263 1154.5 c 128,-1,33
 311 1171 311 1171 370 1171 c 0,34,35
 507 1171 507 1171 585 1110 c 128,-1,36
 663 1049 663 1049 663 935 c 0,37,38
 663 866 663 866 627 810.5 c 128,-1,39
 591 755 591 755 527 727 c 1,40,41
 616 698 616 698 658 644.5 c 128,-1,42
 700 591 700 591 700 508 c 0,43,44
 700 448 700 448 678 399 c 128,-1,45
 656 350 656 350 614 314.5 c 128,-1,46
 572 279 572 279 511.5 259.5 c 128,-1,47
 451 240 451 240 374 240 c 0,48,49
 305 240 305 240 247.5 257 c 128,-1,50
 190 274 190 274 148.5 309 c 128,-1,51
 107 344 107 344 83.5 397 c 128,-1,52
 60 450 60 450 60 522 c 1,0,-1
EndSplineSet
EndChar

StartChar: onesuperior
Encoding: 185 185 238
Width: 889
Flags: W
HStem: 320 88<230 347 454 567> 1065 93<223 347>
VStem: 347 107<409 1065>
LayerCount: 2
Fore
SplineSet
230 408 m 1,0,-1
 347 409 l 1,1,-1
 346 739 l 1,2,-1
 347 1065 l 1,3,-1
 223 1060 l 1,4,-1
 223 1149 l 1,5,-1
 348 1158 l 1,6,-1
 455 1158 l 1,7,-1
 454 782 l 1,8,-1
 454 409 l 1,9,-1
 567 408 l 1,10,-1
 567 320 l 1,11,-1
 230 320 l 1,12,-1
 230 408 l 1,0,-1
EndSplineSet
EndChar

StartChar: foursuperior
Encoding: 8308 8308 242
Width: 955
Flags: W
HStem: 258 93<308 434 544 663> 517 91<183 434 544 695> 1152 20G<430.348 544>
VStem: 434 110<358 517 608 981>
LayerCount: 2
Fore
SplineSet
308 351 m 1,0,-1
 434 358 l 1,1,-1
 434 517 l 1,2,-1
 114 517 l 1,3,-1
 59 608 l 1,4,-1
 444 1172 l 1,5,-1
 544 1172 l 1,6,-1
 544 608 l 1,7,-1
 695 608 l 1,8,-1
 695 517 l 1,9,-1
 544 517 l 1,10,-1
 544 358 l 1,11,-1
 663 351 l 1,12,-1
 663 258 l 1,13,-1
 308 258 l 1,14,-1
 308 351 l 1,0,-1
434 981 m 1,15,-1
 427 981 l 1,16,-1
 183 608 l 1,17,-1
 434 608 l 1,18,-1
 434 981 l 1,15,-1
EndSplineSet
EndChar

StartChar: multiply
Encoding: 215 215 243
Width: 1145
Flags: W
LayerCount: 2
Fore
SplineSet
861 915 m 1,0,-1
 943 832 l 1,1,-1
 657 546 l 1,2,-1
 934 268 l 1,3,-1
 848 182 l 1,4,-1
 569 458 l 1,5,-1
 284 173 l 1,6,-1
 201 255 l 1,7,-1
 487 541 l 1,8,-1
 211 820 l 1,9,-1
 297 906 l 1,10,-1
 574 629 l 1,11,-1
 861 915 l 1,0,-1
EndSplineSet
EndChar

StartChar: thorn
Encoding: 254 254 248
Width: 848
Flags: W
HStem: -224 122<-71 79> -14 125<331.543 641.516> 698 129<337.915 645.185> 1042 124<-68 79>
VStem: -71 301<-224 -102 1045 1166> 77.5 152.5<-101 101 208.455 590.763 707 1042> 760 159<235.802 581.132>
LayerCount: 2
Fore
SplineSet
-71 -102 m 1,0,-1
 79 -101 l 1,1,2
 78 76 78 76 78 219 c 0,3,4
 78 280 78 280 77.5 340 c 128,-1,5
 77 400 77 400 77 450 c 128,-1,6
 77 500 77 500 77 534.5 c 128,-1,7
 77 569 77 569 77 580 c 0,8,9
 77 588 77 588 77 624.5 c 128,-1,10
 77 661 77 661 77 711 c 128,-1,11
 77 761 77 761 77 817.5 c 128,-1,12
 77 874 77 874 77.5 922.5 c 128,-1,13
 78 971 78 971 78.5 1004.5 c 128,-1,14
 79 1038 79 1038 79 1042 c 1,15,16
 75 1042 75 1042 51.5 1042 c 128,-1,17
 28 1042 28 1042 2 1043 c 0,18,19
 -30 1044 -30 1044 -68 1045 c 1,20,-1
 -68 1166 l 1,21,-1
 227 1166 l 1,22,23
 226 1047 226 1047 226 949 c 0,24,25
 226 907 226 907 225.5 866.5 c 128,-1,26
 225 826 225 826 225 792.5 c 128,-1,27
 225 759 225 759 225 736 c 128,-1,28
 225 713 225 713 225 707 c 1,29,30
 289 770 289 770 360 798.5 c 128,-1,31
 431 827 431 827 522 827 c 0,32,33
 614 827 614 827 687.5 794.5 c 128,-1,34
 761 762 761 762 812.5 705.5 c 128,-1,35
 864 649 864 649 891.5 573 c 128,-1,36
 919 497 919 497 919 410 c 256,37,38
 919 323 919 323 891.5 245.5 c 128,-1,39
 864 168 864 168 812 110.5 c 128,-1,40
 760 53 760 53 686.5 19.5 c 128,-1,41
 613 -14 613 -14 520 -14 c 0,42,43
 476 -14 476 -14 434 -6 c 128,-1,44
 392 2 392 2 354.5 17 c 128,-1,45
 317 32 317 32 285.5 53.5 c 128,-1,46
 254 75 254 75 231 101 c 1,47,48
 231 101 231 101 230.5 87 c 128,-1,49
 230 73 230 73 230 50 c 128,-1,50
 230 27 230 27 230 -2.5 c 128,-1,51
 230 -32 230 -32 230 -62 c 2,52,-1
 230 -224 l 1,53,-1
 -71 -224 l 1,54,-1
 -71 -102 l 1,0,-1
490 111 m 0,55,56
 553 111 553 111 603.5 134 c 128,-1,57
 654 157 654 157 688.5 197.5 c 128,-1,58
 723 238 723 238 741.5 293 c 128,-1,59
 760 348 760 348 760 413 c 0,60,61
 760 486 760 486 737 540 c 128,-1,62
 714 594 714 594 676.5 629 c 128,-1,63
 639 664 639 664 591.5 681 c 128,-1,64
 544 698 544 698 494 698 c 0,65,66
 439 698 439 698 392.5 681 c 128,-1,67
 346 664 346 664 311.5 633 c 128,-1,68
 277 602 277 602 255.5 559 c 128,-1,69
 234 516 234 516 230 464 c 1,70,-1
 230 343 l 2,71,72
 230 294 230 294 249 251.5 c 128,-1,73
 268 209 268 209 302.5 178 c 128,-1,74
 337 147 337 147 384.5 129 c 128,-1,75
 432 111 432 111 490 111 c 0,55,56
EndSplineSet
EndChar

StartChar: Thorn
Encoding: 222 222 249
Width: 1017
Flags: W
HStem: 0 126<40 191 353 511> 386 125<353 735.584> 882 130<351 741.918> 1028 127<40 191>
VStem: 191 160<127 386 511 882 1012 1028> 804 165<575.011 822.074>
LayerCount: 2
Fore
SplineSet
40 127 m 1,0,-1
 191 127 l 1,1,-1
 191 482 l 1,2,-1
 191 1028 l 1,3,-1
 40 1028 l 1,4,-1
 40 1155 l 1,5,-1
 351 1155 l 1,6,-1
 351 1012 l 1,7,-1
 573 1012 l 2,8,9
 693 1012 693 1012 769.5 982.5 c 128,-1,10
 846 953 846 953 890.5 907 c 128,-1,11
 935 861 935 861 952 805 c 128,-1,12
 969 749 969 749 969 696 c 0,13,14
 969 615 969 615 935 556.5 c 128,-1,15
 901 498 901 498 841 460 c 128,-1,16
 781 422 781 422 698 404 c 128,-1,17
 615 386 615 386 516 386 c 2,18,-1
 353 386 l 1,19,-1
 353 126 l 1,20,-1
 511 126 l 1,21,-1
 511 0 l 1,22,-1
 40 0 l 1,23,-1
 40 127 l 1,0,-1
351 511 m 1,24,-1
 529 511 l 2,25,26
 610 511 610 511 663.5 525.5 c 128,-1,27
 717 540 717 540 748 565 c 128,-1,28
 779 590 779 590 791.5 624 c 128,-1,29
 804 658 804 658 804 697 c 0,30,31
 804 789 804 789 744.5 836 c 128,-1,32
 685 883 685 883 578 883 c 0,33,34
 571 883 571 883 557.5 883 c 128,-1,35
 544 883 544 883 527 882.5 c 128,-1,36
 510 882 510 882 490 882 c 128,-1,37
 470 882 470 882 451 882 c 2,38,-1
 351 882 l 1,39,-1
 351 511 l 1,24,-1
EndSplineSet
EndChar

StartChar: uni0311
Encoding: 785 785 278
Width: 584
Flags: W
HStem: 1053 105<186.995 396.169>
VStem: 34 110<925 1015.76> 439 111<925 1015.76>
LayerCount: 2
Fore
SplineSet
34 925 m 1,0,1
 38 977 38 977 59 1020 c 128,-1,2
 80 1063 80 1063 113.5 1094 c 128,-1,3
 147 1125 147 1125 192.5 1141.5 c 128,-1,4
 238 1158 238 1158 292 1158 c 256,5,6
 346 1158 346 1158 391 1141 c 128,-1,7
 436 1124 436 1124 470 1093.5 c 128,-1,8
 504 1063 504 1063 524.5 1020 c 128,-1,9
 545 977 545 977 550 925 c 1,10,-1
 439 925 l 1,11,12
 431 985 431 985 391.5 1019 c 128,-1,13
 352 1053 352 1053 292 1053 c 0,14,15
 229 1053 229 1053 191.5 1019 c 128,-1,16
 154 985 154 985 144 925 c 1,17,-1
 34 925 l 1,0,1
EndSplineSet
EndChar

